<?xml version="1.0" encoding="UTF-8" standalone="no"?>
<!-- Created with Inkscape (http://www.inkscape.org/) -->
<svg
   xmlns:dc="http://purl.org/dc/elements/1.1/"
   xmlns:cc="http://web.resource.org/cc/"
   xmlns:rdf="http://www.w3.org/1999/02/22-rdf-syntax-ns#"
   xmlns:svg="http://www.w3.org/2000/svg"
   xmlns="http://www.w3.org/2000/svg"
   xmlns:sodipodi="http://sodipodi.sourceforge.net/DTD/sodipodi-0.dtd"
   xmlns:inkscape="http://www.inkscape.org/namespaces/inkscape"
   width="90"
   height="90"
   id="svg2300"
   sodipodi:version="0.32"
   inkscape:version="0.45"
   version="1.0"
   sodipodi:docname="uploadadd.svg"
   sodipodi:docbase="/home/lukisuser/Desktop/mounted storage/bfiles 2007/Projects/Filezilla Toolbar/svg_icons/toolbar_quicktransfer"
   inkscape:output_extension="org.inkscape.output.svg.inkscape"
   sodipodi:modified="true">
  <defs
     id="defs2302">
    <filter
       inkscape:collect="always"
       x="-0.04273183"
       width="1.0854637"
       y="-0.26730121"
       height="1.5346024"
       id="filter15868">
      <feGaussianBlur
         inkscape:collect="always"
         stdDeviation="1.3567961"
         id="feGaussianBlur15870" />
    </filter>
    <filter
       inkscape:collect="always"
       id="filter18398">
      <feGaussianBlur
         inkscape:collect="always"
         stdDeviation="1.0930808"
         id="feGaussianBlur18400" />
    </filter>
    <filter
       inkscape:collect="always"
       x="-0.16906982"
       width="1.3381396"
       y="-0.16777724"
       height="1.3355545"
       id="filter4463">
      <feGaussianBlur
         inkscape:collect="always"
         stdDeviation="1.7144737"
         id="feGaussianBlur4465" />
    </filter>
    <filter
       inkscape:collect="always"
       x="-0.11727078"
       width="1.2345416"
       y="-0.18028409"
       height="1.3605682"
       id="filter4374">
      <feGaussianBlur
         inkscape:collect="always"
         stdDeviation="2.3014391"
         id="feGaussianBlur4376" />
    </filter>
    <clipPath
       clipPathUnits="userSpaceOnUse"
       id="clipPath3642">
      <rect
         style="opacity:1;fill:#f300a2;fill-opacity:0.32098766;stroke:none;stroke-width:7;stroke-linecap:butt;stroke-linejoin:miter;stroke-miterlimit:4;stroke-dasharray:none;stroke-opacity:1"
         id="rect3609"
         width="32.243084"
         height="58.073177"
         x="551.87329"
         y="975.05005" />
    </clipPath>
    <clipPath
       clipPathUnits="userSpaceOnUse"
       id="clipPath4785">
      <path
         sodipodi:nodetypes="cscccc"
         id="path4787"
         d="M 126.71477,349.26711 C 126.57493,344.03097 123.35546,341.9854 119.24316,341.1145 C 115.09248,340.23547 113.2887,337.35328 113.63137,330.87602 L 108.87749,333.79028 L 109.00187,349.4002 L 126.71477,349.26711 z "
         style="fill:none;fill-opacity:0.75;fill-rule:evenodd;stroke:#000000;stroke-width:0.99999994px;stroke-linecap:butt;stroke-linejoin:miter;stroke-opacity:1" />
    </clipPath>
    <filter
       inkscape:collect="always"
       x="-0.10598437"
       width="1.2119687"
       y="-0.14111567"
       height="1.2822313"
       id="filter5875">
      <feGaussianBlur
         inkscape:collect="always"
         stdDeviation="2.8416194"
         id="feGaussianBlur5877" />
    </filter>
    <clipPath
       clipPathUnits="userSpaceOnUse"
       id="clipPath5889">
      <path
         inkscape:export-ydpi="20.608969"
         inkscape:export-xdpi="20.608969"
         inkscape:export-filename="C:\bfiles\Projects\FileZilla toolbar\path6567.png"
         sodipodi:nodetypes="ccccccc"
         id="path5891"
         d="M 114.86786,215.1799 L 114.87924,255.83988 L 161.06423,255.83941 L 161.03798,217.74476 L 151.00543,209.88842 L 114.89037,209.86763 L 114.86786,215.1799 z "
         style="fill:none;fill-opacity:1;fill-rule:evenodd;stroke:#ee4747;stroke-width:0.27000001;stroke-linecap:butt;stroke-linejoin:round;stroke-miterlimit:4;stroke-dasharray:none;stroke-opacity:1" />
    </clipPath>
  </defs>
  <sodipodi:namedview
     id="base"
     pagecolor="#ffffff"
     bordercolor="#666666"
     borderopacity="1.0"
     gridtolerance="10000"
     guidetolerance="10"
     objecttolerance="10"
     inkscape:pageopacity="0.0"
     inkscape:pageshadow="2"
     inkscape:zoom="4.7"
     inkscape:cx="45"
     inkscape:cy="46.268591"
     inkscape:document-units="in"
     inkscape:current-layer="layer1"
     width="1in"
     height="1in"
     units="in"
     gridspacingx="0.0625in"
     gridspacingy="0.0625in"
     showgrid="true"
     gridanglex="0.33333333in"
     gridanglez="0.33333333in"
     grid_units="in"
     gridempspacing="8"
     inkscape:window-width="910"
     inkscape:window-height="626"
     inkscape:window-x="342"
     inkscape:window-y="294"
     inkscape:grid-bbox="true"
     inkscape:grid-points="false"
     gridoriginx="0in" />
  <metadata
     id="metadata2305">
    <rdf:RDF>
      <cc:Work
         rdf:about="">
        <dc:format>image/svg+xml</dc:format>
        <dc:type
           rdf:resource="http://purl.org/dc/dcmitype/StillImage" />
      </cc:Work>
    </rdf:RDF>
  </metadata>
  <g
     inkscape:label="Layer 1"
     inkscape:groupmode="layer"
     id="layer1">
    <g
       id="g22226"
       inkscape:export-filename="C:\bfiles\Projects\FileZilla toolbar\path6567.png"
       inkscape:export-xdpi="42.665394"
       inkscape:export-ydpi="42.665394"
       transform="matrix(1.3259583,0,0,1.3338351,-253.72115,-15.40922)">
      <path
         inkscape:export-ydpi="21.144526"
         inkscape:export-xdpi="21.144526"
         inkscape:export-filename="C:\bfiles\Projects\FileZilla toolbar\path6567.png"
         id="path22228"
         d="M 250.18156,24.446276 C 249.70236,24.491487 249.33255,24.887651 249.32045,25.36876 L 249.19743,28.751199 L 192.88918,28.597452 C 192.63611,28.596747 192.39154,28.695278 192.21259,28.874197 C 192.03365,29.053116 191.9351,29.297656 191.9358,29.550685 L 191.99731,35.546828 C 191.9966,35.799857 192.09515,36.044396 192.2741,36.223316 C 192.45304,36.402233 192.69762,36.500766 192.95069,36.500061 L 249.19743,36.500061 L 249.10517,39.421259 C 249.08438,39.794392 249.29637,40.14058 249.62799,40.312993 C 249.9596,40.485407 250.34931,40.45205 250.64288,40.220744 L 258.30331,33.486615 C 258.54094,33.311487 258.69709,33.043729 258.70311,32.748628 C 258.70913,32.453528 258.56435,32.164567 258.33406,31.979892 L 250.88891,24.661523 C 250.69184,24.497289 250.43673,24.419662 250.18156,24.446276 z "
         style="fill:#5ba43c;fill-opacity:1;fill-rule:evenodd;stroke:#397637;stroke-width:0.90249598;stroke-linecap:butt;stroke-linejoin:miter;stroke-miterlimit:4;stroke-dasharray:none;stroke-opacity:1"
         sodipodi:nodetypes="ccccsccscccsccsccc" />
      <path
         inkscape:export-ydpi="21.144526"
         inkscape:export-xdpi="21.144526"
         inkscape:export-filename="C:\bfiles\Projects\FileZilla toolbar\path6567.png"
         transform="matrix(0.9841335,0,0,0.9839824,91.60701,-0.2431612)"
         sodipodi:nodetypes="cccccccc"
         id="path22230"
         d="M 103.46209,31.480034 L 103.2461,35.583958 L 161.75536,35.799954 L 162.86295,37.877919 L 166.74893,33.639994 L 162.80871,29.347785 L 161.97135,31.264038 L 103.46209,31.480034 z "
         style="fill:#318119;fill-opacity:1;fill-rule:evenodd;stroke:none;stroke-width:1px;stroke-linecap:butt;stroke-linejoin:miter;stroke-opacity:1;filter:url(#filter15868)" />
      <path
         inkscape:export-ydpi="21.144526"
         inkscape:export-xdpi="21.144526"
         inkscape:export-filename="C:\bfiles\Projects\FileZilla toolbar\path6567.png"
         sodipodi:nodetypes="ccccc"
         id="path22232"
         d="M 249.32357,29.693526 L 249.58447,30.972467 L 194.60955,30.759937 L 193.21363,29.666476 L 249.32357,29.693526 z "
         style="fill:#b6e4af;fill-opacity:1;fill-rule:evenodd;stroke:none;stroke-width:1px;stroke-linecap:butt;stroke-linejoin:miter;stroke-opacity:1" />
      <path
         sodipodi:nodetypes="cccc"
         inkscape:export-ydpi="21.144526"
         inkscape:export-xdpi="21.144526"
         inkscape:export-filename="C:\bfiles\Projects\FileZilla toolbar\path6567.png"
         id="path22234"
         d="M 250.40241,25.621045 L 252.37348,28.371943 L 250.48587,30.8916 L 250.40241,25.621045 z "
         style="fill:#b6e4af;fill-opacity:1;fill-rule:evenodd;stroke:none;stroke-width:1px;stroke-linecap:butt;stroke-linejoin:miter;stroke-opacity:1" />
    </g>
    <g
       id="g22236"
       transform="matrix(1.325958,0,0,1.3338351,-133.57377,-16.114677)"
       inkscape:export-filename="C:\bfiles\Projects\FileZilla toolbar\path6567.png"
       inkscape:export-xdpi="42.665394"
       inkscape:export-ydpi="42.665394">
      <path
         inkscape:export-ydpi="21.211798"
         inkscape:export-xdpi="21.211798"
         inkscape:export-filename="C:\bfiles\Projects\FileZilla toolbar\path6567.png"
         id="path22238"
         d="M 108.74945,62.50857 C 109.22866,62.463359 109.59847,62.067196 109.61057,61.586087 L 109.73359,58.203647 L 167.10564,58.357395 C 167.35871,58.3581 167.60329,58.259569 167.78224,58.08065 C 167.96118,57.901731 168.05973,57.657191 168.05902,57.404162 L 167.99751,51.408019 C 167.99822,51.15499 167.89967,50.91045 167.72073,50.731531 C 167.54178,50.552613 167.29721,50.45408 167.04414,50.454786 L 109.73359,50.454786 L 109.82585,47.533588 C 109.84664,47.160455 109.63464,46.814267 109.30303,46.641854 C 108.97142,46.46944 108.58171,46.502797 108.28814,46.734102 L 101.69152,53.468232 C 101.45389,53.64336 101.29774,53.911118 101.29172,54.206219 C 101.28569,54.501319 101.43048,54.790279 101.66077,54.974955 L 108.04211,62.293324 C 108.23918,62.457558 108.49429,62.535185 108.74945,62.50857 z "
         style="fill:#5ba43c;fill-opacity:1;fill-rule:evenodd;stroke:#397637;stroke-width:0.90249604;stroke-linecap:butt;stroke-linejoin:miter;stroke-miterlimit:4;stroke-dasharray:none;stroke-opacity:1"
         sodipodi:nodetypes="ccccsccscccsccsccc" />
      <path
         inkscape:export-ydpi="21.211798"
         inkscape:export-xdpi="21.211798"
         inkscape:export-filename="C:\bfiles\Projects\FileZilla toolbar\path6567.png"
         transform="matrix(-0.9841335,0,0,-0.9839824,291.97627,124.39325)"
         sodipodi:nodetypes="cccccccc"
         id="path22240"
         d="M 127.43085,69.280753 L 127.21486,73.384677 L 186.66996,73.600673 L 187.37219,75.408358 L 190.71769,71.440713 L 187.72331,67.689064 L 186.88595,69.064757 L 127.43085,69.280753 z "
         style="fill:#2f7c18;fill-opacity:1;fill-rule:evenodd;stroke:none;stroke-width:1px;stroke-linecap:butt;stroke-linejoin:miter;stroke-opacity:1;filter:url(#filter15868)" />
      <path
         inkscape:export-ydpi="21.211798"
         inkscape:export-xdpi="21.211798"
         inkscape:export-filename="C:\bfiles\Projects\FileZilla toolbar\path6567.png"
         sodipodi:nodetypes="ccccc"
         id="path22242"
         d="M 113.80798,51.121099 L 115.14683,52.40004 L 165.11199,52.187509 L 167.44394,51.094049 L 113.80798,51.121099 z "
         style="fill:#b6e4af;fill-opacity:1;fill-rule:evenodd;stroke:none;stroke-width:1px;stroke-linecap:butt;stroke-linejoin:miter;stroke-opacity:1" />
      <path
         sodipodi:nodetypes="cccc"
         inkscape:export-ydpi="21.211798"
         inkscape:export-xdpi="21.211798"
         inkscape:export-filename="C:\bfiles\Projects\FileZilla toolbar\path6567.png"
         id="path22244"
         d="M 108.79456,50.946795 L 108.81621,47.770824 L 102.54852,54.177693 L 108.79456,50.946795 z "
         style="fill:#b6e4af;fill-opacity:1;fill-rule:evenodd;stroke:none;stroke-width:1px;stroke-linecap:butt;stroke-linejoin:miter;stroke-opacity:1" />
    </g>
    <g
       id="g22252"
       transform="matrix(1.3802975,0,0,1.3808272,-193.18414,46.160647)"
       inkscape:export-filename="C:\bfiles\Projects\FileZilla toolbar\path6567.png"
       inkscape:export-xdpi="21.332697"
       inkscape:export-ydpi="21.332697">
      <path
         inkscape:export-ydpi="42.665394"
         inkscape:export-xdpi="42.665394"
         inkscape:export-filename="C:\bfiles\Projects\FileZilla toolbar\path6567.png"
         sodipodi:nodetypes="cccccc"
         id="path22254"
         d="M 157.04855,-24.642106 L 181.13754,-24.642106 L 188.27185,-17.498102 L 188.27185,18.981902 L 157.04855,18.981902 L 157.04855,-24.642106 z "
         style="fill:#dee4e5;fill-opacity:1;stroke:#79838c;stroke-width:1.39099419;stroke-linecap:butt;stroke-linejoin:round;stroke-miterlimit:4;stroke-dasharray:none;stroke-dashoffset:0;stroke-opacity:1" />
      <path
         style="font-size:29.88877487px;font-style:italic;font-weight:bold;fill:#000000;fill-opacity:1;stroke:none;stroke-width:1px;stroke-linecap:butt;stroke-linejoin:miter;stroke-opacity:1;font-family:Palatino Linotype"
         d="M 161.58006,4.8937116 L 161.47495,4.7585592 L 161.58006,3.9776781 L 161.73024,3.8575426 C 162.51112,3.7974758 162.95912,3.7549278 163.07425,3.7298986 C 163.18939,3.7048715 163.30702,3.6473066 163.42715,3.5572037 C 163.54728,3.4671034 163.66743,3.3344539 163.78756,3.1592548 C 163.90769,2.9840589 164.29312,2.3358281 164.94386,1.2145606 L 166.70084,-1.7738108 L 170.95064,-9.0870611 L 173.54857,-13.456992 C 174.30942,-14.718396 174.87005,-15.704507 175.23047,-16.415329 L 178.15877,-16.415329 L 178.77447,-11.940281 L 179.48027,-6.98469 L 180.06593,-2.9301154 L 180.53145,0.10330695 L 180.83179,1.9203569 C 180.94189,2.7412853 181.11208,3.2668777 181.34237,3.497136 C 181.57261,3.7273969 182.28841,3.8475323 183.48979,3.8575426 L 183.59491,3.9926951 L 183.5048,4.7585592 L 183.35463,4.8937116 C 181.09206,4.8136213 179.58036,4.7735761 178.81951,4.7735761 C 178.15876,4.7735761 176.69711,4.8136213 174.43457,4.8937116 L 174.31443,4.7585592 L 174.43457,3.9926951 L 174.58474,3.8575426 C 175.55582,3.8575436 176.17652,3.7824589 176.44684,3.6322885 C 176.71713,3.4821203 176.85229,3.2418495 176.8523,2.9114752 C 176.85229,2.2106871 176.61201,0.10331155 176.13148,-3.4106576 C 175.22044,-3.4206607 174.62478,-3.4256664 174.34447,-3.4256746 L 172.04688,-3.4106576 L 169.34383,-3.4106576 C 168.75316,-2.3894983 168.12745,-1.2407033 167.46671,0.035730654 C 166.80596,1.3121742 166.41302,2.1230883 166.28788,2.4684753 C 166.16273,2.8138671 166.10016,3.0466294 166.10017,3.1667633 C 166.10016,3.346968 166.20528,3.4996401 166.41552,3.62478 C 166.62576,3.7499222 167.36659,3.8275097 168.63803,3.8575426 L 168.74315,3.9926951 L 168.63803,4.7735761 L 168.48786,4.8937116 C 168.47785,4.8937115 168.11243,4.873689 167.39162,4.8336439 C 166.43053,4.7935987 165.69972,4.7735761 165.19915,4.7735761 C 164.90882,4.7735761 163.70246,4.8136213 161.58006,4.8937116 L 161.58006,4.8937116 z M 170.06464,-4.7771994 C 170.54517,-4.7671785 170.8355,-4.7621729 170.93563,-4.7621825 C 174.04912,-4.7621729 175.72601,-4.7671785 175.9663,-4.7771994 L 174.79498,-12.901365 L 170.06464,-4.7771994 z "
         id="path22256"
         inkscape:export-xdpi="42.665394"
         inkscape:export-ydpi="42.665394"
         inkscape:export-filename="C:\bfiles\Projects\FileZilla toolbar\path6567.png" />
      <path
         transform="matrix(0.8685349,0,0,0.8451361,53.538531,-39.744253)"
         clip-path="none"
         inkscape:export-ydpi="42.665394"
         inkscape:export-xdpi="42.665394"
         inkscape:export-filename="C:\bfiles\Projects\FileZilla toolbar\path6567.png"
         sodipodi:nodetypes="ccccc"
         id="path22258"
         d="M 153.93417,43.034099 C 147.37402,62.061615 131.60722,65.421963 120.34363,59.101014 L 120.48214,68.529107 L 154.1873,68.390606 L 153.93417,43.034099 z "
         style="fill:#c3c9d1;fill-opacity:1;fill-rule:evenodd;stroke:none;stroke-width:1px;stroke-linecap:butt;stroke-linejoin:miter;stroke-opacity:1;filter:url(#filter18398)" />
      <path
         inkscape:export-ydpi="42.665394"
         inkscape:export-xdpi="42.665394"
         inkscape:export-filename="C:\bfiles\Projects\FileZilla toolbar\path6567.png"
         sodipodi:nodetypes="ccccccc"
         id="path22260"
         d="M 158.33289,-5.9982982 L 158.1365,-23.556511 L 180.06063,-23.556511 L 177.00895,-19.212211 L 160.88989,-19.161271 L 160.74053,-8.3754252 L 158.33289,-5.9982982 z "
         style="fill:#ffffff;fill-opacity:1;fill-rule:evenodd;stroke:none;stroke-width:1px;stroke-linecap:butt;stroke-linejoin:miter;stroke-opacity:1" />
    </g>
  </g>
</svg>
