<?xml version="1.0" encoding="UTF-8" standalone="no"?>
<!-- Created with Inkscape (http://www.inkscape.org/) -->

<svg
   xmlns:dc="http://purl.org/dc/elements/1.1/"
   xmlns:cc="http://creativecommons.org/ns#"
   xmlns:rdf="http://www.w3.org/1999/02/22-rdf-syntax-ns#"
   xmlns:svg="http://www.w3.org/2000/svg"
   xmlns="http://www.w3.org/2000/svg"
   xmlns:sodipodi="http://sodipodi.sourceforge.net/DTD/sodipodi-0.dtd"
   xmlns:inkscape="http://www.inkscape.org/namespaces/inkscape"
   width="48"
   height="48"
   id="svg2300"
   sodipodi:version="0.32"
   inkscape:version="0.47 r22583"
   version="1.0"
   sodipodi:docname="binary.svg"
   inkscape:output_extension="org.inkscape.output.svg.inkscape"
   sodipodi:modified="true"
   inkscape:export-filename="48x48\binary.png"
   inkscape:export-xdpi="90"
   inkscape:export-ydpi="90">
  <defs
     id="defs2302">
    <inkscape:perspective
       sodipodi:type="inkscape:persp3d"
       inkscape:vp_x="0 : 45 : 1"
       inkscape:vp_y="0 : 1000 : 0"
       inkscape:vp_z="90 : 45 : 1"
       inkscape:persp3d-origin="45 : 30 : 1"
       id="perspective44" />
    <filter
       inkscape:collect="always"
       x="-0.042731829"
       width="1.0854636"
       y="-0.2673012"
       height="1.5346024"
       id="filter15868"
       color-interpolation-filters="sRGB">
      <feGaussianBlur
         inkscape:collect="always"
         stdDeviation="1.3567961"
         id="feGaussianBlur15870" />
    </filter>
    <filter
       inkscape:collect="always"
       id="filter18398"
       color-interpolation-filters="sRGB">
      <feGaussianBlur
         inkscape:collect="always"
         stdDeviation="1.0930808"
         id="feGaussianBlur18400" />
    </filter>
    <clipPath
       clipPathUnits="userSpaceOnUse"
       id="clipPath3642">
      <rect
         style="fill:#f300a2;fill-opacity:0.32098766;stroke:none"
         id="rect3609"
         width="32.243084"
         height="58.073177"
         x="551.87329"
         y="975.05005" />
    </clipPath>
    <clipPath
       clipPathUnits="userSpaceOnUse"
       id="clipPath4785">
      <path
         sodipodi:nodetypes="cscccc"
         id="path4787"
         d="m 126.71477,349.26711 c -0.13984,-5.23614 -3.35931,-7.28171 -7.47161,-8.15261 -4.15068,-0.87903 -5.95446,-3.76122 -5.61179,-10.23848 l -4.75388,2.91426 0.12438,15.60992 17.7129,-0.13309 z"
         style="fill:none;stroke:#000000;stroke-width:0.99999994px;stroke-linecap:butt;stroke-linejoin:miter;stroke-opacity:1" />
    </clipPath>
    <clipPath
       clipPathUnits="userSpaceOnUse"
       id="clipPath5889">
      <path
         inkscape:export-ydpi="20.608969"
         inkscape:export-xdpi="20.608969"
         inkscape:export-filename="C:\bfiles\Projects\FileZilla toolbar\path6567.png"
         sodipodi:nodetypes="ccccccc"
         id="path5891"
         d="m 114.86786,215.1799 0.0114,40.65998 46.18499,-4.7e-4 -0.0263,-38.09465 -10.03255,-7.85634 -36.11506,-0.0208 -0.0225,5.31227 z"
         style="fill:none;stroke:#ee4747;stroke-width:0.27000001;stroke-linecap:butt;stroke-linejoin:round;stroke-miterlimit:4;stroke-opacity:1;stroke-dasharray:none" />
    </clipPath>
    <inkscape:perspective
       id="perspective3725"
       inkscape:persp3d-origin="0.5 : 0.33333333 : 1"
       inkscape:vp_z="1 : 0.5 : 1"
       inkscape:vp_y="0 : 1000 : 0"
       inkscape:vp_x="0 : 0.5 : 1"
       sodipodi:type="inkscape:persp3d" />
    <filter
       inkscape:collect="always"
       x="-0.042731829"
       width="1.0854636"
       y="-0.2673012"
       height="1.5346024"
       id="filter15868-1"
       color-interpolation-filters="sRGB">
      <feGaussianBlur
         inkscape:collect="always"
         stdDeviation="1.3567961"
         id="feGaussianBlur15870-7" />
    </filter>
  </defs>
  <sodipodi:namedview
     id="base"
     pagecolor="#ffffff"
     bordercolor="#666666"
     borderopacity="1.0"
     gridtolerance="10000"
     guidetolerance="10"
     objecttolerance="10"
     inkscape:pageopacity="0.0"
     inkscape:pageshadow="2"
     inkscape:zoom="10.833333"
     inkscape:cx="23.999999"
     inkscape:cy="23.999999"
     inkscape:document-units="px"
     inkscape:current-layer="layer1"
     width="1in"
     height="1in"
     units="in"
     showgrid="true"
     gridanglex="0.33333333in"
     gridanglez="0.33333333in"
     grid_units="in"
     inkscape:window-width="910"
     inkscape:window-height="772"
     inkscape:window-x="436"
     inkscape:window-y="84"
     inkscape:grid-bbox="true"
     inkscape:grid-points="false"
     inkscape:snap-grids="false"
     inkscape:window-maximized="0">
    <inkscape:grid
       id="GridFromPre046Settings"
       type="xygrid"
       originx="0px"
       originy="0px"
       spacingx="1px"
       spacingy="1px"
       color="#0000ff"
       empcolor="#0000ff"
       opacity="0.2"
       empopacity="0.4"
       empspacing="3"
       units="px"
       visible="true"
       enabled="true"
       snapvisiblegridlinesonly="true" />
  </sodipodi:namedview>
  <metadata
     id="metadata2305">
    <rdf:RDF>
      <cc:Work
         rdf:about="">
        <dc:format>image/svg+xml</dc:format>
        <dc:type
           rdf:resource="http://purl.org/dc/dcmitype/StillImage" />
        <dc:title></dc:title>
      </cc:Work>
    </rdf:RDF>
  </metadata>
  <g
     inkscape:label="Layer 1"
     inkscape:groupmode="layer"
     id="layer1"
     transform="translate(0,-42)">
    <g
       id="g2862"
       transform="translate(-50.953846,0.92307692)">
      <g
         transform="matrix(0.7062498,0,0,0.71015192,-135.13448,33.839584)"
         inkscape:export-ydpi="63.991669"
         inkscape:export-xdpi="63.991669"
         inkscape:export-filename="C:\bfiles\Projects\FileZilla toolbar\path6567.png"
         id="g22262">
        <path
           sodipodi:nodetypes="ccccsccscccsccsccc"
           style="fill:#5ba43c;fill-opacity:1;fill-rule:evenodd;stroke:#397637;stroke-width:0.90249598;stroke-linecap:butt;stroke-linejoin:miter;stroke-miterlimit:4;stroke-opacity:1;stroke-dasharray:none"
           d="m 250.18156,24.446276 c -0.4792,0.04521 -0.84901,0.441375 -0.86111,0.922484 l -0.12302,3.382439 -56.30825,-0.153747 c -0.25307,-7.05e-4 -0.49764,0.09783 -0.67659,0.276745 -0.17894,0.178919 -0.27749,0.423459 -0.27679,0.676488 l 0.0615,5.996143 c -7.1e-4,0.253029 0.0978,0.497568 0.27679,0.676488 0.17894,0.178917 0.42352,0.27745 0.67659,0.276745 l 56.24674,0 -0.0923,2.921198 c -0.0208,0.373133 0.1912,0.719321 0.52282,0.891734 0.33161,0.172414 0.72132,0.139057 1.01489,-0.09225 l 7.66043,-6.734129 c 0.23763,-0.175128 0.39378,-0.442886 0.3998,-0.737987 0.006,-0.2951 -0.13876,-0.584061 -0.36905,-0.768736 l -7.44515,-7.318369 c -0.19707,-0.164234 -0.45218,-0.241861 -0.70735,-0.215247 z"
           id="path22264"
           inkscape:export-filename="C:\bfiles\Projects\FileZilla toolbar\path6567.png"
           inkscape:export-xdpi="21.144526"
           inkscape:export-ydpi="21.144526" />
        <path
           style="fill:#318119;fill-opacity:1;fill-rule:evenodd;stroke:none;filter:url(#filter15868)"
           d="m 103.46209,31.480034 -0.21599,4.103924 58.50926,0.215996 1.10759,2.077965 3.88598,-4.237925 -3.94022,-4.292209 -0.83736,1.916253 -58.50926,0.215996 z"
           id="path22266"
           sodipodi:nodetypes="cccccccc"
           transform="matrix(0.9841335,0,0,0.9839824,91.60701,-0.2431612)"
           inkscape:export-filename="C:\bfiles\Projects\FileZilla toolbar\path6567.png"
           inkscape:export-xdpi="21.144526"
           inkscape:export-ydpi="21.144526" />
        <path
           style="fill:#b6e4af;fill-opacity:1;fill-rule:evenodd;stroke:none"
           d="m 249.32357,29.693526 0.2609,1.278941 -54.97492,-0.21253 -1.29437,-1.093461 56.00839,0.02705 z"
           id="path22268"
           sodipodi:nodetypes="ccccc"
           inkscape:export-filename="C:\bfiles\Projects\FileZilla toolbar\path6567.png"
           inkscape:export-xdpi="21.144526"
           inkscape:export-ydpi="21.144526" />
        <path
           style="fill:#b6e4af;fill-opacity:1;fill-rule:evenodd;stroke:none"
           d="m 250.40241,25.621045 1.97107,2.750898 -1.88761,2.519657 -0.0835,-5.270555 z"
           id="path22270"
           inkscape:export-filename="C:\bfiles\Projects\FileZilla toolbar\path6567.png"
           inkscape:export-xdpi="21.144526"
           inkscape:export-ydpi="21.144526"
           sodipodi:nodetypes="cccc" />
      </g>
      <g
         inkscape:export-ydpi="63.991669"
         inkscape:export-xdpi="63.991669"
         inkscape:export-filename="C:\bfiles\Projects\FileZilla toolbar\path6567.png"
         transform="matrix(0.70624965,0,0,0.71015192,-71.139968,33.463989)"
         id="g22272">
        <path
           sodipodi:nodetypes="ccccsccscccsccsccc"
           style="fill:#5ba43c;fill-opacity:1;fill-rule:evenodd;stroke:#397637;stroke-width:0.90249604;stroke-linecap:butt;stroke-linejoin:miter;stroke-miterlimit:4;stroke-opacity:1;stroke-dasharray:none"
           d="m 108.74945,62.50857 c 0.47921,-0.04521 0.84902,-0.441374 0.86112,-0.922483 l 0.12302,-3.38244 57.37205,0.153748 c 0.25307,7.05e-4 0.49765,-0.09783 0.6766,-0.276745 0.17894,-0.178919 0.27749,-0.423459 0.27678,-0.676488 l -0.0615,-5.996143 c 7.1e-4,-0.253029 -0.0978,-0.497569 -0.27678,-0.676488 -0.17895,-0.178918 -0.42352,-0.277451 -0.67659,-0.276745 l -57.31055,0 0.0923,-2.921198 c 0.0208,-0.373133 -0.19121,-0.719321 -0.52282,-0.891734 -0.33161,-0.172414 -0.72132,-0.139057 -1.01489,0.09225 l -6.59662,6.73413 c -0.23763,0.175128 -0.39378,0.442886 -0.3998,0.737987 -0.006,0.2951 0.13876,0.58406 0.36905,0.768736 l 6.38134,7.318369 c 0.19707,0.164234 0.45218,0.241861 0.70734,0.215246 z"
           id="path22274"
           inkscape:export-filename="C:\bfiles\Projects\FileZilla toolbar\path6567.png"
           inkscape:export-xdpi="21.211798"
           inkscape:export-ydpi="21.211798" />
        <path
           style="fill:#2f7c18;fill-opacity:1;fill-rule:evenodd;stroke:none;filter:url(#filter15868)"
           d="m 127.43085,69.280753 -0.21599,4.103924 59.4551,0.215996 0.70223,1.807685 3.3455,-3.967645 -2.99438,-3.751649 -0.83736,1.375693 -59.4551,0.215996 z"
           id="path22276"
           sodipodi:nodetypes="cccccccc"
           transform="matrix(-0.9841335,0,0,-0.9839824,291.97627,124.39325)"
           inkscape:export-filename="C:\bfiles\Projects\FileZilla toolbar\path6567.png"
           inkscape:export-xdpi="21.211798"
           inkscape:export-ydpi="21.211798" />
        <path
           style="fill:#b6e4af;fill-opacity:1;fill-rule:evenodd;stroke:none"
           d="m 114.01107,51.121099 1.33885,1.278941 49.76207,-0.212531 2.33195,-1.09346 -53.43287,0.02705 z"
           id="path22278"
           sodipodi:nodetypes="ccccc"
           inkscape:export-filename="C:\bfiles\Projects\FileZilla toolbar\path6567.png"
           inkscape:export-xdpi="21.211798"
           inkscape:export-ydpi="21.211798" />
        <path
           style="fill:#b6e4af;fill-opacity:1;fill-rule:evenodd;stroke:none"
           d="m 108.79456,50.946795 0.0216,-3.175971 -6.26769,6.406869 6.24604,-3.230898 z"
           id="path22280"
           inkscape:export-filename="C:\bfiles\Projects\FileZilla toolbar\path6567.png"
           inkscape:export-xdpi="21.211798"
           inkscape:export-ydpi="21.211798"
           sodipodi:nodetypes="cccc" />
      </g>
    </g>
    <g
       id="g22226"
       inkscape:export-filename="C:\bfiles\Projects\FileZilla toolbar\path6567.png"
       inkscape:export-xdpi="42.665394"
       inkscape:export-ydpi="42.665394"
       transform="matrix(0.70480029,0,0,0.70898713,-134.70149,33.97794)">
      <path
         inkscape:export-ydpi="21.144526"
         inkscape:export-xdpi="21.144526"
         inkscape:export-filename="C:\bfiles\Projects\FileZilla toolbar\path6567.png"
         id="path22228"
         d="m 250.18156,24.446276 c -0.4792,0.04521 -0.84901,0.441375 -0.86111,0.922484 l -0.12302,3.811613 -56.30825,-0.153747 c -0.25307,-7.05e-4 -0.49764,0.09783 -0.67659,0.276745 -0.17894,0.178919 -0.27749,0.423459 -0.27679,0.676488 l 0.0615,5.137795 c -7.1e-4,0.253029 0.0978,0.497568 0.27679,0.676488 0.17894,0.178917 0.42352,0.27745 0.67659,0.276745 l 56.24674,0 -0.0923,3.350372 c -0.0208,0.373133 0.1912,0.719321 0.52282,0.891734 0.33161,0.172414 0.72132,0.139057 1.01489,-0.09225 l 7.66043,-6.734129 c 0.23763,-0.175128 0.39378,-0.442886 0.3998,-0.737987 0.006,-0.2951 -0.13876,-0.584061 -0.36905,-0.768736 l -7.44515,-7.318369 c -0.19707,-0.164234 -0.45218,-0.241861 -0.70735,-0.215247 l 5e-5,1e-6 z"
         style="fill:#78ca25;fill-opacity:1;fill-rule:evenodd;stroke:#487917;stroke-width:1.41464603;stroke-linecap:butt;stroke-linejoin:miter;stroke-miterlimit:4;stroke-opacity:1;stroke-dasharray:none"
         sodipodi:nodetypes="ccccsccscccsccscccc" />
      <path
         inkscape:export-ydpi="21.144526"
         inkscape:export-xdpi="21.144526"
         inkscape:export-filename="C:\bfiles\Projects\FileZilla toolbar\path6567.png"
         transform="matrix(0.9841335,0,0,0.9839824,91.60701,-0.2431612)"
         sodipodi:nodetypes="cccccccc"
         id="path22230"
         d="m 103.46209,31.480034 -0.21599,4.103924 58.50926,0.215996 1.10759,2.077965 3.88598,-4.237925 -3.94022,-4.292209 -0.83736,1.916253 -58.50926,0.215996 z"
         style="fill:#4a8115;fill-opacity:1;fill-rule:evenodd;stroke:none;filter:url(#filter15868-1)" />
      <path
         inkscape:export-ydpi="21.144526"
         inkscape:export-xdpi="21.144526"
         inkscape:export-filename="C:\bfiles\Projects\FileZilla toolbar\path6567.png"
         sodipodi:nodetypes="ccccc"
         id="path22232"
         d="m 249.10771,29.908113 0.2609,1.278941 -54.97492,-0.21253 -1.39592,-1.093461 56.10994,0.02705 z"
         style="fill:#c9f89b;fill-opacity:1;fill-rule:evenodd;stroke:none" />
      <path
         sodipodi:nodetypes="cccc"
         inkscape:export-ydpi="21.144526"
         inkscape:export-xdpi="21.144526"
         inkscape:export-filename="C:\bfiles\Projects\FileZilla toolbar\path6567.png"
         id="path22234"
         d="m 250.40241,25.621045 1.97107,2.750898 -1.88761,2.519657 -0.0835,-5.270555 z"
         style="fill:#c9f89b;fill-opacity:1;fill-rule:evenodd;stroke:none" />
    </g>
    <g
       id="g22236"
       transform="matrix(0.70480014,0,0,0.70898713,-70.838323,33.602961)"
       inkscape:export-filename="C:\bfiles\Projects\FileZilla toolbar\path6567.png"
       inkscape:export-xdpi="42.665394"
       inkscape:export-ydpi="42.665394">
      <path
         inkscape:export-ydpi="21.211798"
         inkscape:export-xdpi="21.211798"
         inkscape:export-filename="C:\bfiles\Projects\FileZilla toolbar\path6567.png"
         id="path22238"
         d="m 108.74945,62.50857 c 0.47921,-0.04521 0.84902,-0.441374 0.86112,-0.922483 l 0.12302,-3.918908 57.37205,0.153748 c 0.25307,7.05e-4 0.49765,-0.09783 0.6766,-0.276745 0.17894,-0.178919 0.27749,-0.423459 0.27678,-0.676488 l -0.0615,-5.137794 c 7.1e-4,-0.253029 -0.0978,-0.497569 -0.27678,-0.676488 -0.17895,-0.178918 -0.42352,-0.277451 -0.67659,-0.276745 l -57.31055,0 0.0923,-3.243079 c 0.0208,-0.373133 -0.19121,-0.719321 -0.52282,-0.891734 -0.33161,-0.172414 -0.72132,-0.139057 -1.01489,0.09225 l -6.59662,6.73413 c -0.23763,0.175128 -0.39378,0.442886 -0.3998,0.737987 -0.006,0.2951 0.13876,0.58406 0.36905,0.768736 l 6.38134,7.318369 c 0.19707,0.164234 0.45218,0.241861 0.70734,0.215246 l -5e-5,-2e-6 z"
         style="fill:#78ca25;fill-opacity:1;fill-rule:evenodd;stroke:#487917;stroke-width:1.41464615;stroke-linecap:butt;stroke-linejoin:miter;stroke-miterlimit:4;stroke-opacity:1;stroke-dasharray:none"
         sodipodi:nodetypes="ccccsccscccsccscccc" />
      <path
         inkscape:export-ydpi="21.211798"
         inkscape:export-xdpi="21.211798"
         inkscape:export-filename="C:\bfiles\Projects\FileZilla toolbar\path6567.png"
         transform="matrix(-0.9841335,0,0,-0.9839824,291.97627,124.39325)"
         sodipodi:nodetypes="cccccccc"
         id="path22240"
         d="m 127.43085,69.280753 -0.21599,4.103924 59.4551,0.215996 0.70223,1.807685 3.3455,-3.967645 -2.99438,-3.751649 -0.83736,1.375693 -59.4551,0.215996 z"
         style="fill:#4a8115;fill-opacity:1;fill-rule:evenodd;stroke:none;filter:url(#filter15868-1)" />
      <path
         inkscape:export-ydpi="21.211798"
         inkscape:export-xdpi="21.211798"
         inkscape:export-filename="C:\bfiles\Projects\FileZilla toolbar\path6567.png"
         sodipodi:nodetypes="ccccc"
         id="path22242"
         d="m 113.05246,51.76486 1.33885,1.278941 49.96516,-0.212531 2.33195,-1.09346 -53.63596,0.02705 z"
         style="fill:#c9f89b;fill-opacity:1;fill-rule:evenodd;stroke:none" />
      <path
         sodipodi:nodetypes="cccc"
         inkscape:export-ydpi="21.211798"
         inkscape:export-xdpi="21.211798"
         inkscape:export-filename="C:\bfiles\Projects\FileZilla toolbar\path6567.png"
         id="path22244"
         d="m 108.5787,50.839501 0.0216,-3.175971 -6.26769,6.406869 6.24604,-3.230898 z"
         style="fill:#c9f89b;fill-opacity:1;fill-rule:evenodd;stroke:none" />
    </g>
    <g
       id="g22288"
       transform="matrix(0.73519267,0,0,0.73517115,-102.83558,66.601546)"
       inkscape:export-filename="C:\bfiles\Projects\FileZilla toolbar\path6567.png"
       inkscape:export-xdpi="63.991669"
       inkscape:export-ydpi="63.991669">
      <path
         inkscape:export-ydpi="21.144526"
         inkscape:export-xdpi="21.144526"
         inkscape:export-filename="C:\bfiles\Projects\FileZilla toolbar\path6567.png"
         sodipodi:nodetypes="cccccc"
         id="path22290"
         d="m 157.04855,-24.642106 24.08899,0 7.13431,7.144004 0,36.480004 -31.2233,0 0,-43.624008 z"
         style="fill:#dee4e5;fill-opacity:1;stroke:#79838c;stroke-width:1.39099419;stroke-linecap:butt;stroke-linejoin:round;stroke-miterlimit:4;stroke-opacity:1;stroke-dasharray:none;stroke-dashoffset:0" />
      <path
         transform="matrix(0.8685349,0,0,0.8451361,53.538531,-39.744253)"
         clip-path="none"
         inkscape:export-ydpi="21.144526"
         inkscape:export-xdpi="21.144526"
         inkscape:export-filename="C:\bfiles\Projects\FileZilla toolbar\path6567.png"
         sodipodi:nodetypes="ccccc"
         id="path22294"
         d="m 153.93417,43.034099 c -6.56015,19.027516 -22.32695,22.387864 -33.59054,16.066915 l 0.13851,9.428093 33.70516,-0.138501 -0.25313,-25.356507 z"
         style="fill:#c3c9d1;fill-opacity:1;fill-rule:evenodd;stroke:none;filter:url(#filter18398)" />
      <path
         inkscape:export-ydpi="21.144526"
         inkscape:export-xdpi="21.144526"
         inkscape:export-filename="C:\bfiles\Projects\FileZilla toolbar\path6567.png"
         sodipodi:nodetypes="ccccccc"
         id="path22296"
         d="m 158.33289,-5.9982982 -0.19639,-17.5582128 21.92413,0 -3.05168,4.3443 -16.11906,0.05094 -0.14936,10.7858458 -2.40764,2.377127 z"
         style="fill:#ffffff;fill-opacity:1;fill-rule:evenodd;stroke:none" />
    </g>
    <g
       id="g22160"
       transform="matrix(0.72357728,0,0,0.73289967,-73.291982,33.405799)"
       inkscape:export-filename="C:\bfiles\Projects\FileZilla toolbar\path6567.png"
       inkscape:export-xdpi="63.991669"
       inkscape:export-ydpi="63.991669">
      <rect
         inkscape:export-ydpi="21.211798"
         inkscape:export-xdpi="21.211798"
         inkscape:export-filename="C:\bfiles\Projects\FileZilla toolbar\path6567.png"
         y="28.719769"
         x="123.79667"
         height="18.884007"
         width="20.485361"
         id="rect22162"
         style="fill:#4ea3de;fill-opacity:1;stroke:none" />
      <path
         inkscape:export-ydpi="21.211798"
         inkscape:export-xdpi="21.211798"
         inkscape:export-filename="C:\bfiles\Projects\FileZilla toolbar\path6567.png"
         id="path22164"
         d="m 123.59385,41.627823 c 0.97273,-1.253669 3.87248,-2.982437 5.88193,-2.39038 2.17273,0.640157 3.07906,1.434229 5.67911,1.434229 2.7868,0 4.52115,-0.54759 6.2876,-2.629418 0.93958,-1.107347 1.85276,-1.330823 2.83954,-1.912306 l 0,11.473826 -20.28252,0 -0.40566,-5.975951 z"
         style="fill:#598b4a;fill-opacity:1;fill-rule:evenodd;stroke:none" />
      <path
         inkscape:export-ydpi="21.211798"
         inkscape:export-xdpi="21.211798"
         inkscape:export-filename="C:\bfiles\Projects\FileZilla toolbar\path6567.png"
         id="path22166"
         d="m 127.44753,35.651873 c 4.08125,0.0111 8.12675,-0.478076 12.16951,-0.478076 1.50077,0 2.43142,-1.195192 3.85369,-1.195192 1.02463,0 0.15588,0.183706 0.40566,0.478076"
         style="fill:none;stroke:#ffffff;stroke-width:0.99412698px;stroke-linecap:butt;stroke-linejoin:miter;stroke-opacity:1" />
      <path
         inkscape:export-ydpi="21.211798"
         inkscape:export-xdpi="21.211798"
         inkscape:export-filename="C:\bfiles\Projects\FileZilla toolbar\path6567.png"
         id="path22168"
         d="m 129.07013,32.783415 c 2.70136,0 5.93413,0.522458 8.51867,-0.239038 1.59035,-0.468571 2.60918,-1.284313 4.25933,-1.673267 0.79038,-0.186297 1.81608,0 2.63673,0"
         style="fill:none;stroke:#ffffff;stroke-width:0.99412698px;stroke-linecap:butt;stroke-linejoin:miter;stroke-opacity:1" />
      <path
         inkscape:export-ydpi="21.211798"
         inkscape:export-xdpi="21.211798"
         inkscape:export-filename="C:\bfiles\Projects\FileZilla toolbar\path6567.png"
         id="path22170"
         d="m 132.51815,30.153997 c 2.34158,-0.551925 4.79316,0.201273 7.09889,-0.478078 0.29334,-0.08642 0.54088,-0.318717 0.81131,-0.478075"
         style="fill:none;stroke:#ffffff;stroke-width:0.99412698px;stroke-linecap:butt;stroke-linejoin:miter;stroke-opacity:1" />
    </g>
  </g>
</svg>
