<?xml version="1.0" encoding="UTF-8" standalone="no"?>
<!-- Created with Inkscape (http://www.inkscape.org/) -->

<svg
   xmlns:dc="http://purl.org/dc/elements/1.1/"
   xmlns:cc="http://creativecommons.org/ns#"
   xmlns:rdf="http://www.w3.org/1999/02/22-rdf-syntax-ns#"
   xmlns:svg="http://www.w3.org/2000/svg"
   xmlns="http://www.w3.org/2000/svg"
   xmlns:sodipodi="http://sodipodi.sourceforge.net/DTD/sodipodi-0.dtd"
   xmlns:inkscape="http://www.inkscape.org/namespaces/inkscape"
   width="48"
   height="48"
   id="svg2300"
   sodipodi:version="0.32"
   inkscape:version="0.47 r22583"
   version="1.0"
   sodipodi:docname="disconnect.svg"
   inkscape:output_extension="org.inkscape.output.svg.inkscape"
   sodipodi:modified="true"
   inkscape:export-filename="S:\bfiles 2009\Projects\FileZilla_icons\blukis-ico-2.0a\toolbar-general\16x16\disconnect.png"
   inkscape:export-xdpi="30"
   inkscape:export-ydpi="30">
  <defs
     id="defs2302">
    <inkscape:perspective
       sodipodi:type="inkscape:persp3d"
       inkscape:vp_x="0 : 45 : 1"
       inkscape:vp_y="0 : 1000 : 0"
       inkscape:vp_z="90 : 45 : 1"
       inkscape:persp3d-origin="45 : 30 : 1"
       id="perspective3920" />
    <filter
       inkscape:collect="always"
       x="-0.14799409"
       width="1.2959882"
       y="-0.14674804"
       height="1.2934961"
       id="filter3789"
       color-interpolation-filters="sRGB">
      <feGaussianBlur
         inkscape:collect="always"
         stdDeviation="2.0150475"
         id="feGaussianBlur3791" />
    </filter>
    <filter
       inkscape:collect="always"
       x="-0.28947371"
       width="1.5789474"
       y="-0.28947371"
       height="1.5789474"
       id="filter5024"
       color-interpolation-filters="sRGB">
      <feGaussianBlur
         inkscape:collect="always"
         stdDeviation="2.6236794"
         id="feGaussianBlur5026" />
    </filter>
    <clipPath
       clipPathUnits="userSpaceOnUse"
       id="clipPath3642">
      <rect
         style="fill:#f300a2;fill-opacity:0.32098766;stroke:none"
         id="rect3609"
         width="32.243084"
         height="58.073177"
         x="551.87329"
         y="975.05005" />
    </clipPath>
    <clipPath
       clipPathUnits="userSpaceOnUse"
       id="clipPath4785">
      <path
         sodipodi:nodetypes="cscccc"
         id="path4787"
         d="m 126.71477,349.26711 c -0.13984,-5.23614 -3.35931,-7.28171 -7.47161,-8.15261 -4.15068,-0.87903 -5.95446,-3.76122 -5.61179,-10.23848 l -4.75388,2.91426 0.12438,15.60992 17.7129,-0.13309 z"
         style="fill:none;stroke:#000000;stroke-width:0.99999994px;stroke-linecap:butt;stroke-linejoin:miter;stroke-opacity:1" />
    </clipPath>
    <clipPath
       clipPathUnits="userSpaceOnUse"
       id="clipPath5889">
      <path
         inkscape:export-ydpi="20.608969"
         inkscape:export-xdpi="20.608969"
         inkscape:export-filename="C:\bfiles\Projects\FileZilla toolbar\path6567.png"
         sodipodi:nodetypes="ccccccc"
         id="path5891"
         d="m 114.86786,215.1799 0.0114,40.65998 46.18499,-4.7e-4 -0.0263,-38.09465 -10.03255,-7.85634 -36.11506,-0.0208 -0.0225,5.31227 z"
         style="fill:none;stroke:#ee4747;stroke-width:0.27000001;stroke-linecap:butt;stroke-linejoin:round;stroke-miterlimit:4;stroke-opacity:1;stroke-dasharray:none" />
    </clipPath>
    <inkscape:perspective
       id="perspective3939"
       inkscape:persp3d-origin="0.5 : 0.33333333 : 1"
       inkscape:vp_z="1 : 0.5 : 1"
       inkscape:vp_y="0 : 1000 : 0"
       inkscape:vp_x="0 : 0.5 : 1"
       sodipodi:type="inkscape:persp3d" />
    <filter
       inkscape:collect="always"
       x="-0.28947371"
       width="1.5789474"
       y="-0.28947371"
       height="1.5789474"
       id="filter5024-5"
       color-interpolation-filters="sRGB">
      <feGaussianBlur
         inkscape:collect="always"
         stdDeviation="2.6236794"
         id="feGaussianBlur5026-1" />
    </filter>
  </defs>
  <sodipodi:namedview
     id="base"
     pagecolor="#ffffff"
     bordercolor="#666666"
     borderopacity="1.0"
     gridtolerance="10000"
     guidetolerance="10"
     objecttolerance="10"
     inkscape:pageopacity="0.0"
     inkscape:pageshadow="2"
     inkscape:zoom="10.681818"
     inkscape:cx="30.539672"
     inkscape:cy="23.085106"
     inkscape:document-units="px"
     inkscape:current-layer="layer1"
     width="1in"
     height="1in"
     units="in"
     showgrid="true"
     gridanglex="0.33333333in"
     gridanglez="0.33333333in"
     grid_units="in"
     inkscape:window-width="910"
     inkscape:window-height="877"
     inkscape:window-x="358"
     inkscape:window-y="181"
     inkscape:grid-bbox="true"
     inkscape:grid-points="false"
     inkscape:snap-grids="false"
     inkscape:window-maximized="0">
    <inkscape:grid
       id="GridFromPre046Settings"
       type="xygrid"
       originx="0px"
       originy="0px"
       spacingx="1px"
       spacingy="1px"
       color="#0000ff"
       empcolor="#0000ff"
       opacity="0.2"
       empopacity="0.4"
       empspacing="3"
       units="px"
       visible="true"
       enabled="true"
       snapvisiblegridlinesonly="true" />
  </sodipodi:namedview>
  <metadata
     id="metadata2305">
    <rdf:RDF>
      <cc:Work
         rdf:about="">
        <dc:format>image/svg+xml</dc:format>
        <dc:type
           rdf:resource="http://purl.org/dc/dcmitype/StillImage" />
        <dc:title></dc:title>
      </cc:Work>
    </rdf:RDF>
  </metadata>
  <g
     inkscape:label="Layer 1"
     inkscape:groupmode="layer"
     id="layer1"
     transform="translate(0,-42)">
    <path
       inkscape:export-ydpi="59.983906"
       inkscape:export-xdpi="59.983906"
       inkscape:export-filename="export1.png"
       sodipodi:nodetypes="ccccccccccccc"
       id="path3022"
       d="m 16.555924,66.392585 -4.038336,4.255931 7.556382,7.433497 -7.604417,7.63507 4.049184,3.826931 7.446959,-7.550672 7.552411,7.590461 3.885897,-3.73699 -7.434668,-7.673458 7.558375,-7.598913 -4.055694,-4.047247 -7.491471,7.850221 -7.424622,-7.984831 z"
       style="fill:#ff9494;fill-opacity:1;fill-rule:evenodd;stroke:#b00000;stroke-width:0.96182209;stroke-linecap:butt;stroke-linejoin:round;stroke-miterlimit:4;stroke-opacity:1;stroke-dasharray:none" />
    <path
       style="fill:#b60f0f;fill-opacity:1;fill-rule:evenodd;stroke:none;filter:url(#filter3789)"
       d="m 214.37365,407.90896 c -0.0845,0.017 -0.16122,0.0608 -0.21875,0.125 l -2.65625,2.625 c -0.15431,0.15575 -0.15431,0.40675 0,0.5625 l 9.5,9.1875 c 0.32699,0.31797 0.5,0.73509 0.5,1.1875 1e-5,0.4524 -0.18067,0.90824 -0.5,1.21875 l -9.5625,9.3125 c -0.15431,0.15575 -0.15431,0.40675 0,0.5625 l 2.6875,2.5 c 0.15575,0.15431 0.40675,0.15431 0.5625,0 l 9,-9.125 c 0.30839,-0.3171 0.7414,-0.49526 1.1875,-0.5 0.4461,-0.005 0.86927,0.15516 1.1875,0.46875 l 9.15625,9.21875 c 0.15575,0.15431 0.40675,0.15431 0.5625,0 l 2.5,-2.40625 c 0.15431,-0.15575 0.15431,-0.40675 0,-0.5625 l -9,-9.28125 c -0.63707,-0.66057 -0.61988,-1.69702 0.0312,-2.34375 l 9.125,-9.1875 c 0.15431,-0.15575 0.15431,-0.40675 0,-0.5625 l -2.71875,-2.71875 c -0.15575,-0.15431 -0.40675,-0.15431 -0.5625,0 l -9.03125,9.5 c -0.31342,0.32993 -0.77692,0.50488 -1.25,0.5 -0.47309,-0.005 -0.90808,-0.19042 -1.21875,-0.53125 l -8.9375,-9.625 c -0.0877,-0.0947 -0.2157,-0.1413 -0.34375,-0.125 l 0,0 z"
       id="path3024"
       inkscape:export-filename="export1.png"
       inkscape:export-xdpi="59.983906"
       inkscape:export-ydpi="59.983906"
       transform="matrix(0.71301276,0,0,0.7120986,-136.46683,-222.29331)" />
    <path
       sodipodi:nodetypes="ccccc"
       id="path3026"
       d="m 26.993421,72.510533 4.367543,-3.191999 1.905786,0.13969 -1.811094,-1.601143 -4.462235,4.653452 z"
       style="fill:#ffb5ad;fill-opacity:1;fill-rule:evenodd;stroke:none"
       inkscape:export-filename="export1.png"
       inkscape:export-xdpi="59.983906"
       inkscape:export-ydpi="59.983906" />
    <path
       sodipodi:nodetypes="cccc"
       id="path3028"
       d="m 20.568962,78.990269 -6.591327,6.506804 1.326335,1.264671 5.264992,-7.771475 z"
       style="fill:#ffb5ad;fill-opacity:1;fill-rule:evenodd;stroke:none"
       inkscape:export-filename="export1.png"
       inkscape:export-xdpi="59.983906"
       inkscape:export-ydpi="59.983906" />
    <path
       sodipodi:nodetypes="ccccc"
       id="path3031"
       d="m 16.488694,67.797126 -2.511067,2.464008 2.802871,-0.964347 5.445008,4.333028 -5.736812,-5.832689 z"
       style="fill:#ffb5ad;fill-opacity:1;fill-rule:evenodd;stroke:none"
       inkscape:export-filename="export1.png"
       inkscape:export-xdpi="59.983906"
       inkscape:export-ydpi="59.983906" />
    <g
       transform="translate(0.04971419,0.04263626)"
       id="g3922">
      <path
         inkscape:export-ydpi="39.989269"
         inkscape:export-xdpi="39.989269"
         inkscape:export-filename="/home/lukisuser/bfiles on spf8/Projects/Filezilla Toolbar/export1.png"
         transform="matrix(0.23915539,0,0,0.2392154,-93.964759,-126.48468)"
         d="m 543.74834,754.55542 c 0,27.72036 -22.4718,50.19215 -50.19216,50.19215 -27.72036,0 -50.19215,-22.47179 -50.19215,-50.19215 0,-27.72036 22.47179,-50.19215 50.19215,-50.19215 27.72036,0 50.19216,22.47179 50.19216,50.19215 z"
         sodipodi:ry="50.192154"
         sodipodi:rx="50.192154"
         sodipodi:cy="754.55542"
         sodipodi:cx="493.55618"
         id="path5199"
         style="fill:#68a8d1;fill-opacity:1;stroke:none"
         sodipodi:type="arc" />
      <path
         inkscape:export-ydpi="39.989269"
         inkscape:export-xdpi="39.989269"
         inkscape:export-filename="/home/lukisuser/bfiles on spf8/Projects/Filezilla Toolbar/export1.png"
         transform="matrix(0.7959,0,0,0.79610391,-155.75231,-327.11699)"
         d="m 234.65397,478.73828 c 0,5.0057 -4.05792,9.06362 -9.06362,9.06362 -5.0057,0 -9.06362,-4.05792 -9.06362,-9.06362 0,-5.0057 4.05792,-9.06362 9.06362,-9.06362 5.0057,0 9.06362,4.05792 9.06362,9.06362 z"
         sodipodi:ry="9.0636187"
         sodipodi:rx="9.0636187"
         sodipodi:cy="478.73828"
         sodipodi:cx="225.59035"
         id="path5201"
         style="opacity:0.92631579;fill:#2575a6;fill-opacity:1;stroke:none;filter:url(#filter5024-5)"
         sodipodi:type="arc" />
      <path
         inkscape:export-ydpi="39.989269"
         inkscape:export-xdpi="39.989269"
         inkscape:export-filename="/home/lukisuser/bfiles on spf8/Projects/Filezilla Toolbar/export1.png"
         sodipodi:nodetypes="cssscc"
         id="path5203"
         d="m 29.167388,43.080279 c -1.542733,0.99164 -1.654477,4.999381 -2.294682,5.733393 -0.64524,0.739786 -4.395215,0.488446 -4.001234,2.401337 0.838757,4.072563 4.355002,5.507056 8.142155,4.672457 1.559669,-0.343713 3.146388,-4.623037 4.613509,-5.290074 -1.021852,-3.814201 -2.680116,-5.294327 -6.459748,-7.517113 z"
         style="fill:#6eca5d;fill-opacity:1;fill-rule:evenodd;stroke:none" />
      <path
         inkscape:export-ydpi="39.989269"
         inkscape:export-xdpi="39.989269"
         inkscape:export-filename="/home/lukisuser/bfiles on spf8/Projects/Filezilla Toolbar/export1.png"
         sodipodi:nodetypes="csssscsc"
         id="path5205"
         d="m 15.669229,62.527408 c 2.267372,-1.600902 4.831636,-4.984612 6.802108,-4.908795 1.497272,0.05761 2.064033,4.617209 3.601125,5.202928 1.263789,0.481552 3.904258,-1.01393 4.801484,-2.00113 0.436514,-0.480284 -1.290627,-2.033474 -0.800251,-2.40135 1.110139,-0.832806 3.734492,-0.800448 5.601748,-1.200669 -0.997708,4.102027 -4.767292,7.439244 -8.084406,8.380557 -4.922683,1.396915 -9.432828,-0.279451 -11.921808,-3.071541 z"
         style="fill:#6eca5d;fill-opacity:1;fill-rule:evenodd;stroke:none" />
      <path
         inkscape:export-ydpi="39.989269"
         inkscape:export-xdpi="39.989269"
         inkscape:export-filename="/home/lukisuser/bfiles on spf8/Projects/Filezilla Toolbar/export1.png"
         sodipodi:nodetypes="cscc"
         id="path5207"
         d="m 12.899387,49.648618 c 4.116445,-2.208798 6.115354,1.268951 7.243656,-0.125911 1.522069,-1.881627 1.136916,-5.277525 -0.497531,-6.736948 -3.159269,1.315671 -5.966878,4.064441 -6.746125,6.862859 z"
         style="fill:#6eca5d;fill-opacity:1;fill-rule:evenodd;stroke:none" />
      <path
         inkscape:export-ydpi="39.989269"
         inkscape:export-xdpi="39.989269"
         inkscape:export-filename="/home/lukisuser/bfiles on spf8/Projects/Filezilla Toolbar/export1.png"
         sodipodi:nodetypes="cscsc"
         id="path5209"
         d="m 14.011366,53.163412 c 0.711297,-4.438625 2.723502,-7.505899 6.913231,-8.980185 3.323782,-1.169564 8.183335,-0.09349 10.134971,2.707545 -2.175524,-1.080005 -7.015767,-1.199308 -9.407871,-0.322436 -2.688217,0.985419 -5.579592,2.76856 -7.640331,6.595076 z"
         style="fill:#d5f5fe;fill-opacity:0.51234568;fill-rule:evenodd;stroke:none" />
      <path
         inkscape:export-ydpi="39.989269"
         inkscape:export-xdpi="39.989269"
         inkscape:export-filename="/home/lukisuser/bfiles on spf8/Projects/Filezilla Toolbar/export1.png"
         sodipodi:type="arc"
         style="fill:none;stroke:#000000;stroke-width:6.42016125;stroke-miterlimit:4;stroke-opacity:0.30459768;stroke-dasharray:none"
         id="path5211"
         sodipodi:cx="493.55618"
         sodipodi:cy="754.55542"
         sodipodi:rx="50.192154"
         sodipodi:ry="50.192154"
         d="m 543.74834,754.55542 c 0,27.72036 -22.4718,50.19215 -50.19216,50.19215 -27.72036,0 -50.19215,-22.47179 -50.19215,-50.19215 0,-27.72036 22.47179,-50.19215 50.19215,-50.19215 27.72036,0 50.19216,22.47179 50.19216,50.19215 z"
         transform="matrix(0.22429776,0,0,0.22435406,-86.628889,-115.2847)" />
    </g>
  </g>
</svg>
