<?xml version="1.0" encoding="UTF-8" standalone="no"?>
<!-- Created with Inkscape (http://www.inkscape.org/) -->
<svg
   xmlns:dc="http://purl.org/dc/elements/1.1/"
   xmlns:cc="http://web.resource.org/cc/"
   xmlns:rdf="http://www.w3.org/1999/02/22-rdf-syntax-ns#"
   xmlns:svg="http://www.w3.org/2000/svg"
   xmlns="http://www.w3.org/2000/svg"
   xmlns:sodipodi="http://sodipodi.sourceforge.net/DTD/sodipodi-0.dtd"
   xmlns:inkscape="http://www.inkscape.org/namespaces/inkscape"
   width="90"
   height="90"
   id="svg2300"
   sodipodi:version="0.32"
   inkscape:version="0.45.1"
   version="1.0"
   sodipodi:docname="processqueue.svg"
   sodipodi:docbase="C:\projects\Filezilla_art\icons\blukis"
   inkscape:output_extension="org.inkscape.output.svg.inkscape"
   inkscape:export-filename="C:\temp\fz-temp\32x32\refresh.png"
   inkscape:export-xdpi="32"
   inkscape:export-ydpi="32">
  <defs
     id="defs2302">
    <filter
       inkscape:collect="always"
       x="-0.13355782"
       width="1.2671156"
       y="-0.28361919"
       height="1.5672384"
       id="filter4593">
      <feGaussianBlur
         inkscape:collect="always"
         stdDeviation="1.1833806"
         id="feGaussianBlur4595" />
    </filter>
    <filter
       inkscape:collect="always"
       x="-0.21026786"
       width="1.4205357"
       y="-0.065598886"
       height="1.1311978"
       id="filter5063">
      <feGaussianBlur
         inkscape:collect="always"
         stdDeviation="1.8398438"
         id="feGaussianBlur5065" />
    </filter>
    <clipPath
       clipPathUnits="userSpaceOnUse"
       id="clipPath3642">
      <rect
         style="opacity:1;fill:#f300a2;fill-opacity:0.32098766;stroke:none;stroke-width:7;stroke-linecap:butt;stroke-linejoin:miter;stroke-miterlimit:4;stroke-dasharray:none;stroke-opacity:1"
         id="rect3609"
         width="32.243084"
         height="58.073177"
         x="551.87329"
         y="975.05005" />
    </clipPath>
    <clipPath
       clipPathUnits="userSpaceOnUse"
       id="clipPath4785">
      <path
         sodipodi:nodetypes="cscccc"
         id="path4787"
         d="M 126.71477,349.26711 C 126.57493,344.03097 123.35546,341.9854 119.24316,341.1145 C 115.09248,340.23547 113.2887,337.35328 113.63137,330.87602 L 108.87749,333.79028 L 109.00187,349.4002 L 126.71477,349.26711 z "
         style="fill:none;fill-opacity:0.75;fill-rule:evenodd;stroke:#000000;stroke-width:0.99999994px;stroke-linecap:butt;stroke-linejoin:miter;stroke-opacity:1" />
    </clipPath>
    <clipPath
       clipPathUnits="userSpaceOnUse"
       id="clipPath5889">
      <path
         inkscape:export-ydpi="20.608969"
         inkscape:export-xdpi="20.608969"
         inkscape:export-filename="C:\bfiles\Projects\FileZilla toolbar\path6567.png"
         sodipodi:nodetypes="ccccccc"
         id="path5891"
         d="M 114.86786,215.1799 L 114.87924,255.83988 L 161.06423,255.83941 L 161.03798,217.74476 L 151.00543,209.88842 L 114.89037,209.86763 L 114.86786,215.1799 z "
         style="fill:none;fill-opacity:1;fill-rule:evenodd;stroke:#ee4747;stroke-width:0.27000001;stroke-linecap:butt;stroke-linejoin:round;stroke-miterlimit:4;stroke-dasharray:none;stroke-opacity:1" />
    </clipPath>
    <filter
       inkscape:collect="always"
       x="-0.216026"
       width="1.432052"
       y="-0.075596833"
       height="1.1511937"
       id="filter3778">
      <feGaussianBlur
         inkscape:collect="always"
         stdDeviation="2.5286002"
         id="feGaussianBlur3780" />
    </filter>
    <clipPath
       clipPathUnits="userSpaceOnUse"
       id="clipPath3783">
      <path
         style="fill:#a43c6d;fill-opacity:1;fill-rule:evenodd;stroke:#543776;stroke-width:1.79825628;stroke-linecap:butt;stroke-linejoin:round;stroke-miterlimit:4;stroke-dasharray:none;stroke-opacity:1"
         d="M 42.856558,5.8859515 L 32.525038,7.7040862 L 46.889998,72.84875 L 37.801586,75.029001 L 56.4171,88.461178 L 63.829762,68.169925 L 56.677602,69.927147 L 42.856558,5.8859515 z "
         id="path3785"
         sodipodi:nodetypes="cccccccc" />
    </clipPath>
  </defs>
  <sodipodi:namedview
     id="base"
     pagecolor="#ffffff"
     bordercolor="#666666"
     borderopacity="1.0"
     gridtolerance="10000"
     guidetolerance="10"
     objecttolerance="10"
     inkscape:pageopacity="0.0"
     inkscape:pageshadow="2"
     inkscape:zoom="4.3777778"
     inkscape:cx="45"
     inkscape:cy="47.269945"
     inkscape:document-units="in"
     inkscape:current-layer="layer1"
     width="1in"
     height="1in"
     units="in"
     gridspacingx="0.0625in"
     gridspacingy="0.0625in"
     showgrid="true"
     gridanglex="0.33333333in"
     gridanglez="0.33333333in"
     grid_units="in"
     gridempspacing="8"
     inkscape:window-width="767"
     inkscape:window-height="579"
     inkscape:window-x="61"
     inkscape:window-y="348"
     inkscape:grid-bbox="false"
     inkscape:grid-points="false"
     gridoriginx="0in" />
  <metadata
     id="metadata2305">
    <rdf:RDF>
      <cc:Work
         rdf:about="">
        <dc:format>image/svg+xml</dc:format>
        <dc:type
           rdf:resource="http://purl.org/dc/dcmitype/StillImage" />
      </cc:Work>
    </rdf:RDF>
  </metadata>
  <g
     inkscape:label="Layer 1"
     inkscape:groupmode="layer"
     id="layer1">
    <g
       id="g4968"
       transform="matrix(1.345477,0,0,1.3357967,-141.81305,-403.77857)"
       inkscape:export-filename="C:\bfiles\Projects\FileZilla toolbar\g3820-a.png"
       inkscape:export-xdpi="63.907196"
       inkscape:export-ydpi="63.907196">
      <path
         style="fill:#f7ea89;fill-opacity:1;fill-rule:evenodd;stroke:#aba263;stroke-width:1.34982049;stroke-linecap:butt;stroke-linejoin:round;stroke-miterlimit:4;stroke-dasharray:none;stroke-opacity:1"
         d="M 110.33887,334.90546 L 120.61777,335.16856 L 118.015,332.42911 L 113.29172,332.42911 L 110.33887,334.90546 z "
         id="path4970"
         sodipodi:nodetypes="ccccc" />
      <path
         sodipodi:nodetypes="cccccc"
         id="path4972"
         d="M 110.35863,335.0325 L 110.4116,347.91788 L 129.80893,347.91788 L 129.80893,336.9016 L 128.14777,334.96192 L 110.35863,335.0325 z "
         style="fill:#f7ea89;fill-opacity:1;fill-rule:evenodd;stroke:#aba263;stroke-width:1.34982026;stroke-linecap:butt;stroke-linejoin:miter;stroke-miterlimit:4;stroke-dasharray:none;stroke-opacity:1" />
      <path
         sodipodi:nodetypes="ccccc"
         id="path4974"
         d="M 124.9864,336.29144 L 111.46609,336.32198 L 111.52499,340.18703 L 123.80544,337.65314 L 124.9864,336.29144 z "
         style="fill:#fffddf;fill-opacity:1;fill-rule:evenodd;stroke:none;stroke-width:1px;stroke-linecap:butt;stroke-linejoin:miter;stroke-opacity:1" />
      <path
         transform="matrix(0.919753,0,0,1,10.29907,0)"
         sodipodi:nodetypes="cccssc"
         id="path4976"
         d="M 110.89972,346.33916 L 128.34219,346.44683 L 128.23453,338.37161 C 127.58245,337.65135 126.8809,338.53334 126.46952,339.15934 C 123.90032,343.06895 119.32488,344.44654 111.67493,344.88194 C 110.89323,344.92643 110.22446,346.06211 110.89972,346.33916 z "
         style="fill:#d5c443;fill-opacity:1;fill-rule:evenodd;stroke:none;stroke-width:1px;stroke-linecap:butt;stroke-linejoin:miter;stroke-opacity:1;filter:url(#filter4593)" />
    </g>
    <g
       id="g4978"
       transform="matrix(1.3511172,0,0,1.3356678,-148.17401,-431.85879)"
       inkscape:export-filename="C:\bfiles\Projects\FileZilla toolbar\g3820-a.png"
       inkscape:export-xdpi="63.907196"
       inkscape:export-ydpi="63.907196">
      <path
         style="fill:#f7ea89;fill-opacity:1;fill-rule:evenodd;stroke:#aba263;stroke-width:1.34982049;stroke-linecap:butt;stroke-linejoin:round;stroke-miterlimit:4;stroke-dasharray:none;stroke-opacity:1"
         d="M 110.33887,334.90546 L 120.61777,335.16856 L 118.015,332.42911 L 113.29172,332.42911 L 110.33887,334.90546 z "
         id="path4980"
         sodipodi:nodetypes="ccccc" />
      <path
         sodipodi:nodetypes="cccccc"
         id="path4982"
         d="M 110.35863,335.0325 L 110.4116,347.91788 L 129.80893,347.91788 L 129.80893,336.9016 L 128.14777,334.96192 L 110.35863,335.0325 z "
         style="fill:#f7ea89;fill-opacity:1;fill-rule:evenodd;stroke:#aba263;stroke-width:1.34982026;stroke-linecap:butt;stroke-linejoin:miter;stroke-miterlimit:4;stroke-dasharray:none;stroke-opacity:1" />
      <path
         sodipodi:nodetypes="ccccc"
         id="path4984"
         d="M 124.9864,336.29144 L 111.46609,336.32198 L 111.52499,340.18703 L 123.80544,337.65314 L 124.9864,336.29144 z "
         style="fill:#fffddf;fill-opacity:1;fill-rule:evenodd;stroke:none;stroke-width:1px;stroke-linecap:butt;stroke-linejoin:miter;stroke-opacity:1" />
      <path
         transform="matrix(0.919753,0,0,1,10.29907,0)"
         sodipodi:nodetypes="cccssc"
         id="path4986"
         d="M 110.89972,346.33916 L 128.34219,346.44683 L 128.23453,338.37161 C 127.58245,337.65135 126.8809,338.53334 126.46952,339.15934 C 123.90032,343.06895 119.32488,344.44654 111.67493,344.88194 C 110.89323,344.92643 110.22446,346.06211 110.89972,346.33916 z "
         style="fill:#d5c443;fill-opacity:1;fill-rule:evenodd;stroke:none;stroke-width:1px;stroke-linecap:butt;stroke-linejoin:miter;stroke-opacity:1;filter:url(#filter4593)" />
    </g>
    <g
       id="g4988"
       transform="matrix(1.3508677,0,0,1.3319154,-97.516454,-441.80235)"
       inkscape:export-filename="C:\bfiles\Projects\FileZilla toolbar\g3820-a.png"
       inkscape:export-xdpi="63.907196"
       inkscape:export-ydpi="63.907196">
      <path
         style="fill:#9fd4cb;fill-opacity:1;fill-rule:evenodd;stroke:#6da297;stroke-width:1.34982049;stroke-linecap:butt;stroke-linejoin:round;stroke-miterlimit:4;stroke-dasharray:none;stroke-opacity:1"
         d="M 110.33887,334.90546 L 120.61777,335.16856 L 118.015,332.42911 L 113.29172,332.42911 L 110.33887,334.90546 z "
         id="path4990"
         sodipodi:nodetypes="ccccc" />
      <path
         sodipodi:nodetypes="cccccc"
         id="path4992"
         d="M 110.35863,335.0325 L 110.4116,347.91788 L 129.80893,347.91788 L 129.80893,336.9016 L 128.14777,334.96192 L 110.35863,335.0325 z "
         style="fill:#9fd4cb;fill-opacity:1;fill-rule:evenodd;stroke:#6da297;stroke-width:1.34982026;stroke-linecap:butt;stroke-linejoin:miter;stroke-miterlimit:4;stroke-dasharray:none;stroke-opacity:1" />
      <path
         sodipodi:nodetypes="ccccc"
         id="path4994"
         d="M 124.9864,336.18377 L 111.46609,336.21431 L 111.52499,340.07936 L 123.80544,337.54547 L 124.9864,336.18377 z "
         style="fill:#c0fdff;fill-opacity:1;fill-rule:evenodd;stroke:none;stroke-width:1px;stroke-linecap:butt;stroke-linejoin:miter;stroke-opacity:1" />
      <path
         transform="matrix(0.919753,0,0,1,10.29907,0)"
         sodipodi:nodetypes="cccssc"
         id="path4996"
         d="M 110.89972,346.33916 L 128.34219,346.44683 L 128.23453,338.37161 C 127.58245,337.65135 126.8809,338.53334 126.46952,339.15934 C 123.90032,343.06895 119.32488,344.44654 111.67493,344.88194 C 110.89323,344.92643 110.22446,346.06211 110.89972,346.33916 z "
         style="fill:#64ab9f;fill-opacity:1;fill-rule:evenodd;stroke:none;stroke-width:1px;stroke-linecap:butt;stroke-linejoin:miter;stroke-opacity:1;filter:url(#filter4593)" />
    </g>
    <g
       id="g4998"
       transform="matrix(1.3508677,0,0,1.3355445,-91.891454,-414.94123)"
       inkscape:export-filename="C:\bfiles\Projects\FileZilla toolbar\g3820-a.png"
       inkscape:export-xdpi="63.907196"
       inkscape:export-ydpi="63.907196">
      <path
         style="fill:#9fd4cb;fill-opacity:1;fill-rule:evenodd;stroke:#6da297;stroke-width:1.34982049;stroke-linecap:butt;stroke-linejoin:round;stroke-miterlimit:4;stroke-dasharray:none;stroke-opacity:1"
         d="M 110.33887,334.90546 L 120.61777,335.16856 L 118.015,332.42911 L 113.29172,332.42911 L 110.33887,334.90546 z "
         id="path5000"
         sodipodi:nodetypes="ccccc" />
      <path
         sodipodi:nodetypes="cccccc"
         id="path5002"
         d="M 110.35863,335.0325 L 110.4116,347.91788 L 129.80893,347.91788 L 129.80893,336.9016 L 128.14777,334.96192 L 110.35863,335.0325 z "
         style="fill:#9fd4cb;fill-opacity:1;fill-rule:evenodd;stroke:#6da297;stroke-width:1.34982026;stroke-linecap:butt;stroke-linejoin:miter;stroke-miterlimit:4;stroke-dasharray:none;stroke-opacity:1" />
      <path
         sodipodi:nodetypes="ccccc"
         id="path5004"
         d="M 124.9864,336.18377 L 111.46609,336.21431 L 111.52499,340.07936 L 123.80544,337.54547 L 124.9864,336.18377 z "
         style="fill:#c0fdff;fill-opacity:1;fill-rule:evenodd;stroke:none;stroke-width:1px;stroke-linecap:butt;stroke-linejoin:miter;stroke-opacity:1" />
      <path
         transform="matrix(0.919753,0,0,1,10.29907,0)"
         sodipodi:nodetypes="cccssc"
         id="path5006"
         d="M 110.89972,346.33916 L 128.34219,346.44683 L 128.23453,338.37161 C 127.58245,337.65135 126.8809,338.53334 126.46952,339.15934 C 123.90032,343.06895 119.32488,344.44654 111.67493,344.88194 C 110.89323,344.92643 110.22446,346.06211 110.89972,346.33916 z "
         style="fill:#64ab9f;fill-opacity:1;fill-rule:evenodd;stroke:none;stroke-width:1px;stroke-linecap:butt;stroke-linejoin:miter;stroke-opacity:1;filter:url(#filter4593)" />
    </g>
    <g
       id="g5008"
       transform="matrix(1.3508677,0,0,1.3355436,-86.266456,-386.81714)"
       inkscape:export-filename="C:\bfiles\Projects\FileZilla toolbar\g3820-a.png"
       inkscape:export-xdpi="63.907196"
       inkscape:export-ydpi="63.907196">
      <path
         style="fill:#9fd4cb;fill-opacity:1;fill-rule:evenodd;stroke:#6da297;stroke-width:1.34982049;stroke-linecap:butt;stroke-linejoin:round;stroke-miterlimit:4;stroke-dasharray:none;stroke-opacity:1"
         d="M 110.33887,334.90546 L 120.61777,335.16856 L 118.015,332.42911 L 113.29172,332.42911 L 110.33887,334.90546 z "
         id="path5010"
         sodipodi:nodetypes="ccccc" />
      <path
         sodipodi:nodetypes="cccccc"
         id="path5012"
         d="M 110.35863,335.0325 L 110.4116,347.91788 L 129.80893,347.91788 L 129.80893,336.9016 L 128.14777,334.96192 L 110.35863,335.0325 z "
         style="fill:#9fd4cb;fill-opacity:1;fill-rule:evenodd;stroke:#6da297;stroke-width:1.34982026;stroke-linecap:butt;stroke-linejoin:miter;stroke-miterlimit:4;stroke-dasharray:none;stroke-opacity:1" />
      <path
         sodipodi:nodetypes="ccccc"
         id="path5014"
         d="M 124.9864,336.18377 L 111.46609,336.21431 L 111.52499,340.07936 L 123.80544,337.54547 L 124.9864,336.18377 z "
         style="fill:#c0fdff;fill-opacity:1;fill-rule:evenodd;stroke:none;stroke-width:1px;stroke-linecap:butt;stroke-linejoin:miter;stroke-opacity:1" />
      <path
         transform="matrix(0.919753,0,0,1,10.29907,0)"
         sodipodi:nodetypes="cccssc"
         id="path5016"
         d="M 110.89972,346.33916 L 128.34219,346.44683 L 128.23453,338.37161 C 127.58245,337.65135 126.8809,338.53334 126.46952,339.15934 C 123.90032,343.06895 119.32488,344.44654 111.67493,344.88194 C 110.89323,344.92643 110.22446,346.06211 110.89972,346.33916 z "
         style="fill:#64ab9f;fill-opacity:1;fill-rule:evenodd;stroke:none;stroke-width:1px;stroke-linecap:butt;stroke-linejoin:miter;stroke-opacity:1;filter:url(#filter4593)" />
    </g>
    <g
       id="g4958"
       transform="matrix(1.3524381,0,0,1.3354022,-137.09636,-375.51837)"
       inkscape:export-filename="C:\bfiles\Projects\FileZilla toolbar\g3820-a.png"
       inkscape:export-xdpi="63.907196"
       inkscape:export-ydpi="63.907196">
      <path
         style="fill:#f7ea89;fill-opacity:1;fill-rule:evenodd;stroke:#aba263;stroke-width:1.34982049;stroke-linecap:butt;stroke-linejoin:round;stroke-miterlimit:4;stroke-dasharray:none;stroke-opacity:1"
         d="M 110.33887,334.90546 L 120.61777,335.16856 L 118.015,332.42911 L 113.29172,332.42911 L 110.33887,334.90546 z "
         id="path4960"
         sodipodi:nodetypes="ccccc" />
      <path
         sodipodi:nodetypes="cccccc"
         id="path4962"
         d="M 110.35863,335.0325 L 110.4116,347.91788 L 129.80893,347.91788 L 129.80893,336.9016 L 128.14777,334.96192 L 110.35863,335.0325 z "
         style="fill:#f7ea89;fill-opacity:1;fill-rule:evenodd;stroke:#aba263;stroke-width:1.34982026;stroke-linecap:butt;stroke-linejoin:miter;stroke-miterlimit:4;stroke-dasharray:none;stroke-opacity:1" />
      <path
         sodipodi:nodetypes="ccccc"
         id="path4964"
         d="M 124.9864,336.29144 L 111.46609,336.32198 L 111.52499,340.18703 L 123.80544,337.65314 L 124.9864,336.29144 z "
         style="fill:#fffddf;fill-opacity:1;fill-rule:evenodd;stroke:none;stroke-width:1px;stroke-linecap:butt;stroke-linejoin:miter;stroke-opacity:1" />
      <path
         transform="matrix(0.919753,0,0,1,10.29907,0)"
         sodipodi:nodetypes="cccssc"
         id="path4966"
         d="M 110.89972,346.33916 L 128.34219,346.44683 L 128.23453,338.37161 C 127.58245,337.65135 126.8809,338.53334 126.46952,339.15934 C 123.90032,343.06895 119.32488,344.44654 111.67493,344.88194 C 110.89323,344.92643 110.22446,346.06211 110.89972,346.33916 z "
         style="fill:#d5c443;fill-opacity:1;fill-rule:evenodd;stroke:none;stroke-width:1px;stroke-linecap:butt;stroke-linejoin:miter;stroke-opacity:1;filter:url(#filter4593)" />
    </g>
    <path
       style="fill:#61af40;fill-opacity:1;fill-rule:evenodd;stroke:#397637;stroke-width:1.79825628;stroke-linecap:butt;stroke-linejoin:round;stroke-miterlimit:4;stroke-dasharray:none;stroke-opacity:1"
       d="M 42.856558,5.8859515 L 32.525038,7.7040862 L 46.889998,72.84875 L 37.801586,75.029001 L 56.4171,88.461178 L 63.829762,68.169925 L 56.677602,69.927147 L 42.856558,5.8859515 z "
       id="path5020"
       sodipodi:nodetypes="cccccccc" />
    <path
       style="fill:#318119;fill-opacity:1;fill-rule:evenodd;stroke:none;stroke-width:1.79825628;stroke-linecap:butt;stroke-linejoin:round;stroke-miterlimit:4;stroke-dasharray:none;stroke-opacity:1;filter:url(#filter3778)"
       d="M 37.374324,2.0027027 L 27.042804,3.8208374 L 41.407764,68.965502 L 32.319352,71.145753 L 50.934866,84.57793 L 58.347528,64.286677 L 51.195368,66.043899 L 37.374324,2.0027027 z "
       id="path3667"
       sodipodi:nodetypes="cccccccc"
       clip-path="url(#clipPath3783)" />
    <path
       style="fill:#b6e4af;fill-opacity:1;fill-rule:evenodd;stroke:none;stroke-width:1px;stroke-linecap:butt;stroke-linejoin:miter;stroke-opacity:1"
       d="M 40.490525,75.829533 L 48.645101,73.835803 L 47.91535,76.845697 L 40.490525,75.829533 z "
       id="path5024"
       sodipodi:nodetypes="cccc" />
    <path
       style="fill:#b6e4af;fill-opacity:1;fill-rule:evenodd;stroke:none;stroke-width:1px;stroke-linecap:butt;stroke-linejoin:miter;stroke-opacity:1"
       d="M 41.155191,7.8292814 L 34.288563,8.8933805 L 48.093714,70.859923 L 48.243754,61.686287 L 37.35826,11.489705 L 41.155191,7.8292814 z "
       id="path5022"
       sodipodi:nodetypes="cccccc" />
  </g>
</svg>
