<?xml version="1.0" encoding="UTF-8" standalone="no"?>
<!-- Created with Inkscape (http://www.inkscape.org/) -->
<svg
   xmlns:dc="http://purl.org/dc/elements/1.1/"
   xmlns:cc="http://web.resource.org/cc/"
   xmlns:rdf="http://www.w3.org/1999/02/22-rdf-syntax-ns#"
   xmlns:svg="http://www.w3.org/2000/svg"
   xmlns="http://www.w3.org/2000/svg"
   xmlns:sodipodi="http://sodipodi.sourceforge.net/DTD/sodipodi-0.dtd"
   xmlns:inkscape="http://www.inkscape.org/namespaces/inkscape"
   width="90"
   height="90"
   id="svg2300"
   sodipodi:version="0.32"
   inkscape:version="0.45"
   version="1.0"
   sodipodi:docname="remotetreeview2.svg"
   sodipodi:docbase="/home/lukisuser/Desktop/mounted storage/bfiles 2007/Projects/Filezilla Toolbar/svg_icons/toolbar_general"
   inkscape:output_extension="org.inkscape.output.svg.inkscape"
   sodipodi:modified="true">
  <defs
     id="defs2302">
    <filter
       inkscape:collect="always"
       x="-0.28947372"
       width="1.5789474"
       y="-0.28947372"
       height="1.5789474"
       id="filter5024">
      <feGaussianBlur
         inkscape:collect="always"
         stdDeviation="2.6236794"
         id="feGaussianBlur5026" />
    </filter>
    <filter
       inkscape:collect="always"
       x="-0.13355782"
       width="1.2671156"
       y="-0.28361919"
       height="1.5672384"
       id="filter4593">
      <feGaussianBlur
         inkscape:collect="always"
         stdDeviation="1.1833806"
         id="feGaussianBlur4595" />
    </filter>
    <clipPath
       clipPathUnits="userSpaceOnUse"
       id="clipPath3642">
      <rect
         style="opacity:1;fill:#f300a2;fill-opacity:0.32098766;stroke:none;stroke-width:7;stroke-linecap:butt;stroke-linejoin:miter;stroke-miterlimit:4;stroke-dasharray:none;stroke-opacity:1"
         id="rect3609"
         width="32.243084"
         height="58.073177"
         x="551.87329"
         y="975.05005" />
    </clipPath>
    <clipPath
       clipPathUnits="userSpaceOnUse"
       id="clipPath4785">
      <path
         sodipodi:nodetypes="cscccc"
         id="path4787"
         d="M 126.71477,349.26711 C 126.57493,344.03097 123.35546,341.9854 119.24316,341.1145 C 115.09248,340.23547 113.2887,337.35328 113.63137,330.87602 L 108.87749,333.79028 L 109.00187,349.4002 L 126.71477,349.26711 z "
         style="fill:none;fill-opacity:0.75;fill-rule:evenodd;stroke:#000000;stroke-width:0.99999994px;stroke-linecap:butt;stroke-linejoin:miter;stroke-opacity:1" />
    </clipPath>
    <filter
       inkscape:collect="always"
       x="-0.10598437"
       width="1.2119687"
       y="-0.14111567"
       height="1.2822313"
       id="filter5875">
      <feGaussianBlur
         inkscape:collect="always"
         stdDeviation="2.8416194"
         id="feGaussianBlur5877" />
    </filter>
    <clipPath
       clipPathUnits="userSpaceOnUse"
       id="clipPath5889">
      <path
         inkscape:export-ydpi="20.608969"
         inkscape:export-xdpi="20.608969"
         inkscape:export-filename="C:\bfiles\Projects\FileZilla toolbar\path6567.png"
         sodipodi:nodetypes="ccccccc"
         id="path5891"
         d="M 114.86786,215.1799 L 114.87924,255.83988 L 161.06423,255.83941 L 161.03798,217.74476 L 151.00543,209.88842 L 114.89037,209.86763 L 114.86786,215.1799 z "
         style="fill:none;fill-opacity:1;fill-rule:evenodd;stroke:#ee4747;stroke-width:0.27000001;stroke-linecap:butt;stroke-linejoin:round;stroke-miterlimit:4;stroke-dasharray:none;stroke-opacity:1" />
    </clipPath>
  </defs>
  <sodipodi:namedview
     id="base"
     pagecolor="#ffffff"
     bordercolor="#666666"
     borderopacity="1.0"
     gridtolerance="10000"
     guidetolerance="10"
     objecttolerance="10"
     inkscape:pageopacity="0.0"
     inkscape:pageshadow="2"
     inkscape:zoom="4.7"
     inkscape:cx="45"
     inkscape:cy="45.611681"
     inkscape:document-units="in"
     inkscape:current-layer="layer1"
     width="1in"
     height="1in"
     units="in"
     gridspacingx="0.0625in"
     gridspacingy="0.0625in"
     showgrid="true"
     gridanglex="0.33333333in"
     gridanglez="0.33333333in"
     grid_units="in"
     gridempspacing="8"
     inkscape:window-width="910"
     inkscape:window-height="626"
     inkscape:window-x="342"
     inkscape:window-y="294"
     inkscape:grid-bbox="true"
     inkscape:grid-points="false"
     gridoriginx="0in" />
  <metadata
     id="metadata2305">
    <rdf:RDF>
      <cc:Work
         rdf:about="">
        <dc:format>image/svg+xml</dc:format>
        <dc:type
           rdf:resource="http://purl.org/dc/dcmitype/StillImage" />
      </cc:Work>
    </rdf:RDF>
  </metadata>
  <g
     inkscape:label="Layer 1"
     inkscape:groupmode="layer"
     id="layer1">
    <g
       id="g4070"
       transform="matrix(0.4405474,-3.6036197e-2,3.6037251e-2,0.4405345,-55.636197,-225.45995)"
       style="fill:#505050;fill-opacity:1"
       inkscape:export-filename="C:\bfiles\Projects\FileZilla toolbar\g3820-a.png"
       inkscape:export-xdpi="42.661098"
       inkscape:export-ydpi="42.661098">
      <path
         id="path4072"
         d="M 146.924,571.10884 L 155.45029,589.29825 L 166.69511,582.47722 L 158.2306,567.19169 L 146.924,571.10884 z "
         style="fill:#505050;fill-opacity:1;fill-rule:evenodd;stroke:none;stroke-width:1px;stroke-linecap:butt;stroke-linejoin:miter;stroke-opacity:1"
         sodipodi:nodetypes="ccccc" />
      <path
         id="path4074"
         d="M 168.09144,563.33633 L 174.91247,576.0269 L 181.47401,571.67725 L 176.23467,561.00087 L 168.09144,563.33633 z "
         style="fill:#505050;fill-opacity:1;fill-rule:evenodd;stroke:none;stroke-width:1px;stroke-linecap:butt;stroke-linejoin:miter;stroke-opacity:1"
         sodipodi:nodetypes="ccccc" />
      <path
         id="path4076"
         d="M 183.62412,558.72719 L 187.28176,567.69832 L 193.02774,564.67086 L 188.60397,556.89835 L 183.62412,558.72719 z "
         style="fill:#505050;fill-opacity:1;fill-rule:evenodd;stroke:none;stroke-width:1px;stroke-linecap:butt;stroke-linejoin:miter;stroke-opacity:1"
         sodipodi:nodetypes="ccccc" />
    </g>
    <g
       id="g4600"
       transform="matrix(1.3331593,0,0,1.3331203,-134.87867,-374.82116)"
       inkscape:export-filename="C:\bfiles\Projects\FileZilla toolbar\g3820-a.png"
       inkscape:export-xdpi="42.661098"
       inkscape:export-ydpi="42.661098">
      <path
         style="fill:#f7ea89;fill-opacity:1;fill-rule:evenodd;stroke:#aba263;stroke-width:1.34982049;stroke-linecap:butt;stroke-linejoin:round;stroke-miterlimit:4;stroke-dasharray:none;stroke-opacity:1"
         d="M 110.33887,334.90546 L 120.61777,335.16856 L 118.015,332.42911 L 113.29172,332.42911 L 110.33887,334.90546 z "
         id="path4137"
         sodipodi:nodetypes="ccccc" />
      <path
         sodipodi:nodetypes="cccccc"
         id="path4139"
         d="M 110.35863,335.0325 L 110.4116,347.91788 L 129.80893,347.91788 L 129.80893,336.9016 L 128.14777,334.96192 L 110.35863,335.0325 z "
         style="fill:#f7ea89;fill-opacity:1;fill-rule:evenodd;stroke:#aba263;stroke-width:1.34982026;stroke-linecap:butt;stroke-linejoin:miter;stroke-miterlimit:4;stroke-dasharray:none;stroke-opacity:1" />
      <path
         sodipodi:nodetypes="ccccc"
         id="path4141"
         d="M 124.9864,336.29144 L 111.46609,336.32198 L 111.52499,340.18703 L 123.80544,337.65314 L 124.9864,336.29144 z "
         style="fill:#fffddf;fill-opacity:1;fill-rule:evenodd;stroke:none;stroke-width:1px;stroke-linecap:butt;stroke-linejoin:miter;stroke-opacity:1" />
      <path
         transform="matrix(0.919753,0,0,1,10.29907,0)"
         sodipodi:nodetypes="cccssc"
         id="path4162"
         d="M 110.89972,346.33916 L 128.34219,346.44683 L 128.23453,338.37161 C 127.58245,337.65135 126.8809,338.53334 126.46952,339.15934 C 123.90032,343.06895 119.32488,344.44654 111.67493,344.88194 C 110.89323,344.92643 110.22446,346.06211 110.89972,346.33916 z "
         style="fill:#d5c443;fill-opacity:1;fill-rule:evenodd;stroke:none;stroke-width:1px;stroke-linecap:butt;stroke-linejoin:miter;stroke-opacity:1;filter:url(#filter4593)" />
    </g>
    <g
       id="g4627"
       transform="matrix(1.3331593,0,0,1.3331203,-140.3629,-403.05987)"
       inkscape:export-filename="C:\bfiles\Projects\FileZilla toolbar\g3820-a.png"
       inkscape:export-xdpi="42.661098"
       inkscape:export-ydpi="42.661098">
      <path
         style="fill:#f7ea89;fill-opacity:1;fill-rule:evenodd;stroke:#aba263;stroke-width:1.34982049;stroke-linecap:butt;stroke-linejoin:round;stroke-miterlimit:4;stroke-dasharray:none;stroke-opacity:1"
         d="M 110.33887,334.90546 L 120.61777,335.16856 L 118.015,332.42911 L 113.29172,332.42911 L 110.33887,334.90546 z "
         id="path4629"
         sodipodi:nodetypes="ccccc" />
      <path
         sodipodi:nodetypes="cccccc"
         id="path4631"
         d="M 110.35863,335.0325 L 110.4116,347.91788 L 129.80893,347.91788 L 129.80893,336.9016 L 128.14777,334.96192 L 110.35863,335.0325 z "
         style="fill:#f7ea89;fill-opacity:1;fill-rule:evenodd;stroke:#aba263;stroke-width:1.34982026;stroke-linecap:butt;stroke-linejoin:miter;stroke-miterlimit:4;stroke-dasharray:none;stroke-opacity:1" />
      <path
         sodipodi:nodetypes="ccccc"
         id="path4633"
         d="M 124.9864,336.29144 L 111.46609,336.32198 L 111.52499,340.18703 L 123.80544,337.65314 L 124.9864,336.29144 z "
         style="fill:#fffddf;fill-opacity:1;fill-rule:evenodd;stroke:none;stroke-width:1px;stroke-linecap:butt;stroke-linejoin:miter;stroke-opacity:1" />
      <path
         transform="matrix(0.919753,0,0,1,10.29907,0)"
         sodipodi:nodetypes="cccssc"
         id="path4635"
         d="M 110.89972,346.33916 L 128.34219,346.44683 L 128.23453,338.37161 C 127.58245,337.65135 126.8809,338.53334 126.46952,339.15934 C 123.90032,343.06895 119.32488,344.44654 111.67493,344.88194 C 110.89323,344.92643 110.22446,346.06211 110.89972,346.33916 z "
         style="fill:#d5c443;fill-opacity:1;fill-rule:evenodd;stroke:none;stroke-width:1px;stroke-linecap:butt;stroke-linejoin:miter;stroke-opacity:1;filter:url(#filter4593)" />
    </g>
    <g
       id="g4637"
       transform="matrix(1.3331593,0,0,1.3331203,-146.10452,-431.19303)"
       inkscape:export-filename="C:\bfiles\Projects\FileZilla toolbar\g3820-a.png"
       inkscape:export-xdpi="42.661098"
       inkscape:export-ydpi="42.661098">
      <path
         style="fill:#f7ea89;fill-opacity:1;fill-rule:evenodd;stroke:#aba263;stroke-width:1.34982049;stroke-linecap:butt;stroke-linejoin:round;stroke-miterlimit:4;stroke-dasharray:none;stroke-opacity:1"
         d="M 110.33887,334.90546 L 120.61777,335.16856 L 118.015,332.42911 L 113.29172,332.42911 L 110.33887,334.90546 z "
         id="path4639"
         sodipodi:nodetypes="ccccc" />
      <path
         sodipodi:nodetypes="cccccc"
         id="path4641"
         d="M 110.35863,335.0325 L 110.4116,347.91788 L 129.80893,347.91788 L 129.80893,336.9016 L 128.14777,334.96192 L 110.35863,335.0325 z "
         style="fill:#f7ea89;fill-opacity:1;fill-rule:evenodd;stroke:#aba263;stroke-width:1.34982026;stroke-linecap:butt;stroke-linejoin:miter;stroke-miterlimit:4;stroke-dasharray:none;stroke-opacity:1" />
      <path
         sodipodi:nodetypes="ccccc"
         id="path4643"
         d="M 124.9864,336.29144 L 111.46609,336.32198 L 111.52499,340.18703 L 123.80544,337.65314 L 124.9864,336.29144 z "
         style="fill:#fffddf;fill-opacity:1;fill-rule:evenodd;stroke:none;stroke-width:1px;stroke-linecap:butt;stroke-linejoin:miter;stroke-opacity:1" />
      <path
         transform="matrix(0.919753,0,0,1,10.29907,0)"
         sodipodi:nodetypes="cccssc"
         id="path4645"
         d="M 110.89972,346.33916 L 128.34219,346.44683 L 128.23453,338.37161 C 127.58245,337.65135 126.8809,338.53334 126.46952,339.15934 C 123.90032,343.06895 119.32488,344.44654 111.67493,344.88194 C 110.89323,344.92643 110.22446,346.06211 110.89972,346.33916 z "
         style="fill:#d5c443;fill-opacity:1;fill-rule:evenodd;stroke:none;stroke-width:1px;stroke-linecap:butt;stroke-linejoin:miter;stroke-opacity:1;filter:url(#filter4593)" />
    </g>
    <g
       id="g4661"
       transform="matrix(1.3331593,0,0,1.3331203,-95.39685,-442.2377)"
       inkscape:export-filename="C:\bfiles\Projects\FileZilla toolbar\g3820-a.png"
       inkscape:export-xdpi="42.661098"
       inkscape:export-ydpi="42.661098">
      <path
         style="fill:#9fd4cb;fill-opacity:1;fill-rule:evenodd;stroke:#6da297;stroke-width:1.34982049;stroke-linecap:butt;stroke-linejoin:round;stroke-miterlimit:4;stroke-dasharray:none;stroke-opacity:1"
         d="M 110.33887,334.90546 L 120.61777,335.16856 L 118.015,332.42911 L 113.29172,332.42911 L 110.33887,334.90546 z "
         id="path4663"
         sodipodi:nodetypes="ccccc" />
      <path
         sodipodi:nodetypes="cccccc"
         id="path4665"
         d="M 110.35863,335.0325 L 110.4116,347.91788 L 129.80893,347.91788 L 129.80893,336.9016 L 128.14777,334.96192 L 110.35863,335.0325 z "
         style="fill:#9fd4cb;fill-opacity:1;fill-rule:evenodd;stroke:#6da297;stroke-width:1.34982026;stroke-linecap:butt;stroke-linejoin:miter;stroke-miterlimit:4;stroke-dasharray:none;stroke-opacity:1" />
      <path
         sodipodi:nodetypes="ccccc"
         id="path4667"
         d="M 124.9864,336.18377 L 111.46609,336.21431 L 111.52499,340.07936 L 123.80544,337.54547 L 124.9864,336.18377 z "
         style="fill:#c0fdff;fill-opacity:1;fill-rule:evenodd;stroke:none;stroke-width:1px;stroke-linecap:butt;stroke-linejoin:miter;stroke-opacity:1" />
      <path
         transform="matrix(0.919753,0,0,1,10.29907,0)"
         sodipodi:nodetypes="cccssc"
         id="path4669"
         d="M 110.89972,346.33916 L 128.34219,346.44683 L 128.23453,338.37161 C 127.58245,337.65135 126.8809,338.53334 126.46952,339.15934 C 123.90032,343.06895 119.32488,344.44654 111.67493,344.88194 C 110.89323,344.92643 110.22446,346.06211 110.89972,346.33916 z "
         style="fill:#64ab9f;fill-opacity:1;fill-rule:evenodd;stroke:none;stroke-width:1px;stroke-linecap:butt;stroke-linejoin:miter;stroke-opacity:1;filter:url(#filter4593)" />
    </g>
    <g
       id="g4671"
       transform="matrix(1.3331593,0,0,1.3331203,-89.693015,-414.39926)"
       inkscape:export-filename="C:\bfiles\Projects\FileZilla toolbar\g3820-a.png"
       inkscape:export-xdpi="42.661098"
       inkscape:export-ydpi="42.661098">
      <path
         style="fill:#9fd4cb;fill-opacity:1;fill-rule:evenodd;stroke:#6da297;stroke-width:1.34982049;stroke-linecap:butt;stroke-linejoin:round;stroke-miterlimit:4;stroke-dasharray:none;stroke-opacity:1"
         d="M 110.33887,334.90546 L 120.61777,335.16856 L 118.015,332.42911 L 113.29172,332.42911 L 110.33887,334.90546 z "
         id="path4673"
         sodipodi:nodetypes="ccccc" />
      <path
         sodipodi:nodetypes="cccccc"
         id="path4675"
         d="M 110.35863,335.0325 L 110.4116,347.91788 L 129.80893,347.91788 L 129.80893,336.9016 L 128.14777,334.96192 L 110.35863,335.0325 z "
         style="fill:#9fd4cb;fill-opacity:1;fill-rule:evenodd;stroke:#6da297;stroke-width:1.34982026;stroke-linecap:butt;stroke-linejoin:miter;stroke-miterlimit:4;stroke-dasharray:none;stroke-opacity:1" />
      <path
         sodipodi:nodetypes="ccccc"
         id="path4677"
         d="M 124.9864,336.18377 L 111.46609,336.21431 L 111.52499,340.07936 L 123.80544,337.54547 L 124.9864,336.18377 z "
         style="fill:#c0fdff;fill-opacity:1;fill-rule:evenodd;stroke:none;stroke-width:1px;stroke-linecap:butt;stroke-linejoin:miter;stroke-opacity:1" />
      <path
         transform="matrix(0.919753,0,0,1,10.29907,0)"
         sodipodi:nodetypes="cccssc"
         id="path4679"
         d="M 110.89972,346.33916 L 128.34219,346.44683 L 128.23453,338.37161 C 127.58245,337.65135 126.8809,338.53334 126.46952,339.15934 C 123.90032,343.06895 119.32488,344.44654 111.67493,344.88194 C 110.89323,344.92643 110.22446,346.06211 110.89972,346.33916 z "
         style="fill:#64ab9f;fill-opacity:1;fill-rule:evenodd;stroke:none;stroke-width:1px;stroke-linecap:butt;stroke-linejoin:miter;stroke-opacity:1;filter:url(#filter4593)" />
    </g>
    <g
       id="g4681"
       transform="matrix(1.3331593,0,0,1.3331203,-84.094925,-386.2661)"
       inkscape:export-filename="C:\bfiles\Projects\FileZilla toolbar\g3820-a.png"
       inkscape:export-xdpi="42.661098"
       inkscape:export-ydpi="42.661098">
      <path
         style="fill:#9fd4cb;fill-opacity:1;fill-rule:evenodd;stroke:#6da297;stroke-width:1.34982049;stroke-linecap:butt;stroke-linejoin:round;stroke-miterlimit:4;stroke-dasharray:none;stroke-opacity:1"
         d="M 110.33887,334.90546 L 120.61777,335.16856 L 118.015,332.42911 L 113.29172,332.42911 L 110.33887,334.90546 z "
         id="path4683"
         sodipodi:nodetypes="ccccc" />
      <path
         sodipodi:nodetypes="cccccc"
         id="path4685"
         d="M 110.35863,335.0325 L 110.4116,347.91788 L 129.80893,347.91788 L 129.80893,336.9016 L 128.14777,334.96192 L 110.35863,335.0325 z "
         style="fill:#9fd4cb;fill-opacity:1;fill-rule:evenodd;stroke:#6da297;stroke-width:1.34982026;stroke-linecap:butt;stroke-linejoin:miter;stroke-miterlimit:4;stroke-dasharray:none;stroke-opacity:1" />
      <path
         sodipodi:nodetypes="ccccc"
         id="path4687"
         d="M 124.9864,336.18377 L 111.46609,336.21431 L 111.52499,340.07936 L 123.80544,337.54547 L 124.9864,336.18377 z "
         style="fill:#c0fdff;fill-opacity:1;fill-rule:evenodd;stroke:none;stroke-width:1px;stroke-linecap:butt;stroke-linejoin:miter;stroke-opacity:1" />
      <path
         transform="matrix(0.919753,0,0,1,10.29907,0)"
         sodipodi:nodetypes="cccssc"
         id="path4689"
         d="M 110.89972,346.33916 L 128.34219,346.44683 L 128.23453,338.37161 C 127.58245,337.65135 126.8809,338.53334 126.46952,339.15934 C 123.90032,343.06895 119.32488,344.44654 111.67493,344.88194 C 110.89323,344.92643 110.22446,346.06211 110.89972,346.33916 z "
         style="fill:#64ab9f;fill-opacity:1;fill-rule:evenodd;stroke:none;stroke-width:1px;stroke-linecap:butt;stroke-linejoin:miter;stroke-opacity:1;filter:url(#filter4593)" />
    </g>
    <g
       id="g4691"
       transform="matrix(0.4405474,-3.6036197e-2,3.6037251e-2,0.4405345,-50.226176,-197.12991)"
       style="fill:#505050;fill-opacity:1"
       inkscape:export-filename="C:\bfiles\Projects\FileZilla toolbar\g3820-a.png"
       inkscape:export-xdpi="42.661098"
       inkscape:export-ydpi="42.661098">
      <path
         id="path4693"
         d="M 146.924,571.10884 L 155.45029,589.29825 L 166.69511,582.47722 L 158.2306,567.19169 L 146.924,571.10884 z "
         style="fill:#505050;fill-opacity:1;fill-rule:evenodd;stroke:none;stroke-width:1px;stroke-linecap:butt;stroke-linejoin:miter;stroke-opacity:1"
         sodipodi:nodetypes="ccccc" />
      <path
         id="path4695"
         d="M 168.09144,563.33633 L 174.91247,576.0269 L 181.47401,571.67725 L 176.23467,561.00087 L 168.09144,563.33633 z "
         style="fill:#505050;fill-opacity:1;fill-rule:evenodd;stroke:none;stroke-width:1px;stroke-linecap:butt;stroke-linejoin:miter;stroke-opacity:1"
         sodipodi:nodetypes="ccccc" />
      <path
         id="path4697"
         d="M 183.62412,558.72719 L 187.28176,567.69832 L 193.02774,564.67086 L 188.60397,556.89835 L 183.62412,558.72719 z "
         style="fill:#505050;fill-opacity:1;fill-rule:evenodd;stroke:none;stroke-width:1px;stroke-linecap:butt;stroke-linejoin:miter;stroke-opacity:1"
         sodipodi:nodetypes="ccccc" />
    </g>
    <g
       id="g4699"
       transform="matrix(0.4405474,-3.6036197e-2,3.6037251e-2,0.4405345,-44.197465,-169.14027)"
       style="fill:#505050;fill-opacity:1"
       inkscape:export-filename="C:\bfiles\Projects\FileZilla toolbar\g3820-a.png"
       inkscape:export-xdpi="42.661098"
       inkscape:export-ydpi="42.661098">
      <path
         id="path4701"
         d="M 146.924,571.10884 L 155.45029,589.29825 L 166.69511,582.47722 L 158.2306,567.19169 L 146.924,571.10884 z "
         style="fill:#505050;fill-opacity:1;fill-rule:evenodd;stroke:none;stroke-width:1px;stroke-linecap:butt;stroke-linejoin:miter;stroke-opacity:1"
         sodipodi:nodetypes="ccccc" />
      <path
         id="path4703"
         d="M 168.09144,563.33633 L 174.91247,576.0269 L 181.47401,571.67725 L 176.23467,561.00087 L 168.09144,563.33633 z "
         style="fill:#505050;fill-opacity:1;fill-rule:evenodd;stroke:none;stroke-width:1px;stroke-linecap:butt;stroke-linejoin:miter;stroke-opacity:1"
         sodipodi:nodetypes="ccccc" />
      <path
         id="path4705"
         d="M 183.62412,558.72719 L 187.28176,567.69832 L 193.02774,564.67086 L 188.60397,556.89835 L 183.62412,558.72719 z "
         style="fill:#505050;fill-opacity:1;fill-rule:evenodd;stroke:none;stroke-width:1px;stroke-linecap:butt;stroke-linejoin:miter;stroke-opacity:1"
         sodipodi:nodetypes="ccccc" />
    </g>
  </g>
</svg>
