<?xml version="1.0" encoding="UTF-8" standalone="no"?>
<!-- Created with Inkscape (http://www.inkscape.org/) -->
<svg
   xmlns:dc="http://purl.org/dc/elements/1.1/"
   xmlns:cc="http://web.resource.org/cc/"
   xmlns:rdf="http://www.w3.org/1999/02/22-rdf-syntax-ns#"
   xmlns:svg="http://www.w3.org/2000/svg"
   xmlns="http://www.w3.org/2000/svg"
   xmlns:sodipodi="http://sodipodi.sourceforge.net/DTD/sodipodi-0.dtd"
   xmlns:inkscape="http://www.inkscape.org/namespaces/inkscape"
   width="90"
   height="90"
   id="svg2300"
   sodipodi:version="0.32"
   inkscape:version="0.45"
   version="1.0"
   sodipodi:docname="disconnect.svg"
   sodipodi:docbase="/home/lukisuser/Desktop/mounted storage/bfiles 2007/Projects/Filezilla Toolbar/svg_icons/toolbar_general"
   inkscape:output_extension="org.inkscape.output.svg.inkscape"
   sodipodi:modified="true">
  <defs
     id="defs2302">
    <filter
       inkscape:collect="always"
       id="filter4358">
      <feGaussianBlur
         inkscape:collect="always"
         stdDeviation="1.085128"
         id="feGaussianBlur4360" />
    </filter>
    <filter
       inkscape:collect="always"
       x="-0.14799408"
       width="1.2959882"
       y="-0.14674803"
       height="1.2934961"
       id="filter3789">
      <feGaussianBlur
         inkscape:collect="always"
         stdDeviation="2.0150475"
         id="feGaussianBlur3791" />
    </filter>
    <filter
       inkscape:collect="always"
       x="-0.28947372"
       width="1.5789474"
       y="-0.28947372"
       height="1.5789474"
       id="filter5024">
      <feGaussianBlur
         inkscape:collect="always"
         stdDeviation="2.6236794"
         id="feGaussianBlur5026" />
    </filter>
    <clipPath
       clipPathUnits="userSpaceOnUse"
       id="clipPath3642">
      <rect
         style="opacity:1;fill:#f300a2;fill-opacity:0.32098766;stroke:none;stroke-width:7;stroke-linecap:butt;stroke-linejoin:miter;stroke-miterlimit:4;stroke-dasharray:none;stroke-opacity:1"
         id="rect3609"
         width="32.243084"
         height="58.073177"
         x="551.87329"
         y="975.05005" />
    </clipPath>
    <clipPath
       clipPathUnits="userSpaceOnUse"
       id="clipPath4785">
      <path
         sodipodi:nodetypes="cscccc"
         id="path4787"
         d="M 126.71477,349.26711 C 126.57493,344.03097 123.35546,341.9854 119.24316,341.1145 C 115.09248,340.23547 113.2887,337.35328 113.63137,330.87602 L 108.87749,333.79028 L 109.00187,349.4002 L 126.71477,349.26711 z "
         style="fill:none;fill-opacity:0.75;fill-rule:evenodd;stroke:#000000;stroke-width:0.99999994px;stroke-linecap:butt;stroke-linejoin:miter;stroke-opacity:1" />
    </clipPath>
    <filter
       inkscape:collect="always"
       x="-0.10598437"
       width="1.2119687"
       y="-0.14111567"
       height="1.2822313"
       id="filter5875">
      <feGaussianBlur
         inkscape:collect="always"
         stdDeviation="2.8416194"
         id="feGaussianBlur5877" />
    </filter>
    <clipPath
       clipPathUnits="userSpaceOnUse"
       id="clipPath5889">
      <path
         inkscape:export-ydpi="20.608969"
         inkscape:export-xdpi="20.608969"
         inkscape:export-filename="C:\bfiles\Projects\FileZilla toolbar\path6567.png"
         sodipodi:nodetypes="ccccccc"
         id="path5891"
         d="M 114.86786,215.1799 L 114.87924,255.83988 L 161.06423,255.83941 L 161.03798,217.74476 L 151.00543,209.88842 L 114.89037,209.86763 L 114.86786,215.1799 z "
         style="fill:none;fill-opacity:1;fill-rule:evenodd;stroke:#ee4747;stroke-width:0.27000001;stroke-linecap:butt;stroke-linejoin:round;stroke-miterlimit:4;stroke-dasharray:none;stroke-opacity:1" />
    </clipPath>
  </defs>
  <sodipodi:namedview
     id="base"
     pagecolor="#ffffff"
     bordercolor="#666666"
     borderopacity="1.0"
     gridtolerance="10000"
     guidetolerance="10"
     objecttolerance="10"
     inkscape:pageopacity="0.0"
     inkscape:pageshadow="2"
     inkscape:zoom="4.7"
     inkscape:cx="45"
     inkscape:cy="45.611681"
     inkscape:document-units="in"
     inkscape:current-layer="layer1"
     width="1in"
     height="1in"
     units="in"
     gridspacingx="0.0625in"
     gridspacingy="0.0625in"
     showgrid="true"
     gridanglex="0.33333333in"
     gridanglez="0.33333333in"
     grid_units="in"
     gridempspacing="8"
     inkscape:window-width="910"
     inkscape:window-height="626"
     inkscape:window-x="342"
     inkscape:window-y="294"
     inkscape:grid-bbox="true"
     inkscape:grid-points="false"
     gridoriginx="0in" />
  <metadata
     id="metadata2305">
    <rdf:RDF>
      <cc:Work
         rdf:about="">
        <dc:format>image/svg+xml</dc:format>
        <dc:type
           rdf:resource="http://purl.org/dc/dcmitype/StillImage" />
      </cc:Work>
    </rdf:RDF>
  </metadata>
  <g
     inkscape:label="Layer 1"
     inkscape:groupmode="layer"
     id="layer1">
    <g
       id="g5197"
       transform="matrix(1.2496649,0,0,1.2496398,-348.81971,-460.94112)"
       inkscape:export-filename="path6567b.png"
       inkscape:export-xdpi="59.983906"
       inkscape:export-ydpi="59.983906">
      <path
         inkscape:export-ydpi="39.989269"
         inkscape:export-xdpi="39.989269"
         inkscape:export-filename="/home/lukisuser/bfiles on spf8/Projects/Filezilla Toolbar/export1.png"
         transform="matrix(0.3586775,0,0,0.3587747,138.21183,116.20416)"
         d="M 543.74834 754.55542 A 50.192154 50.192154 0 1 1  443.36403,754.55542 A 50.192154 50.192154 0 1 1  543.74834 754.55542 z"
         sodipodi:ry="50.192154"
         sodipodi:rx="50.192154"
         sodipodi:cy="754.55542"
         sodipodi:cx="493.55618"
         id="path5199"
         style="fill:#4549e9;fill-opacity:1;stroke:none;stroke-width:5.5;stroke-miterlimit:4;stroke-dasharray:none;stroke-opacity:1"
         sodipodi:type="arc" />
      <path
         inkscape:export-ydpi="39.989269"
         inkscape:export-xdpi="39.989269"
         inkscape:export-filename="/home/lukisuser/bfiles on spf8/Projects/Filezilla Toolbar/export1.png"
         transform="matrix(1.193665,0,0,1.1939948,45.544872,-184.70371)"
         d="M 234.65397 478.73828 A 9.0636187 9.0636187 0 1 1  216.52673,478.73828 A 9.0636187 9.0636187 0 1 1  234.65397 478.73828 z"
         sodipodi:ry="9.0636187"
         sodipodi:rx="9.0636187"
         sodipodi:cy="478.73828"
         sodipodi:cx="225.59035"
         id="path5201"
         style="opacity:0.92631579;fill:#2638a7;fill-opacity:1;stroke:none;stroke-width:2.16000009;stroke-linecap:butt;stroke-linejoin:round;stroke-miterlimit:4;stroke-dasharray:none;stroke-dashoffset:0;stroke-opacity:0.35185188;filter:url(#filter5024)"
         sodipodi:type="arc" />
      <path
         inkscape:export-ydpi="39.989269"
         inkscape:export-xdpi="39.989269"
         inkscape:export-filename="/home/lukisuser/bfiles on spf8/Projects/Filezilla Toolbar/export1.png"
         sodipodi:nodetypes="cssscc"
         id="path5203"
         d="M 322.88143,370.51729 C 320.56769,372.00455 320.4001,378.01535 319.43994,379.11622 C 318.47223,380.22575 312.84814,379.84879 313.43902,382.71774 C 314.69696,388.82576 319.97051,390.97721 325.65036,389.72548 C 327.9895,389.20998 330.36921,382.79186 332.56955,381.79144 C 331.03701,376.07091 328.55,373.85102 322.88143,370.51729 z "
         style="fill:#23a53e;fill-opacity:1;fill-rule:evenodd;stroke:none;stroke-width:1px;stroke-linecap:butt;stroke-linejoin:miter;stroke-opacity:1" />
      <path
         inkscape:export-ydpi="39.989269"
         inkscape:export-xdpi="39.989269"
         inkscape:export-filename="/home/lukisuser/bfiles on spf8/Projects/Filezilla Toolbar/export1.png"
         sodipodi:nodetypes="csssscsc"
         id="path5205"
         d="M 302.63733,399.68405 C 306.03786,397.28302 309.88366,392.20814 312.83891,392.32185 C 315.08447,392.40823 315.93448,399.24673 318.23976,400.12519 C 320.13515,400.84742 324.09524,398.6045 325.44087,397.1239 C 326.09554,396.40357 323.50523,394.0741 324.24068,393.52236 C 325.90563,392.27332 329.84155,392.32185 332.642,391.7216 C 331.14567,397.87381 325.49217,402.87896 320.51727,404.29074 C 313.13439,406.38583 306.37022,403.87162 302.63733,399.68405 z "
         style="fill:#23a53e;fill-opacity:1;fill-rule:evenodd;stroke:none;stroke-width:1px;stroke-linecap:butt;stroke-linejoin:miter;stroke-opacity:1" />
      <path
         inkscape:export-ydpi="39.989269"
         inkscape:export-xdpi="39.989269"
         inkscape:export-filename="/home/lukisuser/bfiles on spf8/Projects/Filezilla Toolbar/export1.png"
         sodipodi:nodetypes="cscc"
         id="path5207"
         d="M 298.48321,380.36847 C 304.65692,377.05572 307.65482,382.27164 309.34701,380.17963 C 311.62976,377.35757 311.05212,372.26441 308.60083,370.07557 C 303.86266,372.04881 299.6519,376.17141 298.48321,380.36847 z "
         style="fill:#23a53e;fill-opacity:1;fill-rule:evenodd;stroke:none;stroke-width:1px;stroke-linecap:butt;stroke-linejoin:miter;stroke-opacity:1" />
      <path
         inkscape:export-ydpi="39.989269"
         inkscape:export-xdpi="39.989269"
         inkscape:export-filename="/home/lukisuser/bfiles on spf8/Projects/Filezilla Toolbar/export1.png"
         sodipodi:nodetypes="cscsc"
         id="path5209"
         d="M 300.15092,385.63995 C 301.2177,378.98291 304.23554,374.38262 310.51916,372.17149 C 315.50406,370.41738 322.79226,372.03128 325.71926,376.23226 C 322.45648,374.61247 315.19724,374.43354 311.60964,375.74867 C 307.57794,377.2266 303.24155,379.90095 300.15092,385.63995 z "
         style="fill:#d5f5fe;fill-opacity:0.51234568;fill-rule:evenodd;stroke:none;stroke-width:1px;stroke-linecap:butt;stroke-linejoin:miter;stroke-opacity:1" />
      <path
         inkscape:export-ydpi="39.989269"
         inkscape:export-xdpi="39.989269"
         inkscape:export-filename="/home/lukisuser/bfiles on spf8/Projects/Filezilla Toolbar/export1.png"
         sodipodi:type="arc"
         style="fill:none;fill-opacity:1;stroke:#000000;stroke-width:6.42016125;stroke-miterlimit:4;stroke-dasharray:none;stroke-opacity:0.30459768"
         id="path5211"
         sodipodi:cx="493.55618"
         sodipodi:cy="754.55542"
         sodipodi:rx="50.192154"
         sodipodi:ry="50.192154"
         d="M 543.74834 754.55542 A 50.192154 50.192154 0 1 1  443.36403,754.55542 A 50.192154 50.192154 0 1 1  543.74834 754.55542 z"
         transform="matrix(0.3363945,0,0,0.3364857,149.21393,133.00187)" />
    </g>
    <path
       style="fill:#784eb7;fill-opacity:1;fill-rule:evenodd;stroke:#503489;stroke-width:1.79949951;stroke-linecap:butt;stroke-linejoin:round;stroke-miterlimit:4;stroke-dasharray:none;stroke-opacity:1"
       d="M 59.881259,51.205293 L 51.790654,58.61487 C 53.798378,60.809499 55.310685,62.897148 55.310685,66.991668 C 55.310685,74.463751 49.15566,78.049855 44.08262,78.049855 C 37.901228,78.049855 32.997043,72.847967 32.997043,67.317349 C 32.997043,64.250608 33.999686,61.315041 36.662297,58.963219 L 40.650416,64.072484 C 41.273349,64.870529 42.503944,65.256818 42.874294,63.873766 L 48.022964,44.646671 L 27.529709,41.927242 C 26.712553,41.818798 25.848697,42.734447 26.713277,44.086569 L 30.774713,50.438289 C 26.077985,54.552903 23.108232,61.117211 23.118029,67.062835 C 23.138823,79.681722 33.140592,89.089611 44.916009,89.089611 C 56.114144,89.089611 66.979244,78.831118 66.846129,67.819167 C 66.764626,61.076498 64.78462,55.932043 59.881259,51.205293 z "
       id="path5177"
       sodipodi:nodetypes="ccssscsscsscsssc"
       inkscape:export-xdpi="59.983906"
       inkscape:export-ydpi="59.983906"
       inkscape:export-filename="path6567b.png" />
    <path
       style="fill:#552f8e;fill-opacity:1;fill-rule:evenodd;stroke:none;stroke-width:1.44000006;stroke-linecap:butt;stroke-linejoin:round;stroke-miterlimit:4;stroke-opacity:1;filter:url(#filter4358)"
       d="M 214.84375,495.96875 L 216.25,498.1875 C 216.85929,499.15954 216.67402,500.42995 215.8125,501.1875 C 212.81966,503.80874 210.8376,508.32927 210.84375,512.0625 C 210.85749,520.39787 217.31577,526.40625 225,526.40625 C 232.06192,526.40627 239.39454,519.44177 239.3125,512.65625 C 239.2657,508.78598 238.36567,506.03776 236.1875,503.375 L 233.28125,506.03125 C 234.32784,507.59352 235.25,509.42299 235.25,512 C 235.25001,515.4771 233.71765,518.31217 231.59375,520.09375 C 229.46985,521.87533 226.84792,522.71875 224.375,522.71875 C 218.37931,522.71874 213.625,517.82622 213.625,512.25 C 213.62499,509.41376 214.66,506.38815 217.1875,504.15625 C 217.67148,503.72474 218.31281,503.5134 218.9585,503.57264 C 219.6042,503.63188 220.19637,503.95638 220.59375,504.46875 L 222.03125,506.28125 L 223.78116,497.18744 L 214.84375,495.96875 z "
       id="path5187"
       sodipodi:nodetypes="ccssssccsssscscccc"
       inkscape:export-filename="path6567b.png"
       inkscape:export-xdpi="59.983906"
       inkscape:export-ydpi="59.983906"
       transform="matrix(1.3188645,0,0,1.3192024,-251.84857,-608.43336)" />
    <path
       style="fill:#b6a0d7;fill-opacity:1;fill-rule:evenodd;stroke:none;stroke-width:1px;stroke-linecap:butt;stroke-linejoin:miter;stroke-opacity:1"
       d="M 28.076749,43.744068 L 45.442356,46.141752 L 34.424172,46.403314 L 28.076749,43.744068 z "
       id="path5189"
       sodipodi:nodetypes="cccc"
       inkscape:export-filename="path6567b.png"
       inkscape:export-xdpi="59.983906"
       inkscape:export-ydpi="59.983906" />
    <path
       style="fill:#b6a0d7;fill-opacity:1;fill-rule:evenodd;stroke:none;stroke-width:1px;stroke-linecap:butt;stroke-linejoin:miter;stroke-opacity:1"
       d="M 56.862631,69.627558 C 57.768988,80.05389 44.991639,86.565088 35.813025,77.008968 C 44.453608,83.321136 54.99247,78.571018 56.862631,69.627558 z "
       id="path5191"
       sodipodi:nodetypes="ccc"
       inkscape:export-filename="path6567b.png"
       inkscape:export-xdpi="59.983906"
       inkscape:export-ydpi="59.983906" />
    <path
       style="fill:#b6a0d7;fill-opacity:1;fill-rule:evenodd;stroke:none;stroke-width:1px;stroke-linecap:butt;stroke-linejoin:miter;stroke-opacity:1"
       d="M 59.883646,53.154181 L 54.298519,58.42155 L 59.837858,56.797468 L 59.883646,53.154181 z "
       id="path5193"
       sodipodi:nodetypes="cccc"
       inkscape:export-filename="path6567b.png"
       inkscape:export-xdpi="59.983906"
       inkscape:export-ydpi="59.983906" />
    <path
       style="fill:#b6a0d7;fill-opacity:1;fill-rule:evenodd;stroke:none;stroke-width:1px;stroke-linecap:butt;stroke-linejoin:miter;stroke-opacity:1"
       d="M 31.537621,52.466329 C 25.262466,58.928379 22.165447,66.578662 27.018146,76.531268 C 24.731521,67.564727 25.849022,62.384046 30.717904,56.989001 L 31.537621,52.466329 z "
       id="path5195"
       sodipodi:nodetypes="cccc"
       inkscape:export-filename="path6567b.png"
       inkscape:export-xdpi="59.983906"
       inkscape:export-ydpi="59.983906" />
  </g>
</svg>
