<?xml version="1.0" encoding="UTF-8" standalone="no"?>
<!-- Created with Inkscape (http://www.inkscape.org/) -->
<svg
   xmlns:dc="http://purl.org/dc/elements/1.1/"
   xmlns:cc="http://web.resource.org/cc/"
   xmlns:rdf="http://www.w3.org/1999/02/22-rdf-syntax-ns#"
   xmlns:svg="http://www.w3.org/2000/svg"
   xmlns="http://www.w3.org/2000/svg"
   xmlns:sodipodi="http://sodipodi.sourceforge.net/DTD/sodipodi-0.dtd"
   xmlns:inkscape="http://www.inkscape.org/namespaces/inkscape"
   width="90"
   height="90"
   id="svg2300"
   sodipodi:version="0.32"
   inkscape:version="0.45"
   version="1.0"
   sodipodi:docname="reconnect.svg"
   sodipodi:docbase="/home/lukisuser/Desktop/mounted storage/bfiles 2007/Projects/Filezilla Toolbar/svg_icons/toolbar_general"
   inkscape:output_extension="org.inkscape.output.svg.inkscape"
   sodipodi:modified="true">
  <defs
     id="defs2302">
    <filter
       inkscape:collect="always"
       id="filter5228">
      <feGaussianBlur
         inkscape:collect="always"
         stdDeviation="1.7657895"
         id="feGaussianBlur5230" />
    </filter>
    <filter
       inkscape:collect="always"
       id="filter4358">
      <feGaussianBlur
         inkscape:collect="always"
         stdDeviation="1.085128"
         id="feGaussianBlur4360" />
    </filter>
    <filter
       inkscape:collect="always"
       x="-0.14799408"
       width="1.2959882"
       y="-0.14674803"
       height="1.2934961"
       id="filter3789">
      <feGaussianBlur
         inkscape:collect="always"
         stdDeviation="2.0150475"
         id="feGaussianBlur3791" />
    </filter>
    <filter
       inkscape:collect="always"
       x="-0.28947372"
       width="1.5789474"
       y="-0.28947372"
       height="1.5789474"
       id="filter5024">
      <feGaussianBlur
         inkscape:collect="always"
         stdDeviation="2.6236794"
         id="feGaussianBlur5026" />
    </filter>
    <clipPath
       clipPathUnits="userSpaceOnUse"
       id="clipPath3642">
      <rect
         style="opacity:1;fill:#f300a2;fill-opacity:0.32098766;stroke:none;stroke-width:7;stroke-linecap:butt;stroke-linejoin:miter;stroke-miterlimit:4;stroke-dasharray:none;stroke-opacity:1"
         id="rect3609"
         width="32.243084"
         height="58.073177"
         x="551.87329"
         y="975.05005" />
    </clipPath>
    <clipPath
       clipPathUnits="userSpaceOnUse"
       id="clipPath4785">
      <path
         sodipodi:nodetypes="cscccc"
         id="path4787"
         d="M 126.71477,349.26711 C 126.57493,344.03097 123.35546,341.9854 119.24316,341.1145 C 115.09248,340.23547 113.2887,337.35328 113.63137,330.87602 L 108.87749,333.79028 L 109.00187,349.4002 L 126.71477,349.26711 z "
         style="fill:none;fill-opacity:0.75;fill-rule:evenodd;stroke:#000000;stroke-width:0.99999994px;stroke-linecap:butt;stroke-linejoin:miter;stroke-opacity:1" />
    </clipPath>
    <filter
       inkscape:collect="always"
       x="-0.10598437"
       width="1.2119687"
       y="-0.14111567"
       height="1.2822313"
       id="filter5875">
      <feGaussianBlur
         inkscape:collect="always"
         stdDeviation="2.8416194"
         id="feGaussianBlur5877" />
    </filter>
    <clipPath
       clipPathUnits="userSpaceOnUse"
       id="clipPath5889">
      <path
         inkscape:export-ydpi="20.608969"
         inkscape:export-xdpi="20.608969"
         inkscape:export-filename="C:\bfiles\Projects\FileZilla toolbar\path6567.png"
         sodipodi:nodetypes="ccccccc"
         id="path5891"
         d="M 114.86786,215.1799 L 114.87924,255.83988 L 161.06423,255.83941 L 161.03798,217.74476 L 151.00543,209.88842 L 114.89037,209.86763 L 114.86786,215.1799 z "
         style="fill:none;fill-opacity:1;fill-rule:evenodd;stroke:#ee4747;stroke-width:0.27000001;stroke-linecap:butt;stroke-linejoin:round;stroke-miterlimit:4;stroke-dasharray:none;stroke-opacity:1" />
    </clipPath>
  </defs>
  <sodipodi:namedview
     id="base"
     pagecolor="#ffffff"
     bordercolor="#666666"
     borderopacity="1.0"
     gridtolerance="10000"
     guidetolerance="10"
     objecttolerance="10"
     inkscape:pageopacity="0.0"
     inkscape:pageshadow="2"
     inkscape:zoom="4.7"
     inkscape:cx="45"
     inkscape:cy="45.611681"
     inkscape:document-units="in"
     inkscape:current-layer="layer1"
     width="1in"
     height="1in"
     units="in"
     gridspacingx="0.0625in"
     gridspacingy="0.0625in"
     showgrid="true"
     gridanglex="0.33333333in"
     gridanglez="0.33333333in"
     grid_units="in"
     gridempspacing="8"
     inkscape:window-width="910"
     inkscape:window-height="626"
     inkscape:window-x="342"
     inkscape:window-y="294"
     inkscape:grid-bbox="true"
     inkscape:grid-points="false"
     gridoriginx="0in" />
  <metadata
     id="metadata2305">
    <rdf:RDF>
      <cc:Work
         rdf:about="">
        <dc:format>image/svg+xml</dc:format>
        <dc:type
           rdf:resource="http://purl.org/dc/dcmitype/StillImage" />
      </cc:Work>
    </rdf:RDF>
  </metadata>
  <g
     inkscape:label="Layer 1"
     inkscape:groupmode="layer"
     id="layer1">
    <path
       style="opacity:1;fill:#8acf6c;fill-opacity:1;stroke:#50873f;stroke-width:1.79949951;stroke-linecap:butt;stroke-linejoin:round;stroke-miterlimit:4;stroke-dasharray:none;stroke-dashoffset:0;stroke-opacity:1"
       d="M 28.822978,7.5798668 C 27.535986,7.554799 26.51256,8.5552981 27.156525,9.8295058 L 32.030893,19.411307 C 20.370244,23.551938 12.033518,34.697826 12.033505,47.781767 C 12.033505,64.398028 25.49617,77.901923 42.112915,77.901948 C 58.729672,77.901948 72.233976,64.398028 72.233988,47.781767 C 72.233988,40.491043 69.640096,33.823728 65.318218,28.618165 L 54.527961,38.991513 C 56.286752,41.476897 57.360926,44.51061 57.360926,47.781767 C 57.360939,56.192468 50.523859,63.029335 42.112915,63.029335 C 33.70197,63.029322 26.906567,56.192468 26.906567,47.781767 C 26.906579,40.489219 32.02227,34.40446 38.863336,32.909154 L 42.397913,39.750632 C 42.94108,40.825384 44.467783,40.827684 45.064236,39.500666 L 55.524531,16.020296 L 29.406234,7.6631927 C 29.215798,7.6151066 29.006841,7.5834532 28.822978,7.5798668 z "
       id="path5159"
       sodipodi:nodetypes="cccsssccssscccccc"
       inkscape:export-filename="C:\bfiles\Projects\FileZilla toolbar\path4521-b.png"
       inkscape:export-xdpi="42.661114"
       inkscape:export-ydpi="42.661114" />
    <path
       style="fill:#469426;fill-opacity:1;stroke:none;stroke-width:1.44000006;stroke-linecap:butt;stroke-linejoin:round;stroke-miterlimit:4;stroke-dashoffset:0;stroke-opacity:1;filter:url(#filter5228)"
       d="M 486.625,471.40625 L 488.125,474.375 C 488.53624,475.19222 488.5766,476.14672 488.2358,476.99573 C 487.895,477.84474 487.20589,478.50643 486.34375,478.8125 C 478.84557,481.47514 473.46876,488.63329 473.46875,497.09375 C 473.46875,507.83614 482.10669,516.49998 492.84375,516.5 C 503.58081,516.5 512.24999,507.83081 512.25,497.09375 C 512.25,493.64442 511.32111,490.44658 509.75,487.65625 L 506.03125,491.21875 C 506.85452,493.03646 507.46875,494.96438 507.46875,497.09375 C 507.46876,505.13031 500.8803,511.71875 492.84375,511.71875 C 484.8072,511.71874 478.25,505.11977 478.25,497.09375 C 478.25001,490.13269 483.14868,484.24862 489.71875,482.8125 C 491.13564,482.49617 492.58732,483.17705 493.25,484.46875 L 493.875,485.6875 L 498.5625,475.21875 L 486.625,471.40625 z "
       id="path5185"
       inkscape:export-filename="C:\bfiles\Projects\FileZilla toolbar\path4521-b.png"
       inkscape:export-xdpi="42.661114"
       inkscape:export-ydpi="42.661114"
       transform="matrix(1.3331595,0,0,1.33312,-614.92643,-614.90386)" />
    <path
       style="opacity:1;fill:#d4efd0;fill-opacity:1;fill-rule:evenodd;stroke:none;stroke-width:1px;stroke-linecap:butt;stroke-linejoin:miter;stroke-opacity:1"
       d="M 29.548359,9.7210621 L 51.037497,16.955752 L 34.731069,16.243632 L 29.548359,9.7210621 z "
       id="path5133"
       sodipodi:nodetypes="cccc"
       inkscape:export-filename="C:\bfiles\Projects\FileZilla toolbar\path4521-b.png"
       inkscape:export-xdpi="42.661114"
       inkscape:export-ydpi="42.661114" />
    <path
       style="opacity:1;fill:#d4efd0;fill-opacity:1;fill-rule:evenodd;stroke:none;stroke-width:1px;stroke-linecap:butt;stroke-linejoin:miter;stroke-opacity:1"
       d="M 33.134972,21.259586 C 20.268409,27.820383 17.190285,35.279296 14.261857,44.113249 C 21.913106,33.698689 23.595967,30.675535 31.590636,27.917705 L 33.134972,21.259586 z "
       id="path5135"
       sodipodi:nodetypes="cccc"
       inkscape:export-filename="C:\bfiles\Projects\FileZilla toolbar\path4521-b.png"
       inkscape:export-xdpi="42.661114"
       inkscape:export-ydpi="42.661114" />
    <path
       style="opacity:1;fill:#d4efd0;fill-opacity:1;fill-rule:evenodd;stroke:none;stroke-width:1px;stroke-linecap:butt;stroke-linejoin:miter;stroke-opacity:1"
       d="M 58.578187,52.759707 C 58.826208,67.497334 43.27619,72.687763 31.164263,61.740294 C 42.385629,68.607827 55.061555,64.948744 58.578187,52.759707 z "
       id="path5137"
       sodipodi:nodetypes="ccc"
       inkscape:export-filename="C:\bfiles\Projects\FileZilla toolbar\path4521-b.png"
       inkscape:export-xdpi="42.661114"
       inkscape:export-ydpi="42.661114" />
    <path
       style="opacity:1;fill:#d4efd0;fill-opacity:1;fill-rule:evenodd;stroke:none;stroke-width:1px;stroke-linecap:butt;stroke-linejoin:miter;stroke-opacity:1"
       d="M 64.743434,32.181126 L 56.720485,39.944613 L 64.985919,37.567986 L 64.743434,32.181126 z "
       id="path5139"
       sodipodi:nodetypes="cccc"
       inkscape:export-filename="C:\bfiles\Projects\FileZilla toolbar\path4521-b.png"
       inkscape:export-xdpi="42.661114"
       inkscape:export-ydpi="42.661114" />
  </g>
</svg>
