<?xml version="1.0" encoding="UTF-8" standalone="no"?>
<!-- Created with Inkscape (http://www.inkscape.org/) -->
<svg
   xmlns:dc="http://purl.org/dc/elements/1.1/"
   xmlns:cc="http://web.resource.org/cc/"
   xmlns:rdf="http://www.w3.org/1999/02/22-rdf-syntax-ns#"
   xmlns:svg="http://www.w3.org/2000/svg"
   xmlns="http://www.w3.org/2000/svg"
   xmlns:sodipodi="http://sodipodi.sourceforge.net/DTD/sodipodi-0.dtd"
   xmlns:inkscape="http://www.inkscape.org/namespaces/inkscape"
   width="90"
   height="90"
   id="svg2300"
   sodipodi:version="0.32"
   inkscape:version="0.45.1"
   version="1.0"
   sodipodi:docname="refresh.svg"
   sodipodi:docbase="C:\projects\Filezilla_art\icons\blukis"
   inkscape:output_extension="org.inkscape.output.svg.inkscape"
   inkscape:export-filename="C:\temp\fz-temp\48x48\refresh.png"
   inkscape:export-xdpi="48"
   inkscape:export-ydpi="48">
  <defs
     id="defs2302">
    <filter
       inkscape:collect="always"
       id="filter5228">
      <feGaussianBlur
         inkscape:collect="always"
         stdDeviation="1.7657895"
         id="feGaussianBlur5230" />
    </filter>
    <clipPath
       clipPathUnits="userSpaceOnUse"
       id="clipPath3642">
      <rect
         style="opacity:1;fill:#f300a2;fill-opacity:0.32098766;stroke:none;stroke-width:7;stroke-linecap:butt;stroke-linejoin:miter;stroke-miterlimit:4;stroke-dasharray:none;stroke-opacity:1"
         id="rect3609"
         width="32.243084"
         height="58.073177"
         x="551.87329"
         y="975.05005" />
    </clipPath>
    <clipPath
       clipPathUnits="userSpaceOnUse"
       id="clipPath4785">
      <path
         sodipodi:nodetypes="cscccc"
         id="path4787"
         d="M 126.71477,349.26711 C 126.57493,344.03097 123.35546,341.9854 119.24316,341.1145 C 115.09248,340.23547 113.2887,337.35328 113.63137,330.87602 L 108.87749,333.79028 L 109.00187,349.4002 L 126.71477,349.26711 z "
         style="fill:none;fill-opacity:0.75;fill-rule:evenodd;stroke:#000000;stroke-width:0.99999994px;stroke-linecap:butt;stroke-linejoin:miter;stroke-opacity:1" />
    </clipPath>
    <clipPath
       clipPathUnits="userSpaceOnUse"
       id="clipPath5889">
      <path
         inkscape:export-ydpi="20.608969"
         inkscape:export-xdpi="20.608969"
         inkscape:export-filename="C:\bfiles\Projects\FileZilla toolbar\path6567.png"
         sodipodi:nodetypes="ccccccc"
         id="path5891"
         d="M 114.86786,215.1799 L 114.87924,255.83988 L 161.06423,255.83941 L 161.03798,217.74476 L 151.00543,209.88842 L 114.89037,209.86763 L 114.86786,215.1799 z "
         style="fill:none;fill-opacity:1;fill-rule:evenodd;stroke:#ee4747;stroke-width:0.27000001;stroke-linecap:butt;stroke-linejoin:round;stroke-miterlimit:4;stroke-dasharray:none;stroke-opacity:1" />
    </clipPath>
    <clipPath
       clipPathUnits="userSpaceOnUse"
       id="clipPath3242">
      <path
         inkscape:export-ydpi="42.661114"
         inkscape:export-xdpi="42.661114"
         inkscape:export-filename="C:\bfiles\Projects\FileZilla toolbar\path4521-b.png"
         sodipodi:nodetypes="cccsssccssscccccc"
         id="path3244"
         d="M 28.822978,7.5798668 C 27.535986,7.554799 26.51256,8.5552981 27.156525,9.8295058 L 32.030893,19.411307 C 20.370244,23.551938 12.033518,34.697826 12.033505,47.781767 C 12.033505,64.398028 25.49617,77.901923 42.112915,77.901948 C 58.729672,77.901948 72.233976,64.398028 72.233988,47.781767 C 72.233988,40.491043 69.640096,33.823728 65.318218,28.618165 L 54.527961,38.991513 C 56.286752,41.476897 57.360926,44.51061 57.360926,47.781767 C 57.360939,56.192468 50.523859,63.029335 42.112915,63.029335 C 33.70197,63.029322 26.906567,56.192468 26.906567,47.781767 C 26.906579,40.489219 32.02227,34.40446 38.863336,32.909154 L 42.397913,39.750632 C 42.94108,40.825384 44.467783,40.827684 45.064236,39.500666 L 55.524531,16.020296 L 29.406234,7.6631927 C 29.215798,7.6151066 29.006841,7.5834532 28.822978,7.5798668 z "
         style="opacity:1;fill:#82cf6c;fill-opacity:1;stroke:#3f6487;stroke-width:1.79949951;stroke-linecap:butt;stroke-linejoin:round;stroke-miterlimit:4;stroke-dasharray:none;stroke-dashoffset:0;stroke-opacity:1" />
    </clipPath>
    <filter
       inkscape:collect="always"
       x="-0.10311825"
       width="1.2062365"
       y="-0.085244464"
       height="1.1704889"
       id="filter3395">
      <feGaussianBlur
         inkscape:collect="always"
         stdDeviation="2.38854"
         id="feGaussianBlur3397" />
    </filter>
  </defs>
  <sodipodi:namedview
     id="base"
     pagecolor="#ffffff"
     bordercolor="#666666"
     borderopacity="1.0"
     gridtolerance="10000"
     guidetolerance="10"
     objecttolerance="10"
     inkscape:pageopacity="0.0"
     inkscape:pageshadow="2"
     inkscape:zoom="4.9"
     inkscape:cx="45"
     inkscape:cy="45"
     inkscape:document-units="in"
     inkscape:current-layer="layer1"
     width="1in"
     height="1in"
     units="in"
     gridspacingx="0.0625in"
     gridspacingy="0.0625in"
     showgrid="true"
     gridanglex="0.33333333in"
     gridanglez="0.33333333in"
     grid_units="in"
     gridempspacing="8"
     inkscape:window-width="910"
     inkscape:window-height="626"
     inkscape:window-x="250"
     inkscape:window-y="422"
     inkscape:grid-bbox="false"
     inkscape:grid-points="false"
     gridoriginx="0in"
     inkscape:object-paths="true" />
  <metadata
     id="metadata2305">
    <rdf:RDF>
      <cc:Work
         rdf:about="">
        <dc:format>image/svg+xml</dc:format>
        <dc:type
           rdf:resource="http://purl.org/dc/dcmitype/StillImage" />
      </cc:Work>
    </rdf:RDF>
  </metadata>
  <g
     inkscape:label="Layer 1"
     inkscape:groupmode="layer"
     id="layer1">
    <path
       inkscape:export-ydpi="42.661114"
       inkscape:export-xdpi="42.661114"
       inkscape:export-filename="C:\bfiles\Projects\FileZilla toolbar\path4521-b.png"
       sodipodi:nodetypes="cccsssccssscccccc"
       id="path3150"
       d="M 28.822978,7.5798668 C 27.535986,7.554799 26.51256,8.5552981 27.156525,9.8295058 L 32.030893,19.411307 C 20.370244,23.551938 12.033518,34.697826 12.033505,47.781767 C 12.033505,64.398028 25.49617,77.901923 42.112915,77.901948 C 58.729672,77.901948 72.233976,64.398028 72.233988,47.781767 C 72.233988,40.491043 69.640096,33.823728 65.318218,28.618165 L 54.527961,38.991513 C 56.286752,41.476897 57.360926,44.51061 57.360926,47.781767 C 57.360939,56.192468 50.523859,63.029335 42.112915,63.029335 C 33.70197,63.029322 26.906567,56.192468 26.906567,47.781767 C 26.906579,40.489219 32.02227,34.40446 38.863336,32.909154 L 42.397913,39.750632 C 42.94108,40.825384 44.467783,40.827684 45.064236,39.500666 L 55.524531,16.020296 L 29.406234,7.6631927 C 29.215798,7.6151066 29.006841,7.5834532 28.822978,7.5798668 z "
       style="opacity:1;fill:#6c9fcf;fill-opacity:1;stroke:#3f6487;stroke-width:1.79949951;stroke-linecap:butt;stroke-linejoin:round;stroke-miterlimit:4;stroke-dasharray:none;stroke-dashoffset:0;stroke-opacity:1" />
    <path
       style="opacity:1;fill:#265f94;fill-opacity:0.69078946;stroke:none;stroke-width:1.79949951;stroke-linecap:butt;stroke-linejoin:round;stroke-miterlimit:4;stroke-dasharray:none;stroke-dashoffset:0;stroke-opacity:1;filter:url(#filter3395)"
       d="M 23.314223,3.6052969 C 22.027231,3.5802291 21.003805,4.5807282 21.64777,5.8549359 L 26.522138,15.436737 C 14.861489,19.577368 6.5247628,30.723256 6.5247498,43.807197 C 6.5247498,60.423458 19.987415,73.927353 36.60416,73.927378 C 53.220917,73.927378 66.725221,60.423458 66.725233,43.807197 C 66.725233,36.516473 64.131341,29.849158 59.809463,24.643595 L 49.019206,35.016943 C 50.777997,37.502327 51.852171,40.53604 51.852171,43.807197 C 51.852184,52.217898 45.015104,59.054765 36.60416,59.054765 C 28.193215,59.054752 21.397812,52.217898 21.397812,43.807197 C 21.397824,36.514649 26.513515,30.42989 33.354581,28.934584 L 36.889158,35.776062 C 37.432325,36.850814 38.959028,36.853114 39.555481,35.526096 L 50.015776,12.045726 L 23.897479,3.6886228 C 23.707043,3.6405367 23.498086,3.6088833 23.314223,3.6052969 z "
       id="path5159"
       sodipodi:nodetypes="cccsssccssscccccc"
       inkscape:export-filename="C:\bfiles\Projects\FileZilla toolbar\path4521-b.png"
       inkscape:export-xdpi="42.661114"
       inkscape:export-ydpi="42.661114"
       clip-path="url(#clipPath3242)" />
    <path
       style="opacity:1;fill:#d0e0ef;fill-opacity:1;fill-rule:evenodd;stroke:none;stroke-width:1px;stroke-linecap:butt;stroke-linejoin:miter;stroke-opacity:1"
       d="M 28.697295,8.6572323 L 50.186433,15.891922 L 32.04327,12.730822 L 28.697295,8.6572323 z "
       id="path5133"
       sodipodi:nodetypes="cccc"
       inkscape:export-filename="C:\bfiles\Projects\FileZilla toolbar\path4521-b.png"
       inkscape:export-xdpi="42.661114"
       inkscape:export-ydpi="42.661114" />
    <path
       style="opacity:1;fill:#d0e0ef;fill-opacity:1;fill-rule:evenodd;stroke:none;stroke-width:1px;stroke-linecap:butt;stroke-linejoin:miter;stroke-opacity:1"
       d="M 31.910482,20.851423 C 19.043919,27.41222 15.965795,34.871133 13.037367,43.705086 C 20.688616,33.290526 22.371477,30.267372 30.366146,27.509542 L 31.910482,20.851423 z "
       id="path5135"
       sodipodi:nodetypes="cccc"
       inkscape:export-filename="C:\bfiles\Projects\FileZilla toolbar\path4521-b.png"
       inkscape:export-xdpi="42.661114"
       inkscape:export-ydpi="42.661114" />
    <path
       style="opacity:1;fill:#d0e0ef;fill-opacity:1;fill-rule:evenodd;stroke:none;stroke-width:1px;stroke-linecap:butt;stroke-linejoin:miter;stroke-opacity:1"
       d="M 58.170024,52.351544 C 58.418045,67.089171 42.868027,72.2796 30.7561,61.332131 C 41.977466,68.199664 54.653392,64.540581 58.170024,52.351544 z "
       id="path5137"
       sodipodi:nodetypes="ccc"
       inkscape:export-filename="C:\bfiles\Projects\FileZilla toolbar\path4521-b.png"
       inkscape:export-xdpi="42.661114"
       inkscape:export-ydpi="42.661114" />
    <path
       style="opacity:1;fill:#d0e0ef;fill-opacity:1;fill-rule:evenodd;stroke:none;stroke-width:1px;stroke-linecap:butt;stroke-linejoin:miter;stroke-opacity:1"
       d="M 64.743434,31.364799 L 56.720485,39.128286 L 64.985919,36.751659 L 64.743434,31.364799 z "
       id="path5139"
       sodipodi:nodetypes="cccc"
       inkscape:export-filename="C:\bfiles\Projects\FileZilla toolbar\path4521-b.png"
       inkscape:export-xdpi="42.661114"
       inkscape:export-ydpi="42.661114" />
  </g>
</svg>
