<?xml version="1.0" encoding="UTF-8" standalone="no"?>
<!-- Created with Inkscape (http://www.inkscape.org/) -->

<svg
   xmlns:dc="http://purl.org/dc/elements/1.1/"
   xmlns:cc="http://creativecommons.org/ns#"
   xmlns:rdf="http://www.w3.org/1999/02/22-rdf-syntax-ns#"
   xmlns:svg="http://www.w3.org/2000/svg"
   xmlns="http://www.w3.org/2000/svg"
   xmlns:sodipodi="http://sodipodi.sourceforge.net/DTD/sodipodi-0.dtd"
   xmlns:inkscape="http://www.inkscape.org/namespaces/inkscape"
   width="48"
   height="48"
   id="svg2300"
   sodipodi:version="0.32"
   inkscape:version="0.47 r22583"
   version="1.0"
   sodipodi:docname="showhidden.svg"
   inkscape:output_extension="org.inkscape.output.svg.inkscape"
   sodipodi:modified="true"
   inkscape:export-filename="48x48\showhidden.png"
   inkscape:export-xdpi="90"
   inkscape:export-ydpi="90">
  <defs
     id="defs2302">
    <inkscape:perspective
       sodipodi:type="inkscape:persp3d"
       inkscape:vp_x="0 : 45 : 1"
       inkscape:vp_y="0 : 1000 : 0"
       inkscape:vp_z="90 : 45 : 1"
       inkscape:persp3d-origin="45 : 30 : 1"
       id="perspective39" />
    <clipPath
       clipPathUnits="userSpaceOnUse"
       id="clipPath4785">
      <path
         sodipodi:nodetypes="cscccc"
         id="path4787"
         d="m 126.71477,349.26711 c -0.13984,-5.23614 -3.35931,-7.28171 -7.47161,-8.15261 -4.15068,-0.87903 -5.95446,-3.76122 -5.61179,-10.23848 l -4.75388,2.91426 0.12438,15.60992 17.7129,-0.13309 z"
         style="fill:none;stroke:#000000;stroke-width:0.99999994px;stroke-linecap:butt;stroke-linejoin:miter;stroke-opacity:1" />
    </clipPath>
    <filter
       inkscape:collect="always"
       x="-0.13355783"
       width="1.2671156"
       y="-0.2836192"
       height="1.5672385"
       id="filter4593"
       color-interpolation-filters="sRGB">
      <feGaussianBlur
         inkscape:collect="always"
         stdDeviation="1.1833806"
         id="feGaussianBlur4595" />
    </filter>
    <clipPath
       clipPathUnits="userSpaceOnUse"
       id="clipPath5889">
      <path
         inkscape:export-ydpi="20.608969"
         inkscape:export-xdpi="20.608969"
         inkscape:export-filename="C:\bfiles\Projects\FileZilla toolbar\path6567.png"
         sodipodi:nodetypes="ccccccc"
         id="path5891"
         d="m 114.86786,215.1799 0.0114,40.65998 46.18499,-4.7e-4 -0.0263,-38.09465 -10.03255,-7.85634 -36.11506,-0.0208 -0.0225,5.31227 z"
         style="fill:none;stroke:#ee4747;stroke-width:0.27000001;stroke-linecap:butt;stroke-linejoin:round;stroke-miterlimit:4;stroke-opacity:1;stroke-dasharray:none" />
    </clipPath>
  </defs>
  <sodipodi:namedview
     id="base"
     pagecolor="#ffffff"
     bordercolor="#666666"
     borderopacity="1.0"
     gridtolerance="10000"
     guidetolerance="10"
     objecttolerance="10"
     inkscape:pageopacity="0.0"
     inkscape:pageshadow="2"
     inkscape:zoom="13.625"
     inkscape:cx="24"
     inkscape:cy="24"
     inkscape:document-units="px"
     inkscape:current-layer="layer1"
     width="1in"
     height="1in"
     units="in"
     showgrid="true"
     gridanglex="0.33333333in"
     gridanglez="0.33333333in"
     grid_units="in"
     inkscape:window-width="910"
     inkscape:window-height="906"
     inkscape:window-x="395"
     inkscape:window-y="82"
     inkscape:grid-bbox="true"
     inkscape:grid-points="false"
     inkscape:snap-grids="false"
     inkscape:window-maximized="0">
    <inkscape:grid
       id="GridFromPre046Settings"
       type="xygrid"
       originx="0px"
       originy="0px"
       spacingx="1px"
       spacingy="1px"
       color="#0000ff"
       empcolor="#0000ff"
       opacity="0.2"
       empopacity="0.4"
       empspacing="3"
       units="px"
       visible="true"
       enabled="true"
       snapvisiblegridlinesonly="true" />
  </sodipodi:namedview>
  <metadata
     id="metadata2305">
    <rdf:RDF>
      <cc:Work
         rdf:about="">
        <dc:format>image/svg+xml</dc:format>
        <dc:type
           rdf:resource="http://purl.org/dc/dcmitype/StillImage" />
        <dc:title></dc:title>
      </cc:Work>
    </rdf:RDF>
  </metadata>
  <g
     inkscape:label="Layer 1"
     inkscape:groupmode="layer"
     id="layer1"
     transform="translate(0,-42)">
    <g
       id="g3534"
       transform="matrix(2.0917321,0,0,2.1042467,-227.32047,-650.49081)"
       inkscape:export-filename="g3820-a.png"
       inkscape:export-xdpi="40.000271"
       inkscape:export-ydpi="40.000271"
       clip-path="url(#clipPath4785)">
      <path
         style="fill:#f7ea89;fill-opacity:1;fill-rule:evenodd;stroke:#958c51;stroke-width:0.48764232000000002;stroke-linecap:butt;stroke-linejoin:round;stroke-miterlimit:4;stroke-opacity:1;stroke-dasharray:none"
         d="m 110.33887,334.90546 10.2789,0.2631 -2.66931,-2.93908 -4.72328,0 -2.88631,2.67598 z"
         id="path3536"
         sodipodi:nodetypes="ccccc" />
      <path
         sodipodi:nodetypes="cccccc"
         id="path3538"
         d="m 110.35863,335.0325 0.053,13.78372 19.39733,0 0,-11.91462 -1.66116,-1.93968 -17.78914,0.0706 z"
         style="fill:#f7ea89;fill-opacity:1;fill-rule:evenodd;stroke:#958c51;stroke-width:0.48764220000000003;stroke-linecap:butt;stroke-linejoin:miter;stroke-miterlimit:4;stroke-opacity:1;stroke-dasharray:none" />
      <path
         sodipodi:nodetypes="ccccc"
         id="path3540"
         d="m 125.05658,336.22168 -13.52031,0.0305 0.0589,3.86505 12.28045,-2.53389 1.18096,-1.3617 z"
         style="fill:#fffddf;fill-opacity:1;fill-rule:evenodd;stroke:none" />
      <path
         transform="matrix(0.919753,0,0,1,10.29907,0.4990764)"
         sodipodi:nodetypes="cccssc"
         id="path3542"
         d="m 110.89972,346.33916 17.44247,0.10767 -0.10766,-8.07522 c -0.65208,-0.72026 -1.35363,0.16173 -1.76501,0.78773 -2.5692,3.90961 -7.14464,5.2872 -14.79459,5.7226 -0.7817,0.0445 -1.45047,1.18017 -0.77521,1.45722 z"
         style="fill:#d5c443;fill-opacity:1;fill-rule:evenodd;stroke:none;filter:url(#filter4593)" />
    </g>
    <path
       sodipodi:nodetypes="csccccccc"
       d="M 37.721075,82.67313 C 37.270659,75.904505 31.936767,69.655084 24.20387,68.144222 17.518211,66.837971 10.725887,64.248997 10.558105,49.489405 l 9.342511,-0.0031 5.264002,6.080792 14.805256,-0.06288 3.409742,3.338729 0.01419,23.848687 -5.672728,-0.01857 z"
       style="fill:none;stroke:#d5d5d5;stroke-width:3.06010437;stroke-linecap:butt;stroke-linejoin:miter;stroke-miterlimit:4;stroke-opacity:1;stroke-dasharray:none;stroke-dashoffset:0"
       id="path3544"
       inkscape:export-filename="g3820-a.png"
       inkscape:export-xdpi="40.000271"
       inkscape:export-ydpi="40.000271" />
    <g
       id="g3615"
       style="fill:#787878;fill-opacity:1">
      <path
         inkscape:export-ydpi="40.000271"
         inkscape:export-xdpi="40.000271"
         inkscape:export-filename="g3820-a.png"
         id="path3589"
         d="m 14.982838,51.084728 3.062652,0 0,-3.060017 -3.062652,0 0,3.060017 z"
         style="fill:#787878;fill-opacity:1;fill-rule:evenodd;stroke:none" />
      <path
         inkscape:export-ydpi="40.000271"
         inkscape:export-xdpi="40.000271"
         inkscape:export-filename="g3820-a.png"
         id="path3587"
         d="m 9.3068097,54.155744 0.017169,0.313919 0.00112,0.02092 0.00229,0.04186 0.1530214,1.272045 0.00112,0.02093 0.00117,0.02093 0.1703885,1.208122 0.00117,0.02093 0.00117,0.02094 0.055336,0.248851 3.0166833,-0.542776 -0.05191,-0.186071 -0.0034,-0.06278 -0.164668,-1.103494 -0.0023,-0.04185 -0.127639,-1.189469 -0.0023,-0.04186 -0.01488,-0.272059 -3.0535047,0.250925 z"
         style="fill:#787878;fill-opacity:1;fill-rule:evenodd;stroke:none" />
      <path
         inkscape:export-ydpi="40.000271"
         inkscape:export-xdpi="40.000271"
         inkscape:export-filename="g3820-a.png"
         id="path3585"
         d="m 19.813198,51.797528 2.0001,2.326449 2.312615,-2.033025 -2.0001,-2.305495 -2.312615,2.012071 z"
         style="fill:#787878;fill-opacity:1;fill-rule:evenodd;stroke:none" />
      <path
         inkscape:export-ydpi="40.000271"
         inkscape:export-xdpi="40.000271"
         inkscape:export-filename="g3820-a.png"
         id="path3583"
         d="m 35.852828,54.060509 0,3.080977 3.062653,-0.02096 0,-3.080978 -3.062653,0.02096 z"
         style="fill:#787878;fill-opacity:1;fill-rule:evenodd;stroke:none" />
      <path
         inkscape:export-ydpi="40.000271"
         inkscape:export-xdpi="40.000271"
         inkscape:export-filename="g3820-a.png"
         id="path3581"
         d="m 29.992218,54.015302 0.02083,3.080976 3.062652,-0.02096 -0.02083,-3.080976 -3.062652,0.02096 z"
         style="fill:#787878;fill-opacity:1;fill-rule:evenodd;stroke:none" />
      <path
         inkscape:export-ydpi="40.000271"
         inkscape:export-xdpi="40.000271"
         inkscape:export-filename="g3820-a.png"
         id="path3579"
         d="m 40.571223,58.140638 2.187609,2.137819 2.14594,-2.200693 -2.187609,-2.13782 -2.14594,2.200694 z"
         style="fill:#787878;fill-opacity:1;fill-rule:evenodd;stroke:none" />
      <path
         inkscape:export-ydpi="40.000271"
         inkscape:export-xdpi="40.000271"
         inkscape:export-filename="g3820-a.png"
         id="path3575"
         d="m 41.966606,66.05253 3.062652,0 0,-3.080977 -3.062652,0 0,3.080977 z"
         style="fill:#787878;fill-opacity:1;fill-rule:evenodd;stroke:none" />
      <path
         inkscape:export-ydpi="40.000271"
         inkscape:export-xdpi="40.000271"
         inkscape:export-filename="g3820-a.png"
         id="path3573"
         d="m 11.537207,61.684602 0.300001,0.556771 0.03727,0.04588 0.01653,0.04379 0.380826,0.585964 0.03726,0.04587 0.01653,0.04378 0.426482,0.548425 0.01653,0.04379 0.03936,0.02502 0.428574,0.527563 0.03727,0.04588 0.01864,0.02293 0.246425,0.256485 2.222764,-2.114746 -0.169802,-0.185583 -0.05589,-0.06881 -0.337504,-0.39202 -0.01864,-0.02293 -0.03727,-0.04588 -0.293941,-0.408708 -0.0559,-0.0688 -0.289754,-0.450421 -0.03517,-0.06673 -0.01864,-0.02293 -0.266927,-0.469188 -2.645044,1.524614 z"
         style="fill:#787878;fill-opacity:1;fill-rule:evenodd;stroke:none" />
      <path
         inkscape:export-ydpi="40.000271"
         inkscape:export-xdpi="40.000271"
         inkscape:export-filename="g3820-a.png"
         id="path3571"
         d="m 17.050642,67.593452 1.041718,0.482055 0.0625,0.04192 0.0625,0.02096 1.18756,0.440141 0.0625,0.02096 0.04167,0.02096 0.583362,0.167677 0.875044,-2.955228 -0.479191,-0.146709 -1.104221,-0.398221 -0.04167,-0.02096 -0.0625,-0.02096 -0.958381,-0.440135 -1.270896,2.787545 z"
         style="fill:#787878;fill-opacity:1;fill-rule:evenodd;stroke:none" />
      <path
         inkscape:export-ydpi="40.000271"
         inkscape:export-xdpi="40.000271"
         inkscape:export-filename="g3820-a.png"
         id="path3569"
         d="m 23.736387,69.686724 0.129046,0.02702 0.04139,-0.0049 1.404829,0.172382 1.288031,0.249445 0.588269,-3.023715 -1.396389,-0.278892 -0.06453,-0.01352 -0.06208,0.0073 -1.446212,-0.167516 -0.02314,-0.01838 -0.02069,0.0025 -0.167983,-0.0013 -0.270546,3.049643 z"
         style="fill:#787878;fill-opacity:1;fill-rule:evenodd;stroke:none" />
      <path
         inkscape:export-ydpi="40.000271"
         inkscape:export-xdpi="40.000271"
         inkscape:export-filename="g3820-a.png"
         id="path3567"
         d="m 41.984407,72.127796 3.062652,0 0,-3.080977 -3.062652,0 0,3.080977 z"
         style="fill:#787878;fill-opacity:1;fill-rule:evenodd;stroke:none" />
      <path
         inkscape:export-ydpi="40.000271"
         inkscape:export-xdpi="40.000271"
         inkscape:export-filename="g3820-a.png"
         id="path3565"
         d="m 29.133268,71.557998 0.833375,0.503016 0.104171,0.06288 0.895878,0.670692 0.02083,0 0.0625,0.06287 0.375019,0.335346 2.0001,-2.326449 -0.458356,-0.419182 -0.0625,-0.04192 -0.04167,-0.02096 -1.083386,-0.796448 -0.04167,-0.04191 -0.0625,-0.04192 -0.937546,-0.565892 -1.604247,2.619875 z"
         style="fill:#787878;fill-opacity:1;fill-rule:evenodd;stroke:none" />
      <path
         inkscape:export-ydpi="40.000271"
         inkscape:export-xdpi="40.000271"
         inkscape:export-filename="g3820-a.png"
         id="path3563"
         d="m 41.91823,74.944088 0,3.060016 3.062653,0 0,-3.080977 -3.062653,0.02096 z"
         style="fill:#787878;fill-opacity:1;fill-rule:evenodd;stroke:none" />
      <path
         inkscape:export-ydpi="40.000271"
         inkscape:export-xdpi="40.000271"
         inkscape:export-filename="g3820-a.png"
         id="path3561"
         d="m 33.714343,75.821364 0.104171,0.104795 0.04167,0.06288 0.04167,0.04192 0.604196,0.859323 0.0625,0.08384 0,0.02096 0.583363,1.006032 0.02083,0 0.02083,0.06288 2.750138,-1.341378 -0.104173,-0.18863 -0.02083,-0.06288 -0.04167,-0.06288 -0.645866,-1.110827 -0.04167,-0.04192 -0.02083,-0.06288 -0.750038,-1.047947 -0.04167,-0.06288 -0.04167,-0.04191 -0.166674,-0.20959 -2.354284,1.991103 z"
         style="fill:#787878;fill-opacity:1;fill-rule:evenodd;stroke:none" />
      <path
         inkscape:export-ydpi="40.000271"
         inkscape:export-xdpi="40.000271"
         inkscape:export-filename="g3820-a.png"
         id="path3558"
         d="m 42.005241,83.901367 3.041818,0 0,-3.080977 -3.062652,0 0.02083,3.080977 z"
         style="fill:#787878;fill-opacity:1;fill-rule:evenodd;stroke:none" />
      <path
         inkscape:export-ydpi="40.000271"
         inkscape:export-xdpi="40.000271"
         inkscape:export-filename="g3820-a.png"
         id="path3596"
         d="m 9.0554173,51.172609 3.0626517,0 0,-3.060016 -3.0626517,0 0,3.060016 z"
         style="fill:#787878;fill-opacity:1;fill-rule:evenodd;stroke:none" />
      <path
         inkscape:export-ydpi="40.000271"
         inkscape:export-xdpi="40.000271"
         inkscape:export-filename="g3820-a.png"
         id="path3598"
         d="m 36.141003,84.003875 3.041818,0 0,-3.080977 -3.062652,0 0.02083,3.080977 z"
         style="fill:#787878;fill-opacity:1;fill-rule:evenodd;stroke:none" />
      <path
         inkscape:export-ydpi="40.000271"
         inkscape:export-xdpi="40.000271"
         inkscape:export-filename="g3820-a.png"
         id="path3600"
         d="m 24.463309,54.001808 0.02083,3.080977 3.062652,-0.02096 -0.02083,-3.080977 -3.062654,0.02096 z"
         style="fill:#787878;fill-opacity:1;fill-rule:evenodd;stroke:none" />
    </g>
  </g>
</svg>
