<?xml version="1.0" encoding="UTF-8" standalone="no"?>
<!-- Created with Inkscape (http://www.inkscape.org/) -->

<svg
   xmlns:dc="http://purl.org/dc/elements/1.1/"
   xmlns:cc="http://creativecommons.org/ns#"
   xmlns:rdf="http://www.w3.org/1999/02/22-rdf-syntax-ns#"
   xmlns:svg="http://www.w3.org/2000/svg"
   xmlns="http://www.w3.org/2000/svg"
   xmlns:sodipodi="http://sodipodi.sourceforge.net/DTD/sodipodi-0.dtd"
   xmlns:inkscape="http://www.inkscape.org/namespaces/inkscape"
   width="48"
   height="48"
   id="svg2300"
   sodipodi:version="0.32"
   inkscape:version="0.47 r22583"
   version="1.0"
   sodipodi:docname="sitemanager.svg"
   inkscape:output_extension="org.inkscape.output.svg.inkscape"
   sodipodi:modified="true"
   inkscape:export-filename="S:\bfiles 2009\Projects\FileZilla_icons\blukis-ico-2.0a\toolbar-general\16x16\sitemanager.png"
   inkscape:export-xdpi="30"
   inkscape:export-ydpi="30">
  <defs
     id="defs2302">
    <inkscape:perspective
       sodipodi:type="inkscape:persp3d"
       inkscape:vp_x="0 : 45 : 1"
       inkscape:vp_y="0 : 1000 : 0"
       inkscape:vp_z="90 : 45 : 1"
       inkscape:persp3d-origin="45 : 30 : 1"
       id="perspective51" />
    <clipPath
       clipPathUnits="userSpaceOnUse"
       id="clipPath3642">
      <rect
         style="fill:#f300a2;fill-opacity:0.32098766;stroke:none"
         id="rect3609"
         width="32.243084"
         height="58.073177"
         x="551.87329"
         y="975.05005" />
    </clipPath>
    <clipPath
       clipPathUnits="userSpaceOnUse"
       id="clipPath4785">
      <path
         sodipodi:nodetypes="cscccc"
         id="path4787"
         d="m 126.71477,349.26711 c -0.13984,-5.23614 -3.35931,-7.28171 -7.47161,-8.15261 -4.15068,-0.87903 -5.95446,-3.76122 -5.61179,-10.23848 l -4.75388,2.91426 0.12438,15.60992 17.7129,-0.13309 z"
         style="fill:none;stroke:#000000;stroke-width:0.99999994px;stroke-linecap:butt;stroke-linejoin:miter;stroke-opacity:1" />
    </clipPath>
    <clipPath
       clipPathUnits="userSpaceOnUse"
       id="clipPath5889">
      <path
         inkscape:export-ydpi="20.608969"
         inkscape:export-xdpi="20.608969"
         inkscape:export-filename="C:\bfiles\Projects\FileZilla toolbar\path6567.png"
         sodipodi:nodetypes="ccccccc"
         id="path5891"
         d="m 114.86786,215.1799 0.0114,40.65998 46.18499,-4.7e-4 -0.0263,-38.09465 -10.03255,-7.85634 -36.11506,-0.0208 -0.0225,5.31227 z"
         style="fill:none;stroke:#ee4747;stroke-width:0.27000001;stroke-linecap:butt;stroke-linejoin:round;stroke-miterlimit:4;stroke-opacity:1;stroke-dasharray:none" />
    </clipPath>
    <inkscape:perspective
       id="perspective2864"
       inkscape:persp3d-origin="0.5 : 0.33333333 : 1"
       inkscape:vp_z="1 : 0.5 : 1"
       inkscape:vp_y="0 : 1000 : 0"
       inkscape:vp_x="0 : 0.5 : 1"
       sodipodi:type="inkscape:persp3d" />
  </defs>
  <sodipodi:namedview
     id="base"
     pagecolor="#ffffff"
     bordercolor="#666666"
     borderopacity="1.0"
     gridtolerance="10000"
     guidetolerance="10"
     objecttolerance="10"
     inkscape:pageopacity="0.0"
     inkscape:pageshadow="2"
     inkscape:zoom="13.895833"
     inkscape:cx="24"
     inkscape:cy="24.34197"
     inkscape:document-units="px"
     inkscape:current-layer="layer1"
     width="1in"
     height="1in"
     units="in"
     showgrid="true"
     gridanglex="0.33333333in"
     gridanglez="0.33333333in"
     grid_units="in"
     inkscape:window-width="969"
     inkscape:window-height="919"
     inkscape:window-x="252"
     inkscape:window-y="81"
     inkscape:grid-bbox="true"
     inkscape:grid-points="false"
     inkscape:snap-grids="false"
     inkscape:window-maximized="0">
    <inkscape:grid
       id="GridFromPre046Settings"
       type="xygrid"
       originx="0px"
       originy="0px"
       spacingx="1px"
       spacingy="1px"
       color="#0000ff"
       empcolor="#0000ff"
       opacity="0.2"
       empopacity="0.4"
       empspacing="3"
       units="px"
       visible="true"
       enabled="true"
       snapvisiblegridlinesonly="true" />
  </sodipodi:namedview>
  <metadata
     id="metadata2305">
    <rdf:RDF>
      <cc:Work
         rdf:about="">
        <dc:format>image/svg+xml</dc:format>
        <dc:type
           rdf:resource="http://purl.org/dc/dcmitype/StillImage" />
        <dc:title></dc:title>
      </cc:Work>
    </rdf:RDF>
  </metadata>
  <g
     inkscape:label="Layer 1"
     inkscape:groupmode="layer"
     id="layer1"
     transform="translate(0,-42)">
    <path
       style="fill:#3b83b2;fill-opacity:1;fill-rule:evenodd;stroke:#275a7b;stroke-width:0.96187276000000022;stroke-linecap:butt;stroke-linejoin:round;stroke-miterlimit:4;stroke-opacity:1;stroke-dasharray:none"
       d="m 23.96875,29.78125 -6.3125,5.9375 3.75,-0.03125 0.125,8.28125 -9.125,-7.875 L 15.25,33.5 6.3125,33.625 6.40625,42.53125 10,38.875 l 9.34375,8.75 8.25,0 10.46875,-8.65625 3.3125,3.5625 L 41.4375,33.625 32.5,33.5 35.28125,36.1875 26.34375,43.625 26.375,35.96875 30.1875,35.875 23.96875,29.78125 z"
       transform="translate(0,42)"
       id="path5293"
       sodipodi:nodetypes="cccccccccccccccccccc" />
    <path
       style="fill:#a3a08f;fill-opacity:1;fill-rule:evenodd;stroke:none"
       d="m 5.8330881,65.295677 0,5.21608 1.135469,0 0,-5.21608 -1.135469,0 z"
       id="path5299"
       inkscape:export-filename="C:\bfiles\Projects\FileZilla toolbar\g3065.png"
       inkscape:export-xdpi="63.921753"
       inkscape:export-ydpi="63.921753" />
    <path
       style="fill:#464237;fill-opacity:1;fill-rule:evenodd;stroke:none"
       d="m 6.9908225,65.446867 0,5.216082 1.1354633,0 0,-5.216082 -1.1354633,0 z"
       id="path5301"
       inkscape:export-filename="C:\bfiles\Projects\FileZilla toolbar\g3065.png"
       inkscape:export-xdpi="63.921753"
       inkscape:export-ydpi="63.921753" />
    <path
       style="fill:#a3a08f;fill-opacity:1;fill-rule:evenodd;stroke:none"
       d="m 13.608648,69.728011 -13.60320974,0.217566 0,1.149996 13.62317774,-0.217566 -0.01997,-1.149996 z"
       id="path5303"
       inkscape:export-filename="C:\bfiles\Projects\FileZilla toolbar\g3065.png"
       inkscape:export-xdpi="63.921753"
       inkscape:export-ydpi="63.921753" />
    <path
       style="fill:#464237;fill-opacity:1;fill-rule:evenodd;stroke:none"
       d="m 13.608648,70.66044 -13.60320974,0.186486 0,1.149995 13.62317774,-0.186486 -0.01997,-1.149995 z"
       id="path5305"
       inkscape:export-filename="C:\bfiles\Projects\FileZilla toolbar\g3065.png"
       inkscape:export-xdpi="63.921753"
       inkscape:export-ydpi="63.921753" />
    <path
       style="fill:#c3cfcd;fill-opacity:1;stroke:#596f6b;stroke-width:0.96187264;stroke-linecap:round;stroke-linejoin:round;stroke-miterlimit:4;stroke-opacity:1;stroke-dasharray:none"
       d="m 5.0997716,45.448312 8.0518804,0 0,16.728919 -3.1673593,3.367205 -7.7464756,0 0,-16.782473 2.8619545,-3.313651 z"
       id="path5307"
       sodipodi:nodetypes="ccccccc"
       inkscape:export-filename="C:\bfiles\Projects\FileZilla toolbar\g3065.png"
       inkscape:export-xdpi="63.921753"
       inkscape:export-ydpi="63.921753" />
    <path
       style="fill:#f5f9f9;fill-opacity:1;fill-rule:evenodd;stroke:none"
       d="m 5.2445366,46.062519 7.1636484,0.100589 -2.7100971,2.672051 -6.7255855,-2e-6 2.2720342,-2.772638 z"
       id="path5309"
       sodipodi:nodetypes="ccccc"
       inkscape:export-filename="C:\bfiles\Projects\FileZilla toolbar\g3065.png"
       inkscape:export-xdpi="63.921753"
       inkscape:export-ydpi="63.921753" />
    <path
       sodipodi:nodetypes="ccccc"
       style="fill:#939f9d;fill-opacity:1;fill-rule:evenodd;stroke:none"
       d="M 9.6980879,48.688758 12.604821,46.01671 12.56005,62.056991 9.9842867,64.792783 9.6980889,48.688758 z"
       id="path5311"
       inkscape:export-filename="C:\bfiles\Projects\FileZilla toolbar\g3065.png"
       inkscape:export-xdpi="63.921753"
       inkscape:export-ydpi="63.921753" />
    <rect
       style="fill:#988131;fill-opacity:1;stroke:none"
       id="rect5345"
       width="5.4712844"
       height="3.0336161"
       x="4.5736227"
       y="69.052872"
       inkscape:export-filename="C:\bfiles\Projects\FileZilla toolbar\g3065.png"
       inkscape:export-xdpi="63.921753"
       inkscape:export-ydpi="63.921753" />
    <rect
       y="69.351044"
       x="4.8254037"
       height="1.9160244"
       width="2.8594449"
       id="rect5347"
       style="fill:#dfc672;fill-opacity:1;stroke:none"
       inkscape:export-filename="C:\bfiles\Projects\FileZilla toolbar\g3065.png"
       inkscape:export-xdpi="63.921753"
       inkscape:export-ydpi="63.921753" />
    <g
       id="g5418"
       transform="matrix(0.71244907,0,0,0.71027935,-134.8064,31.32994)"
       inkscape:export-filename="C:\bfiles\Projects\FileZilla toolbar\g3065.png"
       inkscape:export-xdpi="63.921753"
       inkscape:export-ydpi="63.921753">
      <path
         id="path5400"
         d="m 223.0944,43.696646 0,7.318379 1.59375,0 0,-7.318379 -1.59375,0 z"
         style="fill:#a3a08f;fill-opacity:1;fill-rule:evenodd;stroke:none" />
      <path
         id="path5402"
         d="m 224.7194,43.908773 0,7.318379 1.59375,0 0,-7.318379 -1.59375,0 z"
         style="fill:#464237;fill-opacity:1;fill-rule:evenodd;stroke:none" />
      <path
         id="path5404"
         d="m 234.00824,49.915396 -19.09359,0.305255 0,1.613493 19.12162,-0.305256 -0.028,-1.613492 z"
         style="fill:#a3a08f;fill-opacity:1;fill-rule:evenodd;stroke:none" />
      <path
         id="path5406"
         d="m 234.00824,51.223633 -19.09359,0.261647 0,1.613493 19.12162,-0.261648 -0.028,-1.613492 z"
         style="fill:#464237;fill-opacity:1;fill-rule:evenodd;stroke:none" />
      <path
         sodipodi:nodetypes="ccccccc"
         id="path5408"
         d="m 222.0651,15.849958 11.30169,0 0,23.471375 -4.44573,4.72433 -10.87303,0 0,-23.546513 4.01707,-4.649192 z"
         style="fill:#c3cfcd;fill-opacity:1;stroke:#596f6b;stroke-width:1.35215366;stroke-linecap:round;stroke-linejoin:round;stroke-miterlimit:4;stroke-opacity:1;stroke-dasharray:none" />
      <path
         sodipodi:nodetypes="ccccc"
         id="path5410"
         d="m 222.2683,16.711715 10.05496,0.141131 -3.80391,3.749002 -9.4401,-4e-6 3.18905,-3.890129 z"
         style="fill:#f5f9f9;fill-opacity:1;fill-rule:evenodd;stroke:none" />
      <path
         id="path5412"
         d="m 228.51935,20.396439 4.07991,-3.748995 -0.0628,22.505188 -3.61536,3.838432 -0.40171,-22.594625 z"
         style="fill:#939f9d;fill-opacity:1;fill-rule:evenodd;stroke:none"
         sodipodi:nodetypes="ccccc" />
      <rect
         y="48.968147"
         x="221.3266"
         height="4.2562904"
         width="7.6795444"
         id="rect5414"
         style="fill:#988131;fill-opacity:1;stroke:none" />
      <rect
         style="fill:#dfc672;fill-opacity:1;stroke:none"
         id="rect5416"
         width="4.0135431"
         height="2.6882627"
         x="221.67999"
         y="49.386501" />
    </g>
    <g
       id="g5429"
       transform="matrix(0.71244907,0,0,0.71273708,-118.73841,34.230321)"
       inkscape:export-filename="C:\bfiles\Projects\FileZilla toolbar\g3065.png"
       inkscape:export-xdpi="63.921753"
       inkscape:export-ydpi="63.921753">
      <path
         id="path5431"
         d="m 223.0944,43.696646 0,7.318379 1.59375,0 0,-7.318379 -1.59375,0 z"
         style="fill:#a3a08f;fill-opacity:1;fill-rule:evenodd;stroke:none" />
      <path
         id="path5433"
         d="m 224.7194,43.908773 0,7.318379 1.59375,0 0,-7.318379 -1.59375,0 z"
         style="fill:#464237;fill-opacity:1;fill-rule:evenodd;stroke:none" />
      <path
         id="path5435"
         d="m 234.00824,49.915396 -19.09359,0.305255 0,1.613493 19.12162,-0.305256 -0.028,-1.613492 z"
         style="fill:#a3a08f;fill-opacity:1;fill-rule:evenodd;stroke:none" />
      <path
         id="path5437"
         d="m 234.00824,51.223633 -19.09359,0.261647 0,1.613493 19.12162,-0.261648 -0.028,-1.613492 z"
         style="fill:#464237;fill-opacity:1;fill-rule:evenodd;stroke:none" />
      <path
         sodipodi:nodetypes="ccccccc"
         id="path5439"
         d="m 222.0651,15.849958 11.30169,0 0,23.471375 -4.44573,4.72433 -10.87303,0 0,-23.546513 4.01707,-4.649192 z"
         style="fill:#c3cfcd;fill-opacity:1;stroke:#596f6b;stroke-width:1.34982038;stroke-linecap:round;stroke-linejoin:round;stroke-miterlimit:4;stroke-opacity:1;stroke-dasharray:none" />
      <path
         sodipodi:nodetypes="ccccc"
         id="path5441"
         d="m 222.2683,16.711715 10.05496,0.141131 -3.80391,3.749002 -9.4401,-4e-6 3.18905,-3.890129 z"
         style="fill:#f5f9f9;fill-opacity:1;fill-rule:evenodd;stroke:none" />
      <path
         id="path5443"
         d="m 228.51935,20.396439 4.07991,-3.748995 -0.0628,22.505188 -3.61536,3.838432 -0.40171,-22.594625 z"
         style="fill:#939f9d;fill-opacity:1;fill-rule:evenodd;stroke:none"
         sodipodi:nodetypes="ccccc" />
      <rect
         y="48.968147"
         x="221.3266"
         height="4.2562904"
         width="7.6795444"
         id="rect5445"
         style="fill:#988131;fill-opacity:1;stroke:none" />
      <rect
         style="fill:#dfc672;fill-opacity:1;stroke:none"
         id="rect5447"
         width="4.0135431"
         height="2.6882627"
         x="221.67999"
         y="49.386501" />
    </g>
    <path
       style="fill:#c5e6fb;fill-opacity:1;fill-rule:evenodd;stroke:none"
       d="m 7.2346005,76.501241 0,6.062376 1.3772572,-5.143834 4.3154043,-0.918542 -5.6926615,0 z"
       id="path5453"
       inkscape:export-filename="C:\bfiles\Projects\FileZilla toolbar\g3065.png"
       inkscape:export-xdpi="63.921753"
       inkscape:export-ydpi="63.921753" />
    <path
       style="fill:#c5e6fb;fill-opacity:1;fill-rule:evenodd;stroke:none"
       d="m 19.905353,76.68495 3.948133,-3.490459 -0.734539,3.30675 -3.213594,0.183709 z"
       id="path5455"
       sodipodi:nodetypes="cccc"
       inkscape:export-filename="C:\bfiles\Projects\FileZilla toolbar\g3065.png"
       inkscape:export-xdpi="63.921753"
       inkscape:export-ydpi="63.921753" />
    <path
       style="fill:#c5e6fb;fill-opacity:1;fill-rule:evenodd;stroke:none"
       d="m 34.871535,76.317533 5.784475,0 -3.2136,1.194105 -2.570875,-1.194105 z"
       id="path5457"
       inkscape:export-filename="C:\bfiles\Projects\FileZilla toolbar\g3065.png"
       inkscape:export-xdpi="63.921753"
       inkscape:export-ydpi="63.921753" />
    <path
       style="fill:#c5e6fb;fill-opacity:1;fill-rule:evenodd;stroke:none"
       d="m 29.546147,85.411097 -2.479062,0.551125 8.630802,-7.25648 -0.459086,1.74523 -5.692654,4.960125 z"
       id="path5466"
       inkscape:export-filename="C:\bfiles\Projects\FileZilla toolbar\g3065.png"
       inkscape:export-xdpi="63.921753"
       inkscape:export-ydpi="63.921753" />
  </g>
</svg>
