<?xml version="1.0" encoding="UTF-8" standalone="no"?>
<!-- Created with Inkscape (http://www.inkscape.org/) -->

<svg
   xmlns:dc="http://purl.org/dc/elements/1.1/"
   xmlns:cc="http://creativecommons.org/ns#"
   xmlns:rdf="http://www.w3.org/1999/02/22-rdf-syntax-ns#"
   xmlns:svg="http://www.w3.org/2000/svg"
   xmlns="http://www.w3.org/2000/svg"
   xmlns:sodipodi="http://sodipodi.sourceforge.net/DTD/sodipodi-0.dtd"
   xmlns:inkscape="http://www.inkscape.org/namespaces/inkscape"
   width="744.09448819"
   height="1052.3622047"
   id="svg6584"
   version="1.1"
   inkscape:version="0.48.2 r9819"
   sodipodi:docname="logo.svg"
   inkscape:export-filename="D:\devel\svn\chess\logo.bmp.png"
   inkscape:export-xdpi="13.57"
   inkscape:export-ydpi="13.57">
  <defs
     id="defs6586" />
  <sodipodi:namedview
     id="base"
     pagecolor="#ffffff"
     bordercolor="#666666"
     borderopacity="1.0"
     inkscape:pageopacity="0.0"
     inkscape:pageshadow="2"
     inkscape:zoom="2.8"
     inkscape:cx="303.74143"
     inkscape:cy="592.14646"
     inkscape:document-units="px"
     inkscape:current-layer="layer1"
     showgrid="false"
     inkscape:window-width="1920"
     inkscape:window-height="1028"
     inkscape:window-x="-8"
     inkscape:window-y="-8"
     inkscape:window-maximized="1" />
  <metadata
     id="metadata6589">
    <rdf:RDF>
      <cc:Work
         rdf:about="">
        <dc:format>image/svg+xml</dc:format>
        <dc:type
           rdf:resource="http://purl.org/dc/dcmitype/StillImage" />
        <dc:title />
      </cc:Work>
    </rdf:RDF>
  </metadata>
  <g
     inkscape:label="Layer 1"
     inkscape:groupmode="layer"
     id="layer1">
    <path
       style="fill:#f2f2f2;fill-opacity:1;stroke:#2b2b2b;stroke-width:1.61782885;stroke-linecap:round;stroke-linejoin:round;stroke-miterlimit:4;stroke-opacity:1;stroke-dasharray:none"
       id="rect3166"
       d="m 545.78179,502.0161 c 3.6445,1.29226 14.4215,1.33358 18.9124,0 -1.4848,14.75533 1.16,27.769 5.2534,40.58786 -3.2042,3.99527 -24.0889,6.12015 -29.2442,0 4.126,-13.53978 5.7477,-26.58304 5.0784,-40.58786 z"
       inkscape:connector-curvature="0" />
    <path
       style="fill:#8c008c;fill-opacity:1;stroke:#000000;stroke-width:1.5;stroke-linecap:butt;stroke-linejoin:miter;stroke-miterlimit:4;stroke-opacity:1;stroke-dasharray:none"
       d="m 252.75953,431.51661 c -2.77023,-18.88979 7.89018,-36.14971 5.67356,-44.28203 -2.21661,-8.13231 -29.59243,29.89209 -21.60065,50.73235 7.99177,20.84027 39.40798,63.58897 68.38119,76.64801 -7.08557,-2.11409 -111.43322,-13.87525 -116.71877,-36.39445 -3.24579,-13.82877 39.81349,-12.95591 37.02107,-24.85301 -3.40996,-14.52824 -48.54639,-3.77429 -57.18478,7.76762 -34.49633,46.0912 84.48787,75.42584 127.71216,88.80921 -6.10068,1.39314 -84.71429,89.37137 -95.13823,60.60309 -6.40121,-17.66626 26.08161,-38.45592 22.70331,-52.59008 -4.58907,-19.19981 -35.57367,19.35556 -43.10162,38.97601 -19.5455,50.94233 41.26119,44.71596 62.33102,34.865 l 86.12979,-61.69949 c -8.65918,18.36929 -69.31732,78.35342 -91.44855,85.08094 -12.93385,3.93167 -13.33345,1.06508 -30.62184,5.02838 -10.22261,2.3435 -17.78055,7.78816 11.81605,11.99907 37.55605,5.34336 121.7631,-71.42474 145.30124,-98.22294 13.54071,23.96757 73.9641,105.91298 131.35582,93.82928 19.37352,-4.07905 50.05555,-12.97894 47.02651,-24.3749 -2.59253,-9.75371 -35.5123,3.15549 -63.00554,6.38496 -33.90893,3.98309 -69.4822,-63.26645 -76.94623,-87.01172 23.01054,30.00626 167.6093,103.03474 156.4725,43.5133 -2.65141,-14.17066 -40.78829,-41.53494 -49.60382,-29.49401 -7.21901,9.86026 34.54404,21.23853 26.15294,32.69976 -13.66433,18.66377 -105.56534,-66.18585 -98.07872,-64.57726 52.26812,20.46489 191.3803,21.21002 157.87194,-29.22826 -7.97755,-12.00817 -53.77482,-22.29586 -57.18478,-7.76762 -2.79243,11.8971 40.26686,11.02424 37.02107,24.85302 -5.28555,22.51919 -123.20463,-24.64822 -135.40545,-22.4732 34.30834,-8.55561 133.20238,-106.39588 73.84315,-118.36714 -14.13204,-2.85008 -53.79008,22.25897 -45.92828,34.9432 6.43798,10.38706 36.26829,-20.67765 43.75159,-8.60411 12.18603,19.66092 -97.40489,66.47561 -111.62576,77.88187 3.08502,-19.86135 -0.83973,-20.70914 6.68654,-35.76168 7.88985,-15.77969 26.67442,-34.87941 32.78941,-53.415 25.08728,-76.0439 -141.19247,-103.14062 -155.48527,-12.69268 -3.65239,23.1131 24.2631,36.11898 41.17632,64.64743 20.43179,34.46343 8.70717,19.61216 17.04547,36.19806 -12.13741,-4.53831 -85.82803,-40.76462 -89.18436,-63.65098 z"
       id="path3046-0-4-8"
       inkscape:connector-curvature="0"
       sodipodi:nodetypes="szzcssscsssccssscssscssscssscssscsssscs" />
    <g
       id="g4119"
       transform="matrix(1.8583398,0,0,1.8583398,-679.08789,-307.96431)"
       style="stroke-width:0.80717208;stroke-miterlimit:4;stroke-dasharray:none">
      <path
         transform="translate(88.178789,102.36749)"
         d="m 465.35714,270.04074 c 0,7.79116 -6.31598,14.10714 -14.10714,14.10714 -7.79116,0 -14.10714,-6.31598 -14.10714,-14.10714 0,-7.79116 6.31598,-14.10714 14.10714,-14.10714 7.79116,0 14.10714,6.31598 14.10714,14.10714 z"
         sodipodi:ry="14.107142"
         sodipodi:rx="14.107142"
         sodipodi:cy="270.04074"
         sodipodi:cx="451.25"
         id="path5349"
         style="fill:#ffffff;fill-opacity:1;fill-rule:evenodd;stroke:#000000;stroke-opacity:1;stroke-width:0.80717208;stroke-miterlimit:4;stroke-dasharray:none"
         sodipodi:type="arc" />
      <path
         d="m 465.35714,270.04074 c 0,7.79116 -6.31598,14.10714 -14.10714,14.10714 -7.79116,0 -14.10714,-6.31598 -14.10714,-14.10714 0,-7.79116 6.31598,-14.10714 14.10714,-14.10714 7.79116,0 14.10714,6.31598 14.10714,14.10714 z"
         sodipodi:ry="14.107142"
         sodipodi:rx="14.107142"
         sodipodi:cy="270.04074"
         sodipodi:cx="451.25"
         id="path5349-4"
         style="fill:#ffffff;fill-opacity:1;fill-rule:evenodd;stroke:#000000;stroke-opacity:1;stroke-width:0.80717208;stroke-miterlimit:4;stroke-dasharray:none"
         sodipodi:type="arc"
         transform="translate(133.00022,102.18893)" />
      <path
         transform="translate(96.035939,110.22463)"
         d="m 450,264.86218 c 0,2.56418 -2.07867,4.64286 -4.64285,4.64286 -2.56418,0 -4.64286,-2.07868 -4.64286,-4.64286 0,-2.56418 2.07868,-4.64285 4.64286,-4.64285 2.56418,0 4.64285,2.07867 4.64285,4.64285 z"
         sodipodi:ry="4.6428571"
         sodipodi:rx="4.6428571"
         sodipodi:cy="264.86218"
         sodipodi:cx="445.35715"
         id="path5399"
         style="fill:#000000;fill-opacity:1;fill-rule:evenodd;stroke:#000000;stroke-opacity:1;stroke-width:0.80717208;stroke-miterlimit:4;stroke-dasharray:none"
         sodipodi:type="arc" />
      <path
         d="m 450,264.86218 c 0,2.56418 -2.07867,4.64286 -4.64285,4.64286 -2.56418,0 -4.64286,-2.07868 -4.64286,-4.64286 0,-2.56418 2.07868,-4.64285 4.64286,-4.64285 2.56418,0 4.64285,2.07867 4.64285,4.64285 z"
         sodipodi:ry="4.6428571"
         sodipodi:rx="4.6428571"
         sodipodi:cy="264.86218"
         sodipodi:cx="445.35715"
         id="path5399-6"
         style="fill:#000000;fill-opacity:1;fill-rule:evenodd;stroke:#000000;stroke-opacity:1;stroke-width:0.80717208;stroke-miterlimit:4;stroke-dasharray:none"
         sodipodi:type="arc"
         transform="translate(136.75022,109.86749)" />
      <path
         sodipodi:nodetypes="cc"
         inkscape:connector-curvature="0"
         id="path5439"
         d="m 522.46451,358.65825 c 1.13018,-9.5065 25.04938,-7.66288 25.53571,-7.67857"
         style="fill:none;stroke:#000000;stroke-width:5.38114719;stroke-linecap:butt;stroke-linejoin:miter;stroke-miterlimit:4;stroke-opacity:1;stroke-dasharray:none" />
      <path
         sodipodi:nodetypes="cc"
         inkscape:connector-curvature="0"
         id="path5441"
         d="m 574.87915,348.93791 c 2.64166,-3.614 17.26191,7.20238 26.78572,8.75"
         style="fill:none;stroke:#000000;stroke-width:5.38114738;stroke-linecap:butt;stroke-linejoin:miter;stroke-miterlimit:4;stroke-opacity:1;stroke-dasharray:none" />
      <path
         transform="matrix(1.3037722,0,0,1.278569,-43.212586,11.136312)"
         d="m 471.23618,305.6069 c 0,6.27629 -2.71357,11.36422 -6.06092,11.36422 -3.34735,0 -6.06091,-5.08793 -6.06091,-11.36422 0,-6.27628 2.71356,-11.36421 6.06091,-11.36421 3.34735,0 6.06092,5.08793 6.06092,11.36421 z"
         sodipodi:ry="11.364216"
         sodipodi:rx="6.0609155"
         sodipodi:cy="305.6069"
         sodipodi:cx="465.17526"
         id="path5445"
         style="fill:#000000;fill-opacity:1;fill-rule:evenodd;stroke:#414141;stroke-width:0.79933231999999999;stroke-miterlimit:4;stroke-opacity:1;stroke-dasharray:none"
         sodipodi:type="arc" />
    </g>
    <path
       style="fill:#f2f2f2;fill-opacity:1;stroke:#2b2b2b;stroke-width:1.61782885;stroke-linecap:round;stroke-linejoin:round;stroke-miterlimit:4;stroke-opacity:1;stroke-dasharray:none"
       id="path3169"
       d="m 576.48869,494.17402 a 21.32025,8.7995283 0 0 1 -42.6405,0 21.32025,8.7995283 0 1 1 42.6405,0 z"
       inkscape:connector-curvature="0" />
    <path
       style="fill:#f2f2f2;fill-opacity:1;stroke:#2b2b2b;stroke-width:1.61782873;stroke-linecap:round;stroke-linejoin:round;stroke-miterlimit:4;stroke-opacity:1;stroke-dasharray:none"
       id="path3171"
       d="m 571.39199,489.58799 a 16.223587,7.3802794 0 0 1 -32.4471,0 16.223587,7.3802794 0 1 1 32.4471,0 z"
       inkscape:connector-curvature="0" />
    <path
       style="fill:#f2f2f2;fill-opacity:1;stroke:#2b2b2b;stroke-width:1.61782885;stroke-linecap:round;stroke-linejoin:round;stroke-miterlimit:4;stroke-opacity:1;stroke-dasharray:none"
       id="rect3173"
       d="m 543.41779,479.9129 c 1.7365,2.76199 21.3211,4.39378 23.6404,0 l 0,8.49306 c -3.0525,2.91024 -18.9545,4.38368 -23.6404,0 l 0,-8.49306 z"
       inkscape:connector-curvature="0" />
    <path
       style="fill:#f2f2f2;fill-opacity:1;stroke:#2b2b2b;stroke-width:1.61782885;stroke-linecap:round;stroke-linejoin:round;stroke-miterlimit:4;stroke-opacity:1;stroke-dasharray:none"
       id="rect3158"
       d="m 525.37999,565.54306 c 1.9409,16.94789 60.6665,15.30033 60.7666,0 l 0,9.45804 c -1.2504,13.11752 -54.8782,16.00233 -60.7666,0 l 0,-9.45804 z"
       inkscape:connector-curvature="0" />
    <path
       style="fill:#f2f2f2;fill-opacity:1;stroke:#2b2b2b;stroke-width:1.61782885;stroke-linecap:round;stroke-linejoin:round;stroke-miterlimit:4;stroke-opacity:1;stroke-dasharray:none"
       id="path3176"
       d="m 569.11589,481.18248 a 14.009184,5.5598948 0 0 1 -28.0183,0 14.009184,5.5598948 0 1 1 28.0183,0 z"
       inkscape:connector-curvature="0" />
    <path
       style="fill:#f2f2f2;fill-opacity:1;stroke:#2b2b2b;stroke-width:1.61782885;stroke-linecap:round;stroke-linejoin:round;stroke-miterlimit:4;stroke-opacity:1;stroke-dasharray:none"
       id="rect3161"
       d="m 536.32559,543.91732 c 5.4495,8.37796 34.0975,8.40292 37.8248,0 -0.4023,11.87972 8.2966,9.30475 11.9077,20.83865 1.0744,16.07368 -60.4547,18.28889 -60.5896,-0.17511 1.1084,-10.91624 13.2036,-7.34326 10.8571,-20.66354 z"
       inkscape:connector-curvature="0" />
    <path
       style="fill:#f2f2f2;fill-opacity:1;stroke:#2b2b2b;stroke-width:1.61782885;stroke-linecap:round;stroke-linejoin:round;stroke-miterlimit:4;stroke-opacity:1;stroke-dasharray:none"
       id="rect3178"
       d="m 535.66889,457.19176 c 0.6252,9.41347 39.5202,8.72099 39.2696,-0.0438 -1.5907,8.04069 -5.8195,15.86894 -7.924,23.07137 -2.0938,2.98132 -19.8224,3.54139 -23.6405,-0.43779 -2.8747,-7.83639 -9.4619,-19.83618 -7.7051,-22.5898 z"
       inkscape:connector-curvature="0" />
    <path
       style="fill:#f2f2f2;fill-opacity:1;stroke:#2b2b2b;stroke-width:1.61782885;stroke-linecap:round;stroke-linejoin:round;stroke-miterlimit:4;stroke-opacity:1;stroke-dasharray:none"
       id="path3164"
       d="m 574.41299,542.99797 a 18.99995,7.1359298 0 0 1 -37.9999,0 18.99995,7.1359298 0 1 1 37.9999,0 z"
       inkscape:connector-curvature="0" />
    <path
       style="fill:#f2f2f2;fill-opacity:1;stroke:#2b2b2b;stroke-width:1.61782885;stroke-linecap:round;stroke-linejoin:round;stroke-miterlimit:4;stroke-opacity:1;stroke-dasharray:none"
       id="path3181"
       d="m 575.06969,457.45048 a 19.678516,6.544912 0 0 1 -39.3569,0 19.678516,6.544912 0 1 1 39.3569,0 z"
       inkscape:connector-curvature="0" />
    <path
       style="fill:#f2f2f2;fill-opacity:1;stroke:#2b2b2b;stroke-width:1.61782885;stroke-linecap:round;stroke-linejoin:round;stroke-miterlimit:4;stroke-opacity:1;stroke-dasharray:none"
       id="path3183"
       d="m 564.46239,454.73117 a 9.3029688,3.3928473 0 1 1 -18.6058,0 9.3029688,3.3928473 0 1 1 18.6058,0 z"
       inkscape:connector-curvature="0" />
    <path
       style="fill:#f2f2f2;fill-opacity:1;stroke:#2b2b2b;stroke-width:1.61782885;stroke-linecap:round;stroke-linejoin:round;stroke-miterlimit:4;stroke-opacity:1;stroke-dasharray:none"
       id="rect3185"
       d="m 545.78179,454.60882 c 0.4871,4.44191 18.0312,4.83714 18.6497,0 l -0.5253,2.6705 c -1.193,2.29639 -15.0217,2.96187 -17.3802,-0.0439 l -0.7442,-2.62672 z"
       inkscape:connector-curvature="0" />
    <path
       style="fill:#f2f2f2;fill-opacity:0.38666669;stroke:#646464;stroke-width:1.61782885;stroke-linecap:round;stroke-linejoin:round;stroke-miterlimit:4;stroke-opacity:1;stroke-dasharray:none"
       id="path3191"
       d="m 544.88079,439.38498 6.9281,0 -0.7387,-3.88536 3.7266,-2.28743 3.9893,2.28743 -1.0451,3.88536 6.0961,0 -0.016,8.63534 -4.5202,0 1.1602,5.94297 -11.6013,0 1.3352,-5.94297 -5.2424,0 -0.076,-8.63534 z"
       inkscape:connector-curvature="0" />
    <path
       style="fill:#f2f2f2;fill-opacity:1;stroke:#646464;stroke-width:1.61782885;stroke-linecap:round;stroke-linejoin:round;stroke-miterlimit:4;stroke-opacity:1;stroke-dasharray:none"
       id="rect3211"
       d="m 557.73339,439.35196 6.0853,0.0439 1.4118,1.70736 -6.0961,-0.0328 -1.401,-1.71831 z"
       inkscape:connector-curvature="0" />
    <path
       style="fill:#f2f2f2;fill-opacity:1;stroke:#646464;stroke-width:1.61782885;stroke-linecap:round;stroke-linejoin:round;stroke-miterlimit:4;stroke-opacity:1;stroke-dasharray:none"
       id="rect3193"
       d="m 545.03759,439.41763 1.2258,1.57602 0.044,8.71196 -1.3133,-1.66359 0.044,-8.62439 z"
       inkscape:connector-curvature="0" />
    <path
       style="fill:#f2f2f2;fill-opacity:1;stroke:#646464;stroke-width:1.61782885;stroke-linecap:round;stroke-linejoin:round;stroke-miterlimit:4;stroke-opacity:1;stroke-dasharray:none"
       id="rect3196"
       d="m 544.98289,439.39574 6.7747,0.0113 1.4337,1.66359 -6.8403,-0.0328 -1.3681,-1.64169 z"
       inkscape:connector-curvature="0" />
    <path
       style="fill:#f2f2f2;fill-opacity:1;stroke:#646464;stroke-width:1.61782885;stroke-linecap:round;stroke-linejoin:round;stroke-miterlimit:4;stroke-opacity:1;stroke-dasharray:none"
       id="rect3199"
       d="m 550.20349,448.02013 1.379,1.68548 -1.3353,5.95391 -1.3571,-1.77305 1.3134,-5.86634 z"
       inkscape:connector-curvature="0" />
    <path
       style="fill:#f2f2f2;fill-opacity:1;stroke:#646464;stroke-width:1.61782885;stroke-linecap:round;stroke-linejoin:round;stroke-miterlimit:4;stroke-opacity:1;stroke-dasharray:none"
       id="rect3202"
       d="m 551.09009,435.56509 1.3788,1.65265 0.7116,3.86347 -1.3791,-1.6636 -0.7113,-3.85252 z"
       inkscape:connector-curvature="0" />
    <path
       style="fill:#f2f2f2;fill-opacity:1;stroke:#646464;stroke-width:1.61782885;stroke-linecap:round;stroke-linejoin:round;stroke-miterlimit:4;stroke-opacity:1;stroke-dasharray:none"
       id="rect3205"
       d="m 551.05719,435.51038 3.743,-2.29838 1.3462,1.69642 -3.6665,2.26554 -1.4227,-1.66358 z"
       inkscape:connector-curvature="0" />
    <path
       style="fill:#f2f2f2;fill-opacity:1;stroke:#646464;stroke-width:1.61782885;stroke-linecap:round;stroke-linejoin:round;stroke-miterlimit:4;stroke-opacity:1;stroke-dasharray:none"
       id="rect3208"
       d="m 554.82209,433.22293 3.951,2.25461 1.3572,1.68548 -3.9729,-2.23271 -1.3353,-1.70738 z"
       inkscape:connector-curvature="0" />
    <path
       style="fill:#f2f2f2;fill-opacity:1;stroke:#464646;stroke-width:1.61782885;stroke-linecap:round;stroke-linejoin:round;stroke-miterlimit:4;stroke-opacity:1;stroke-dasharray:none"
       id="rect3188"
       d="m 546.26339,441.08121 6.9279,0 -0.7387,-3.88536 3.7267,-2.28743 3.9894,2.28743 -1.0453,3.88536 6.0961,0 -0.016,8.63534 -4.5201,0 1.16,5.94297 -11.6013,0 1.3352,-5.94297 -5.2424,0 -0.076,-8.63534 z"
       inkscape:connector-curvature="0" />
    <path
       style="fill:#f2f2f2;fill-opacity:1;stroke:#2b2b2b;stroke-width:1.61782885;stroke-linecap:round;stroke-linejoin:round;stroke-miterlimit:4;stroke-opacity:1;stroke-dasharray:none"
       d="m 544.67279,524.76837 c -0.8628,5.96537 -2.1554,11.91424 -3.9939,17.94779 5.1552,6.12015 26.0177,3.99526 29.222,0 -1.8793,-5.88498 -3.3894,-11.83102 -4.3986,-17.94779"
       id="rect3166-1-7"
       inkscape:connector-curvature="0"
       sodipodi:nodetypes="cccc" />
    <g
       id="g6438"
       transform="translate(-563.00692,85.504969)">
      <g
         style="fill:#000000;stroke:#b3b3b3;stroke-width:9.69920826;stroke-miterlimit:4;stroke-opacity:1;stroke-dasharray:none"
         transform="matrix(0.1031012,0,0,0.1031012,730.14553,400.85577)"
         id="g3234">
        <path
           style="fill:#000000;fill-opacity:1;stroke:#b3b3b3;stroke-width:9.69920826;stroke-linecap:round;stroke-linejoin:round;stroke-miterlimit:4;stroke-opacity:1;stroke-dasharray:none"
           d="m 201.29756,1395.1943 c 19.31773,168.6822 603.81279,152.2839 604.80976,0 l 0,94.1357 c -12.44616,130.5586 -546.20247,159.2711 -604.80976,0 l 0,-94.1357 z"
           id="rect3158-1"
           sodipodi:nodetypes="ccccc"
           inkscape:connector-curvature="0" />
        <path
           style="fill:#000000;fill-opacity:1;stroke:#b3b3b3;stroke-width:9.69920826;stroke-linecap:round;stroke-linejoin:round;stroke-miterlimit:4;stroke-opacity:1;stroke-dasharray:none"
           d="m 310.23887,1179.9535 c 54.23822,83.3857 339.37145,83.6341 376.46963,0 -4.00435,118.2386 82.57549,92.61 118.51822,207.4069 10.69348,159.9811 -601.70619,182.0292 -603.04858,-1.7429 11.0311,-108.6492 131.41457,-73.0875 108.06073,-205.664 z"
           id="rect3161-1"
           sodipodi:nodetypes="ccccc"
           inkscape:connector-curvature="0" />
        <path
           sodipodi:type="arc"
           style="fill:#000000;fill-opacity:1;stroke:#b3b3b3;stroke-width:9.69920826;stroke-linecap:round;stroke-linejoin:round;stroke-miterlimit:4;stroke-opacity:1;stroke-dasharray:none"
           id="path3164-5"
           sodipodi:cx="508.05972"
           sodipodi:cy="1189.1038"
           sodipodi:rx="189.10626"
           sodipodi:ry="71.023781"
           d="m 697.16599,1189.1038 c 0,39.2253 -84.66576,71.0237 -189.10627,71.0237 -104.4405,0 -189.10626,-31.7984 -189.10626,-71.0237 0,-39.2254 84.66576,-71.0238 189.10626,-71.0238 104.44051,0 189.10627,31.7984 189.10627,71.0238 z"
           transform="translate(-7.8431175,-18.300607)" />
        <path
           sodipodi:type="arc"
           style="fill:#000000;fill-opacity:1;stroke:#b3b3b3;stroke-width:9.69920826;stroke-linecap:round;stroke-linejoin:round;stroke-miterlimit:4;stroke-opacity:1;stroke-dasharray:none"
           id="path3169-7"
           sodipodi:cx="394.3345"
           sodipodi:cy="629.62805"
           sodipodi:rx="212.19991"
           sodipodi:ry="87.581482"
           d="m 606.53441,629.62805 c 0,48.36992 -95.00514,87.58148 -212.19991,87.58148 -117.19477,0 -212.1999,-39.21156 -212.1999,-87.58148 0,-48.36992 95.00513,-87.58148 212.1999,-87.58148 117.19477,0 212.19991,39.21156 212.19991,87.58148 z"
           transform="translate(103.44636,55.230771)" />
        <path
           style="fill:#000000;fill-opacity:1;stroke:#b3b3b3;stroke-width:9.69920826;stroke-linecap:round;stroke-linejoin:round;stroke-miterlimit:4;stroke-opacity:1;stroke-dasharray:none"
           d="m 404.35626,762.91095 c 36.27398,12.86189 143.53724,13.2731 188.23482,0 -14.77912,146.85975 11.54553,276.38465 52.28745,403.97065 -31.89241,39.7649 -239.75743,60.9139 -291.0668,0 41.06571,-134.7614 57.20602,-264.58083 50.54453,-403.97065 z"
           id="rect3166-2"
           sodipodi:nodetypes="ccccc"
           inkscape:connector-curvature="0" />
        <path
           sodipodi:type="arc"
           style="fill:#000000;fill-opacity:1;stroke:#b3b3b3;stroke-width:8.20283604;stroke-linecap:round;stroke-linejoin:round;stroke-miterlimit:4;stroke-opacity:1;stroke-dasharray:none"
           id="path3171-6"
           sodipodi:cx="442.70041"
           sodipodi:cy="605.22723"
           sodipodi:rx="115.03239"
           sodipodi:ry="73.749786"
           d="m 557.7328,605.22723 c 0,40.73089 -51.50176,73.74979 -115.03239,73.74979 -63.53063,0 -115.03239,-33.0189 -115.03239,-73.74979 0,-40.73088 51.50176,-73.74978 115.03239,-73.74978 63.53063,0 115.03239,33.0189 115.03239,73.74978 z"
           transform="matrix(1.4037172,0,0,0.9960128,-123.64532,36.400016)" />
        <path
           style="fill:#000000;fill-opacity:1;stroke:#b3b3b3;stroke-width:9.69920826;stroke-linecap:round;stroke-linejoin:round;stroke-miterlimit:4;stroke-opacity:1;stroke-dasharray:none"
           d="m 380.82693,542.91803 c 17.28272,27.49015 212.2083,43.73138 235.29352,0 l 0,84.53138 c -30.38187,28.96567 -188.65462,43.63073 -235.29352,0 l 0,-84.53138 z"
           id="rect3173-1"
           sodipodi:nodetypes="ccccc"
           inkscape:connector-curvature="0" />
        <path
           sodipodi:type="arc"
           style="fill:#000000;fill-opacity:1;stroke:#b3b3b3;stroke-width:9.69920826;stroke-linecap:round;stroke-linejoin:round;stroke-miterlimit:4;stroke-opacity:1;stroke-dasharray:none"
           id="path3176-4"
           sodipodi:cx="505.00961"
           sodipodi:cy="560.7829"
           sodipodi:rx="139.4332"
           sodipodi:ry="55.337551"
           d="m 644.44281,560.7829 c 0,30.56208 -62.42637,55.33755 -139.4332,55.33755 -77.00683,0 -139.43319,-24.77547 -139.43319,-55.33755 0,-30.56209 62.42636,-55.33755 139.43319,-55.33755 77.00683,0 139.4332,24.77546 139.4332,55.33755 z"
           transform="translate(-7.8431174,-5.228745)" />
        <path
           style="fill:#000000;fill-opacity:1;stroke:#b3b3b3;stroke-width:9.69920826;stroke-linecap:round;stroke-linejoin:round;stroke-miterlimit:4;stroke-opacity:1;stroke-dasharray:none"
           d="m 303.70294,316.77481 c 6.22116,93.69208 393.34383,86.79988 390.8487,-0.43573 -15.83148,80.02884 -57.92081,157.94337 -78.8669,229.62904 -20.83948,29.67315 -197.29207,35.24745 -235.29354,-4.35728 -28.61285,-77.99545 -94.17429,-197.4293 -76.68826,-224.83603 z"
           id="rect3178-2"
           sodipodi:nodetypes="ccccc"
           inkscape:connector-curvature="0" />
        <path
           sodipodi:type="arc"
           style="fill:#000000;fill-opacity:1;stroke:#b3b3b3;stroke-width:9.69920826;stroke-linecap:round;stroke-linejoin:round;stroke-miterlimit:4;stroke-opacity:1;stroke-dasharray:none"
           id="path3181-3"
           sodipodi:cx="501.30591"
           sodipodi:cy="286.92737"
           sodipodi:rx="195.86008"
           sodipodi:ry="65.141449"
           d="m 697.16599,286.92737 c 0,35.97663 -87.68955,65.14145 -195.86008,65.14145 -108.17054,0 -195.86008,-29.16482 -195.86008,-65.14145 0,-35.97663 87.68954,-65.14145 195.86008,-65.14145 108.17053,0 195.86008,29.16482 195.86008,65.14145 z"
           transform="translate(-1.3071862,32.422571)" />
        <path
           sodipodi:type="arc"
           style="fill:#000000;fill-opacity:1;stroke:#b3b3b3;stroke-width:9.69920826;stroke-linecap:round;stroke-linejoin:round;stroke-miterlimit:4;stroke-opacity:1;stroke-dasharray:none"
           id="path3183-2"
           sodipodi:cx="498.69156"
           sodipodi:cy="291.28467"
           sodipodi:rx="92.592361"
           sodipodi:ry="33.768978"
           d="m 591.28392,291.28467 c 0,18.65009 -41.45501,33.76898 -92.59236,33.76898 -51.13735,0 -92.59236,-15.11889 -92.59236,-33.76898 0,-18.65009 41.45501,-33.76898 92.59236,-33.76898 51.13735,0 92.59236,15.11889 92.59236,33.76898 z"
           transform="translate(-1,1)" />
        <path
           style="fill:#000000;fill-opacity:1;stroke:#b3b3b3;stroke-width:9.69920826;stroke-linecap:round;stroke-linejoin:round;stroke-miterlimit:4;stroke-opacity:1;stroke-dasharray:none"
           d="m 404.35626,291.0668 c 4.8489,44.21023 179.46362,48.14403 185.62046,0 l -5.22874,26.57946 c -11.87396,22.85599 -149.51164,29.4794 -172.98433,-0.43573 l -7.40739,-26.14373 z"
           id="rect3185-2"
           sodipodi:nodetypes="ccccc"
           inkscape:connector-curvature="0" />
        <path
           style="fill:#000000;fill-opacity:0.38666669;stroke:#b3b3b3;stroke-width:9.69920826;stroke-linecap:round;stroke-linejoin:round;stroke-miterlimit:4;stroke-opacity:1;stroke-dasharray:none"
           d="m 395.38948,139.54404 68.95408,0 -7.35292,-38.67093 37.09141,-22.766826 39.70578,22.766826 -10.40302,38.67093 60.67522,0 -0.10893,85.9475 -44.989,0 11.54682,59.15017 -115.46812,0 13.28972,-59.15017 -52.17851,0 -0.76253,-85.9475 z"
           id="path3191-1"
           sodipodi:nodetypes="cccccccccccccc"
           inkscape:connector-curvature="0" />
        <path
           style="fill:#000000;fill-opacity:1;stroke:#b3b3b3;stroke-width:9.69920826;stroke-linecap:round;stroke-linejoin:round;stroke-miterlimit:4;stroke-opacity:1;stroke-dasharray:none"
           d="m 523.31022,139.21534 60.5663,0.43573 14.05225,16.99342 -60.67523,-0.3268 -13.94332,-17.10235 z"
           id="rect3211-6"
           sodipodi:nodetypes="ccccc"
           inkscape:connector-curvature="0" />
        <path
           style="fill:#000000;fill-opacity:1;stroke:#b3b3b3;stroke-width:9.69920826;stroke-linecap:round;stroke-linejoin:round;stroke-miterlimit:4;stroke-opacity:1;stroke-dasharray:none"
           d="m 396.94889,139.86893 12.20041,15.68624 0.43573,86.71002 -13.07187,-16.55769 0.43573,-85.83857 z"
           id="rect3193-8"
           sodipodi:nodetypes="ccccc"
           inkscape:connector-curvature="0" />
        <path
           style="fill:#000000;fill-opacity:1;stroke:#b3b3b3;stroke-width:9.69920826;stroke-linecap:round;stroke-linejoin:round;stroke-miterlimit:4;stroke-opacity:1;stroke-dasharray:none"
           d="m 396.40421,139.65107 67.42903,0.10893 14.27011,16.5577 -68.08262,-0.32681 -13.61652,-16.33982 z"
           id="rect3196-5"
           sodipodi:nodetypes="ccccc"
           inkscape:connector-curvature="0" />
        <path
           style="fill:#000000;fill-opacity:1;stroke:#b3b3b3;stroke-width:9.69920826;stroke-linecap:round;stroke-linejoin:round;stroke-miterlimit:4;stroke-opacity:1;stroke-dasharray:none"
           d="m 448.36488,225.48963 13.72545,16.77556 -13.28973,59.25909 -13.50758,-17.64701 13.07186,-58.38764 z"
           id="rect3199-7"
           sodipodi:nodetypes="ccccc"
           inkscape:connector-curvature="0" />
        <path
           style="fill:#000000;fill-opacity:1;stroke:#b3b3b3;stroke-width:9.69920826;stroke-linecap:round;stroke-linejoin:round;stroke-miterlimit:4;stroke-opacity:1;stroke-dasharray:none"
           d="m 457.18837,101.52479 13.72546,16.44877 7.08059,38.45305 -13.72546,-16.55769 -7.08059,-38.34413 z"
           id="rect3202-6"
           sodipodi:nodetypes="ccccc"
           inkscape:connector-curvature="0" />
        <path
           style="fill:#000000;fill-opacity:1;stroke:#b3b3b3;stroke-width:9.69920826;stroke-linecap:round;stroke-linejoin:round;stroke-miterlimit:4;stroke-opacity:1;stroke-dasharray:none"
           d="m 456.8616,100.98013 37.2548,-22.875758 13.39866,16.88449 -36.49228,22.548958 -14.16118,-16.55769 z"
           id="rect3205-1"
           sodipodi:nodetypes="ccccc"
           inkscape:connector-curvature="0" />
        <path
           style="fill:#000000;fill-opacity:1;stroke:#b3b3b3;stroke-width:9.69920826;stroke-linecap:round;stroke-linejoin:round;stroke-miterlimit:4;stroke-opacity:1;stroke-dasharray:none"
           d="M 494.33427,78.213304 533.65879,100.65333 547.16638,117.4289 507.624,95.206729 494.33427,78.213304 z"
           id="rect3208-8"
           sodipodi:nodetypes="ccccc"
           inkscape:connector-curvature="0" />
        <path
           style="fill:#000000;fill-opacity:1;stroke:#b3b3b3;stroke-width:9.69920826;stroke-linecap:round;stroke-linejoin:round;stroke-miterlimit:4;stroke-opacity:1;stroke-dasharray:none"
           d="m 409.14929,156.42663 68.95408,0 -7.35292,-38.67093 37.09141,-22.766829 39.70578,22.766829 -10.40302,38.67093 60.67522,0 -0.10893,85.9475 -44.989,0 11.54682,59.15016 -115.46812,0 13.28972,-59.15016 -52.17851,0 -0.76253,-85.9475 z"
           id="rect3188-9"
           sodipodi:nodetypes="cccccccccccccc"
           inkscape:connector-curvature="0" />
      </g>
    </g>
    <path
       inkscape:connector-curvature="0"
       style="fill:#8c008c;fill-opacity:1;stroke:#000000;stroke-width:1.5;stroke-linecap:butt;stroke-linejoin:miter;stroke-miterlimit:4;stroke-opacity:1;stroke-dasharray:none"
       d="m 205.50585,591.17701 c 7.66334,-12.3955 21.23968,-24.84766 17.59502,-34.90625 -1.26094,-3.47997 -3.41668,-4.99109 -6.125,-5 -7.47021,-0.0246 -19.45345,16.6469 -27.47195,29.26401"
       id="path3046-0-4-8-2"
       sodipodi:nodetypes="cssc" />
  </g>
</svg>
