<svg xmlns="http://www.w3.org/2000/svg" width="1054.812" height="207.225" viewBox="0 0 988.88664 194.27344">
    <g transform="matrix(1.11167 0 0 1.11164 -111.803 -114.224)" overflow="visible">
        <linearGradient id="a" gradientUnits="userSpaceOnUse" x1="187.947" y1="123.859" x2="187.947" y2="258.865">
            <stop offset="0" stop-color="#bf0000"/>
            <stop offset="1" stop-color="#8f0000"/>
        </linearGradient>
        <path d="M100.572 108.605v7.715a5.858 5.858 0 0 1 5.851 5.85 5.858 5.858 0 0 1-5.851 5.852v7.715a5.858 5.858 0 0 1 5.851 5.85 5.858 5.858 0 0 1-5.851 5.852v7.715a5.859 5.859 0 0 1 5.851 5.854 5.859 5.859 0 0 1-5.851 5.854v7.715a5.856 5.856 0 0 1 5.851 5.85 5.858 5.858 0 0 1-5.851 5.852v7.715a5.856 5.856 0 0 1 5.851 5.85 5.858 5.858 0 0 1-5.851 5.852v7.715a5.856 5.856 0 0 1 5.851 5.85 5.858 5.858 0 0 1-5.851 5.852v7.715a5.856 5.856 0 0 1 5.851 5.85 5.858 5.858 0 0 1-5.851 5.852v7.715a5.856 5.856 0 0 1 5.851 5.85 5.858 5.858 0 0 1-5.851 5.852v7.719a5.89 5.89 0 0 1 4.138 1.713 5.892 5.892 0 0 1 1.713 4.137h7.715a5.856 5.856 0 0 1 5.851-5.85 5.856 5.856 0 0 1 5.851 5.85h7.715a5.856 5.856 0 0 1 5.851-5.85 5.856 5.856 0 0 1 5.851 5.85h7.715a5.856 5.856 0 0 1 5.851-5.85 5.856 5.856 0 0 1 5.851 5.85h7.715a5.856 5.856 0 0 1 5.851-5.85 5.856 5.856 0 0 1 5.851 5.85h7.715a5.856 5.856 0 0 1 5.851-5.85 5.856 5.856 0 0 1 5.851 5.85h7.715a5.856 5.856 0 0 1 5.851-5.85 5.856 5.856 0 0 1 5.851 5.85h7.715a5.856 5.856 0 0 1 5.851-5.85 5.856 5.856 0 0 1 5.851 5.85h7.715a5.856 5.856 0 0 1 5.851-5.85 5.856 5.856 0 0 1 5.851 5.85h7.719c0-1.541.625-3.049 1.715-4.137a5.883 5.883 0 0 1 4.137-1.713v-7.715a5.858 5.858 0 0 1-5.852-5.852 5.857 5.857 0 0 1 5.852-5.85v-7.715a5.858 5.858 0 0 1-5.852-5.852 5.857 5.857 0 0 1 5.852-5.85v-7.715a5.858 5.858 0 0 1-5.852-5.852 5.857 5.857 0 0 1 5.852-5.85V205.7a5.858 5.858 0 0 1-5.852-5.852 5.857 5.857 0 0 1 5.852-5.85v-7.715a5.858 5.858 0 0 1-5.852-5.852 5.857 5.857 0 0 1 5.852-5.85v-7.715a5.859 5.859 0 0 1-5.852-5.854 5.859 5.859 0 0 1 5.852-5.854v-7.715a5.858 5.858 0 0 1-5.852-5.852 5.858 5.858 0 0 1 5.852-5.85v-7.715a5.858 5.858 0 0 1-5.852-5.852 5.858 5.858 0 0 1 5.852-5.85v-7.719a5.892 5.892 0 0 1-4.137-1.713 5.893 5.893 0 0 1-1.715-4.139h-7.715a5.858 5.858 0 0 1-5.851 5.852 5.858 5.858 0 0 1-5.851-5.852h-7.715a5.858 5.858 0 0 1-5.851 5.852 5.858 5.858 0 0 1-5.851-5.852h-7.715a5.858 5.858 0 0 1-5.851 5.852 5.858 5.858 0 0 1-5.851-5.852h-7.715a5.858 5.858 0 0 1-5.851 5.852 5.858 5.858 0 0 1-5.851-5.852h-7.715a5.858 5.858 0 0 1-5.851 5.852 5.858 5.858 0 0 1-5.851-5.852h-7.715a5.858 5.858 0 0 1-5.851 5.852 5.858 5.858 0 0 1-5.851-5.852h-7.715a5.858 5.858 0 0 1-5.851 5.852 5.858 5.858 0 0 1-5.851-5.852h-7.715a5.858 5.858 0 0 1-5.851 5.852 5.858 5.858 0 0 1-5.851-5.852h-7.719a5.9 5.9 0 0 1-1.713 4.139 5.9 5.9 0 0 1-4.138 1.713z" fill="url(#a)"/>
        <path d="M249.444 172.681h-87.205l4.551-21.293h53.15l4.876-22.918h-76.394l-24.056 113.454h23.081l10.563-49.576h55.361l-48.105 47.625 8.452 14.953c3.9-2.6 10.239-2.926 14.628-2.926 7.803 0 15.442 2.602 23.404 2.602 7.301 0 14.775-.488 26.967-6.34l4.26-19.992c-8.291 3.412-20.558 6.664-31.227 6.664-4.386 0-8.45-.975-12.676-1.625l46.631-45.348 3.739-15.28z" fill="#fff"/>
    </g>
    <path d="M216.761 14.703h90.875v18.082h-68.774v56.41h63.829v18.082h-63.83v76.347h-22.1V14.703zm117.612 47.601h21.637v121.32h-21.637V62.304zm10.51-20.555q-5.874 0-9.737-3.864-3.555-3.71-3.555-9.582 0-5.718 3.864-9.737 4.018-4.018 9.89-4.018 13.447 0 13.447 13.755.309 5.873-3.555 9.582-4.018 3.864-10.355 3.864zm50.073-36.01h21.791v177.885h-21.79V5.74zm49.919 119.466q0-28.283 15.3-46.52 15.765-19.009 41.883-19.009 26.428 0 39.565 20.092 10.354 15.454 10.354 36.937 0 6.954-1.081 10.2h-85.002q.464 21.328 12.518 32.455 10.973 9.737 28.746 9.737 19.32 0 34.001-6.182l3.71 15.764q-16.537 7.727-40.338 7.727-27.664 0-43.892-17-15.764-16.537-15.764-44.201zm85.62-14.064q.31-13.291-5.873-22.873-8.036-12.519-24.573-12.519-15.3 0-24.728 11.9-7.418 9.892-9.273 23.492h64.447zm37.865 59.656l93.656-137.085v-.618h-85.62V14.703H690.3v13.445l-93.193 136.467v.618h94.584v18.391H568.36v-12.827zM721.363 62.304H743v121.32h-21.637V62.304zm10.51-20.555q-5.874 0-9.737-3.864-3.555-3.71-3.555-9.582 0-5.718 3.864-9.737 4.018-4.018 9.89-4.018 13.447 0 13.447 13.755.309 5.873-3.555 9.582-4.018 3.864-10.355 3.864zm50.073-36.01h21.791v177.885h-21.791V5.74zm60.584 0h21.79v177.885h-21.79V5.74zm49.918 145.894q0-22.1 18.855-33.537 19.01-11.746 54.092-11.437v-2.627q0-28.128-27.51-28.128-17.618 0-31.682 9.118L900.95 70.34q17-10.664 40.182-10.664 46.056 0 46.056 49.765v45.128q0 17.464 1.7 29.055h-19.783l-2.009-15.3h-.463q-13.137 18.082-37.092 18.082-17.155 0-27.664-10.818-9.428-9.891-9.428-23.955zm22.1-2.628q0 21.019 20.71 21.019 22.1 0 29.674-20.091.927-4.637.927-6.955v-21.173q-51.31-.464-51.31 27.2z" style="line-height:125%" fill="#b00"/>
</svg>
