<?xml version="1.0" encoding="utf-8"?>
<!-- Generator: Adobe Illustrator 16.0.0, SVG Export Plug-In . SVG Version: 6.00 Build 0)  -->
<!DOCTYPE svg PUBLIC "-//W3C//DTD SVG 1.1//EN" "http://www.w3.org/Graphics/SVG/1.1/DTD/svg11.dtd">
<svg version="1.1" xmlns="http://www.w3.org/2000/svg" xmlns:xlink="http://www.w3.org/1999/xlink" x="0px" y="0px" width="16px"
	 height="16px" viewBox="0 0 16 16" enable-background="new 0 0 16 16" xml:space="preserve">
<g id="Layer_1">
	<g opacity="0.1">
		<g>
			<path d="M2.686,5.14L1,12.892h1.012l0.29-1.511h1.535l0.291,1.511h1.034L3.511,5.14H2.686z M2.453,10.578
				c0.244-1.301,0.5-2.604,0.628-3.927c0.139,1.313,0.372,2.626,0.604,3.927H2.453z"/>
			<path d="M6.447,7.011c0-0.558,0.349-1.034,0.941-1.034c0.326,0,0.593,0.151,0.848,0.348l0.012-1.022
				C7.865,5.104,7.609,5.046,7.179,5.046c-1.186,0-1.755,0.873-1.755,1.977c0,2.068,2.173,2.313,2.173,3.916
				c0,0.57-0.302,1.059-0.918,1.059c-0.395,0-0.697-0.175-1.011-0.406v1.033c0.349,0.268,0.708,0.372,1.139,0.372
				c1.162,0,1.801-0.976,1.801-2.058C8.608,8.801,6.447,8.44,6.447,7.011z"/>
			<path d="M9.139,9.149c0,1.593,0.279,3.847,2.348,3.847c0.36,0,0.535-0.035,0.849-0.221v-0.953
				c-0.209,0.105-0.383,0.151-0.616,0.151c-1.395,0-1.476-1.871-1.476-2.883c0-0.987,0.012-3.08,1.418-3.08
				c0.244,0,0.465,0.082,0.674,0.198V5.267c-0.314-0.174-0.511-0.231-0.872-0.231C9.336,5.035,9.139,7.558,9.139,9.149z"/>
			<rect x="12.981" y="5.14" width="1.046" height="7.752"/>
			<rect x="14.954" y="5.14" width="1.046" height="7.752"/>
		</g>
	</g>
	<g>
		<path fill="#686868" d="M3.127,11.892l-0.291-1.511H1.302l-0.29,1.511H0L1.686,4.14h0.825l1.65,7.752H3.127z M2.685,9.578
			C2.453,8.277,2.22,6.964,2.081,5.651C1.953,6.975,1.697,8.277,1.453,9.578H2.685z"/>
		<path fill="#686868" d="M7.236,5.324C6.981,5.128,6.714,4.977,6.388,4.977c-0.593,0-0.941,0.477-0.941,1.034
			c0,1.43,2.162,1.79,2.162,3.928c0,1.082-0.639,2.058-1.801,2.058c-0.43,0-0.79-0.104-1.139-0.372v-1.033
			c0.313,0.231,0.616,0.406,1.011,0.406c0.616,0,0.918-0.488,0.918-1.059c0-1.604-2.173-1.848-2.173-3.916
			c0-1.104,0.569-1.977,1.755-1.977c0.43,0,0.686,0.059,1.069,0.256L7.236,5.324z"/>
		<path fill="#686868" d="M11.335,11.775c-0.314,0.186-0.488,0.221-0.849,0.221c-2.069,0-2.348-2.254-2.348-3.847
			c0-1.592,0.197-4.114,2.324-4.114c0.361,0,0.558,0.058,0.872,0.231v0.942c-0.209-0.116-0.43-0.198-0.674-0.198
			c-1.406,0-1.418,2.093-1.418,3.08c0,1.012,0.081,2.883,1.476,2.883c0.233,0,0.407-0.046,0.616-0.151V11.775z"/>
		<path fill="#686868" d="M11.981,11.892V4.14h1.046v7.752H11.981z"/>
		<path fill="#686868" d="M13.954,11.892V4.14H15v7.752H13.954z"/>
	</g>
</g>
<g id="Layer_2">
</g>
</svg>
