<?xml version="1.0" encoding="utf-8"?>
<!-- Generator: Adobe Illustrator 16.0.0, SVG Export Plug-In . SVG Version: 6.00 Build 0)  -->
<!DOCTYPE svg PUBLIC "-//W3C//DTD SVG 1.1//EN" "http://www.w3.org/Graphics/SVG/1.1/DTD/svg11.dtd">
<svg version="1.1" xmlns="http://www.w3.org/2000/svg" xmlns:xlink="http://www.w3.org/1999/xlink" x="0px" y="0px" width="16px"
	 height="16px" viewBox="0 0 16 16" enable-background="new 0 0 16 16" xml:space="preserve">
<g id="Layer_1">
	<path opacity="0.1" d="M14.537,8.502c0-0.298-0.029-0.588-0.071-0.874L15.9,6.297l-1.787-3.092l-1.878,0.578
		c-0.452-0.354-0.956-0.646-1.5-0.86L10.295,1L6.724,1.002L6.28,2.944C5.752,3.159,5.264,3.447,4.824,3.795l-1.915-0.59L1.123,6.299
		l1.478,1.372C2.563,7.943,2.537,8.219,2.537,8.502c0,0.282,0.026,0.559,0.064,0.83l-1.479,1.373l1.786,3.094l1.915-0.59
		c0.44,0.348,0.929,0.636,1.457,0.851l0.444,1.942h3.572l0.439-1.922c0.544-0.214,1.048-0.505,1.5-0.86l1.878,0.579l1.785-3.094
		l-1.433-1.33C14.508,9.089,14.537,8.799,14.537,8.502z"/>
	<ellipse fill="#FFFFFF" cx="7.487" cy="7.5" rx="5.487" ry="5.5"/>
	<path fill="none" d="M3.025,7.5c0,2.482,2.019,4.5,4.5,4.5V3C5.044,3,3.025,5.018,3.025,7.5z"/>
	<path fill="#686868" d="M3.025,7.5c0-2.482,2.019-4.5,4.5-4.5v-3.001L5.712,0L5.269,1.942C4.741,2.157,4.252,2.445,3.812,2.793
		l-1.915-0.59L0.111,5.297l1.478,1.372C1.552,6.941,1.525,7.217,1.525,7.5c0,0.282,0.026,0.559,0.064,0.83L0.111,9.703l1.786,3.094
		l1.915-0.59c0.44,0.348,0.929,0.636,1.457,0.851L5.712,15h1.813v-3C5.044,12,3.025,9.982,3.025,7.5z"/>
	<path fill="#4C4C4C" d="M9.724,13.078c0.544-0.214,1.048-0.505,1.5-0.86l1.878,0.579l1.785-3.094l-1.433-1.33
		c0.042-0.286,0.07-0.576,0.07-0.873c0-0.298-0.029-0.588-0.071-0.874l1.434-1.331l-1.787-3.092l-1.878,0.578
		c-0.452-0.354-0.956-0.646-1.5-0.86l-0.44-1.923L7.525-0.001V3c2.482,0,4.5,2.018,4.5,4.5s-2.018,4.5-4.5,4.5v3h1.759L9.724,13.078
		z"/>
	<polygon fill="none" points="6.915,7.966 7.525,7.966 7.525,6.018 7.516,5.987 	"/>
	<polygon fill="#2CCE2C" points="6.915,7.966 7.516,5.987 7.525,6.018 7.525,4.561 6.61,4.561 4.542,10.063 6.278,10.063 
		6.546,9.154 7.525,9.154 7.525,7.966 	"/>
	<polygon fill="#FFFFFF" points="8.124,7.966 7.525,6.018 7.525,7.966 	"/>
	<polygon fill="#25B725" points="8.751,10.063 10.532,10.063 8.464,4.561 7.525,4.561 7.525,6.018 8.124,7.966 7.525,7.966 
		7.525,9.154 8.476,9.154 	"/>
</g>
<g id="Layer_2">
</g>
</svg>
