<?xml version="1.0" encoding="utf-8"?>
<!-- Generator: Adobe Illustrator 16.0.0, SVG Export Plug-In . SVG Version: 6.00 Build 0)  -->
<!DOCTYPE svg PUBLIC "-//W3C//DTD SVG 1.1//EN" "http://www.w3.org/Graphics/SVG/1.1/DTD/svg11.dtd">
<svg version="1.1" xmlns="http://www.w3.org/2000/svg" xmlns:xlink="http://www.w3.org/1999/xlink" x="0px" y="0px" width="16px"
	 height="16px" viewBox="0 0 16 16" enable-background="new 0 0 16 16" xml:space="preserve">
<g id="Layer_1">
	<path opacity="0.1" d="M2.655,1.819c-0.617,0-0.628,1.301-0.639,1.69C1.995,3.847,1.995,4.176,1.995,4.514
		c0,0.349,0,0.706,0.021,1.055c0.011,0.4,0.021,1.629,0.639,1.629s0.629-1.238,0.641-1.629C3.317,5.22,3.317,4.862,3.317,4.514
		c0-0.338,0-0.667-0.021-1.004C3.284,3.109,3.284,1.819,2.655,1.819z"/>
	<path opacity="0.1" d="M2.656,9.827c-0.617,0-0.63,1.3-0.64,1.688c-0.021,0.338-0.021,0.666-0.021,1.006
		c0,0.348,0,0.705,0.021,1.054c0.01,0.4,0.022,1.629,0.64,1.629c0.618,0,0.628-1.238,0.64-1.629
		c0.021-0.349,0.021-0.706,0.021-1.054c0-0.34,0-0.668-0.021-1.006C3.284,11.117,3.284,9.827,2.656,9.827z"/>
	<path opacity="0.1" d="M2.667,1C0.882,1,1.003,3.592,1.003,4.729c0,1.076,0.021,3.269,1.664,3.269c0.629,0,1.068-0.317,1.312-0.84
		c0.375-0.8,0.353-2.081,0.353-2.96C4.331,3.12,4.298,1,2.667,1z M3.296,5.568C3.284,5.959,3.272,7.197,2.655,7.197
		S2.027,5.969,2.017,5.568C1.995,5.22,1.995,4.862,1.995,4.514c0-0.338,0-0.667,0.021-1.004c0.011-0.39,0.021-1.69,0.639-1.69
		c0.629,0,0.629,1.29,0.641,1.69c0.021,0.337,0.021,0.666,0.021,1.004C3.317,4.862,3.317,5.22,3.296,5.568z"/>
	<polygon opacity="0.1" points="5.304,1.87 6.031,1.87 6.031,7.916 6.979,7.916 6.979,1.082 5.304,1.082 	"/>
	<path opacity="0.1" d="M10.144,1C8.358,1,8.48,3.592,8.48,4.729c0,1.076,0.021,3.269,1.663,3.269c0.629,0,1.069-0.317,1.313-0.84
		c0.374-0.8,0.353-2.081,0.353-2.96C11.809,3.12,11.776,1,10.144,1z"/>
	<path opacity="0.1" d="M14.336,1c-1.786,0-1.665,2.592-1.665,3.729c0,1.076,0.022,3.269,1.665,3.269
		c0.628,0,1.068-0.317,1.312-0.84C16.022,6.357,16,5.076,16,4.197C16,3.12,15.966,1,14.336,1z"/>
	<path opacity="0.1" d="M2.667,9.007c-1.785,0-1.664,2.592-1.664,3.729c0,1.075,0.021,3.268,1.664,3.268
		c0.629,0,1.068-0.317,1.313-0.84c0.374-0.799,0.352-2.08,0.352-2.96C4.331,11.127,4.298,9.007,2.667,9.007z M3.296,13.575
		c-0.012,0.391-0.021,1.629-0.64,1.629c-0.617,0-0.63-1.229-0.64-1.629c-0.021-0.349-0.021-0.706-0.021-1.054
		c0-0.34,0-0.668,0.021-1.006c0.01-0.389,0.022-1.688,0.64-1.688c0.628,0,0.628,1.29,0.64,1.688
		c0.021,0.338,0.021,0.666,0.021,1.006C3.317,12.869,3.317,13.227,3.296,13.575z"/>
	<path opacity="0.1" d="M6.857,9.007c-1.786,0-1.665,2.592-1.665,3.729c0,1.075,0.021,3.268,1.665,3.268
		c0.628,0,1.069-0.317,1.312-0.84c0.375-0.799,0.353-2.08,0.353-2.96C8.521,11.127,8.487,9.007,6.857,9.007z"/>
	<path opacity="0.1" d="M11.049,9.007c-1.786,0-1.665,2.592-1.665,3.729c0,1.075,0.022,3.268,1.665,3.268
		c0.627,0,1.068-0.317,1.312-0.84c0.374-0.799,0.352-2.08,0.352-2.96C12.712,11.127,12.679,9.007,11.049,9.007z"/>
	<polygon opacity="0.1" points="13.684,9.088 13.684,9.877 14.41,9.877 14.41,15.922 15.36,15.922 15.36,9.088 	"/>
	<path fill="none" d="M1.655,0.819c-0.617,0-0.628,1.301-0.639,1.69C0.994,2.847,0.994,3.176,0.994,3.514
		c0,0.349,0,0.706,0.022,1.055c0.01,0.4,0.021,1.629,0.639,1.629s0.628-1.238,0.64-1.629C2.316,4.22,2.316,3.862,2.316,3.514
		c0-0.338,0-0.667-0.022-1.004C2.283,2.109,2.283,0.819,1.655,0.819z"/>
	<path fill="none" d="M1.655,8.827c-0.617,0-0.629,1.3-0.64,1.688c-0.022,0.338-0.022,0.666-0.022,1.006
		c0,0.348,0,0.705,0.022,1.054c0.01,0.4,0.022,1.629,0.64,1.629c0.618,0,0.628-1.238,0.639-1.629
		c0.022-0.349,0.022-0.706,0.022-1.054c0-0.34,0-0.668-0.022-1.006C2.283,10.117,2.283,8.827,1.655,8.827z"/>
	<path fill="#686868" d="M1.666,0C-0.12,0,0.001,2.592,0.001,3.729c0,1.076,0.022,3.269,1.665,3.269c0.628,0,1.069-0.317,1.312-0.84
		c0.375-0.8,0.353-2.081,0.353-2.96C3.33,2.12,3.297,0,1.666,0z M2.294,4.568c-0.011,0.391-0.022,1.629-0.64,1.629
		S1.026,4.969,1.016,4.568C0.994,4.22,0.994,3.862,0.994,3.514c0-0.338,0-0.667,0.022-1.004c0.01-0.39,0.021-1.69,0.639-1.69
		c0.628,0,0.628,1.29,0.64,1.69c0.022,0.337,0.022,0.666,0.022,1.004C2.316,3.862,2.316,4.22,2.294,4.568z"/>
	<polygon fill="#686868" points="4.303,0.87 5.03,0.87 5.03,6.916 5.978,6.916 5.978,0.082 4.303,0.082 	"/>
	<path fill="#686868" d="M9.143,0C7.358,0,7.479,2.592,7.479,3.729c0,1.076,0.021,3.269,1.663,3.269c0.629,0,1.069-0.317,1.313-0.84
		c0.374-0.8,0.353-2.081,0.353-2.96C10.808,2.12,10.775,0,9.143,0z M9.771,4.568C9.76,4.959,9.749,6.197,9.132,6.197
		c-0.617,0-0.628-1.229-0.639-1.629C8.471,4.22,8.471,3.862,8.471,3.514c0-0.338,0-0.667,0.022-1.004
		c0.011-0.39,0.022-1.69,0.639-1.69c0.628,0,0.628,1.29,0.64,1.69c0.022,0.337,0.022,0.666,0.022,1.004
		C9.794,3.862,9.794,4.22,9.771,4.568z"/>
	<path fill="#686868" d="M13.335,0c-1.786,0-1.665,2.592-1.665,3.729c0,1.076,0.022,3.269,1.665,3.269
		c0.628,0,1.068-0.317,1.312-0.84c0.375-0.8,0.353-2.081,0.353-2.96C14.999,2.12,14.965,0,13.335,0z M13.963,4.568
		c-0.012,0.391-0.021,1.629-0.641,1.629c-0.615,0-0.628-1.229-0.64-1.629C12.66,4.22,12.66,3.862,12.66,3.514
		c0-0.338,0-0.667,0.022-1.004c0.012-0.39,0.024-1.69,0.64-1.69c0.629,0,0.629,1.29,0.641,1.69c0.022,0.337,0.022,0.666,0.022,1.004
		C13.985,3.862,13.985,4.22,13.963,4.568z"/>
	<path fill="#686868" d="M1.666,8.007c-1.785,0-1.665,2.592-1.665,3.729c0,1.075,0.022,3.268,1.665,3.268
		c0.628,0,1.069-0.317,1.312-0.84c0.375-0.799,0.353-2.08,0.353-2.96C3.331,10.127,3.297,8.007,1.666,8.007z M2.294,12.575
		c-0.011,0.391-0.021,1.629-0.639,1.629c-0.617,0-0.629-1.229-0.64-1.629c-0.022-0.349-0.022-0.706-0.022-1.054
		c0-0.34,0-0.668,0.022-1.006c0.01-0.389,0.022-1.688,0.64-1.688c0.628,0,0.628,1.29,0.639,1.688
		c0.022,0.338,0.022,0.666,0.022,1.006C2.316,11.869,2.316,12.227,2.294,12.575z"/>
	<path fill="#686868" d="M5.856,8.007c-1.787,0-1.665,2.592-1.665,3.729c0,1.075,0.021,3.268,1.665,3.268
		c0.628,0,1.069-0.317,1.312-0.84c0.375-0.799,0.353-2.08,0.353-2.96C7.521,10.127,7.487,8.007,5.856,8.007z M6.484,12.575
		c-0.011,0.391-0.021,1.629-0.639,1.629s-0.628-1.229-0.641-1.629c-0.022-0.349-0.022-0.706-0.022-1.054c0-0.34,0-0.668,0.022-1.006
		c0.012-0.389,0.023-1.688,0.641-1.688c0.628,0,0.628,1.29,0.639,1.688c0.022,0.338,0.022,0.666,0.022,1.006
		C6.506,11.869,6.506,12.227,6.484,12.575z"/>
	<path fill="#686868" d="M10.048,8.007c-1.786,0-1.665,2.592-1.665,3.729c0,1.075,0.022,3.268,1.665,3.268
		c0.627,0,1.068-0.317,1.312-0.84c0.374-0.799,0.352-2.08,0.352-2.96C11.711,10.127,11.678,8.007,10.048,8.007z M10.675,12.575
		c-0.01,0.391-0.021,1.629-0.638,1.629s-0.629-1.229-0.641-1.629c-0.021-0.349-0.021-0.706-0.021-1.054c0-0.34,0-0.668,0.021-1.006
		c0.012-0.389,0.023-1.688,0.641-1.688c0.628,0,0.628,1.29,0.638,1.688c0.022,0.338,0.022,0.666,0.022,1.006
		C10.697,11.869,10.697,12.227,10.675,12.575z"/>
	<polygon fill="#686868" points="12.683,8.088 12.683,8.877 13.409,8.877 13.409,14.922 14.359,14.922 14.359,8.088 	"/>
</g>
<g id="Layer_2">
</g>
</svg>
