<?xml version="1.0" encoding="utf-8"?>
<!-- Generator: Adobe Illustrator 16.0.0, SVG Export Plug-In . SVG Version: 6.00 Build 0)  -->
<!DOCTYPE svg PUBLIC "-//W3C//DTD SVG 1.1//EN" "http://www.w3.org/Graphics/SVG/1.1/DTD/svg11.dtd">
<svg version="1.1" xmlns="http://www.w3.org/2000/svg" xmlns:xlink="http://www.w3.org/1999/xlink" x="0px" y="0px" width="16px"
	 height="16px" viewBox="0 0 16 16" enable-background="new 0 0 16 16" xml:space="preserve">
<g id="Layer_1">
	<path opacity="0.1" d="M15.653,3.258l0.003-0.008L14.68,2.273L8.864,4H4C3.45,4,3,4.45,3,5H2C1.45,5,1,5.45,1,6v7.436L0.359,13.73
		v0.035l0.922,0.922c0.011,0.011,0.021,0.021,0.031,0.031l0.039,0.039l0.016-0.002C1.541,14.901,1.757,15,2,15h13c0.55,0,1-0.45,1-1
		v-1V6V4C16,3.702,15.861,3.441,15.653,3.258z"/>
	<path fill="#E5A80E" d="M14,2H6.667L6.555,1.832C6.25,1.374,5.55,1,5,1H1C0.45,1,0,1.45,0,2v1v2v6c0,0.55,0.45,1,1,1h13
		c0.55,0,1-0.45,1-1V3C15,2.45,14.55,2,14,2z"/>
	<path fill="#FFBF0D" d="M14,3H9C8.45,3,7.75,3.374,7.445,3.832L7.333,4H1C0.45,4,0,4.45,0,5v8c0,0.55,0.45,1,1,1h13
		c0.55,0,1-0.45,1-1V7V5V4C15,3.45,14.55,3,14,3z"/>
	<path fill="#FFFFFF" d="M7.255,5.089c0.135-0.272,0.355-0.272,0.49,0L8.624,6.87c0.134,0.272,0.491,0.531,0.792,0.576l1.965,0.286
		c0.302,0.043,0.37,0.254,0.151,0.466L10.11,9.584c-0.218,0.212-0.354,0.632-0.304,0.932l0.338,1.957
		c0.05,0.299-0.128,0.43-0.397,0.287L7.99,11.835c-0.269-0.142-0.712-0.142-0.98,0L5.253,12.76c-0.27,0.143-0.447,0.012-0.397-0.287
		l0.338-1.957c0.05-0.3-0.086-0.72-0.304-0.932L3.468,8.198c-0.219-0.212-0.15-0.423,0.151-0.466l1.965-0.286
		C5.885,7.401,6.242,7.143,6.376,6.87L7.255,5.089z"/>
</g>
<g id="Layer_2">
</g>
</svg>
