<?xml version="1.0" encoding="utf-8"?>
<!-- Generator: Adobe Illustrator 16.0.0, SVG Export Plug-In . SVG Version: 6.00 Build 0)  -->
<!DOCTYPE svg PUBLIC "-//W3C//DTD SVG 1.1//EN" "http://www.w3.org/Graphics/SVG/1.1/DTD/svg11.dtd">
<svg version="1.1" xmlns="http://www.w3.org/2000/svg" xmlns:xlink="http://www.w3.org/1999/xlink" x="0px" y="0px" width="16px"
	 height="16px" viewBox="0 0 16 16" enable-background="new 0 0 16 16" xml:space="preserve">
<g id="Layer_1">
	<path opacity="0.1" d="M8.072,1.551c0.243-0.493,0.642-0.493,0.885,0l1.588,3.216c0.243,0.493,0.888,0.961,1.432,1.04l3.549,0.517
		c0.544,0.079,0.667,0.458,0.273,0.842L13.23,9.668c-0.394,0.384-0.64,1.142-0.547,1.684l0.607,3.534
		c0.093,0.542-0.229,0.776-0.716,0.521l-3.176-1.67c-0.486-0.256-1.283-0.256-1.77,0l-3.176,1.67
		c-0.486,0.256-0.809,0.021-0.716-0.521l0.607-3.534c0.093-0.542-0.153-1.3-0.547-1.684L1.23,7.165
		C0.837,6.781,0.96,6.402,1.504,6.323l3.549-0.517c0.544-0.079,1.188-0.547,1.432-1.04L8.072,1.551z"/>
	<path fill="#FFBF0D" d="M9.545,4.076L7.957,0.86C7.836,0.613,7.675,0.49,7.515,0.49S7.193,0.613,7.072,0.86L5.484,4.076
		c-0.243,0.493-0.888,0.961-1.432,1.04L0.504,5.633C-0.04,5.712-0.163,6.091,0.23,6.475l2.568,2.503
		c0.394,0.384,0.64,1.142,0.547,1.684l-0.314,1.827l7.509-7.509C10.124,4.789,9.725,4.44,9.545,4.076z"/>
	<path fill="#FFBF0D" d="M3.454,14.716l3.176-1.67c0.243-0.128,0.563-0.192,0.885-0.192s0.642,0.064,0.885,0.192l3.176,1.67
		c0.486,0.256,0.809,0.021,0.716-0.521l-0.607-3.534c-0.093-0.542,0.153-1.3,0.547-1.684l2.568-2.503
		c0.394-0.384,0.271-0.763-0.273-0.842l-3.549-0.517c-0.142-0.021-0.29-0.069-0.437-0.137l-7.509,7.509l-0.293,1.707
		C2.646,14.737,2.968,14.972,3.454,14.716z"/>
</g>
<g id="Layer_2">
</g>
</svg>
