<?xml version="1.0" encoding="utf-8"?>
<!-- Generator: Adobe Illustrator 16.0.0, SVG Export Plug-In . SVG Version: 6.00 Build 0)  -->
<!DOCTYPE svg PUBLIC "-//W3C//DTD SVG 1.1//EN" "http://www.w3.org/Graphics/SVG/1.1/DTD/svg11.dtd">
<svg version="1.1" xmlns="http://www.w3.org/2000/svg" xmlns:xlink="http://www.w3.org/1999/xlink" x="0px" y="0px" width="16px"
	 height="16px" viewBox="0 0 16 16" enable-background="new 0 0 16 16" xml:space="preserve">
<g id="Layer_1">
	<path opacity="0.1" d="M15.707,6.418c-0.328-1.137-0.923-2.157-1.705-3.003L14.006,3.4l-1.281-1.281l-0.132,0.123
		C11.413,1.469,10.016,1,8.5,1C4.358,1,1,4.357,1,8.5c0,1.4,0.399,2.7,1.067,3.822L1.912,12.51l1.385,1.385
		c0.022,0.021,0.042,0.044,0.064,0.064l0.042,0.043l0.012,0.002c0.85,0.785,1.877,1.382,3.021,1.709C7.092,15.899,7.784,16,8.5,16
		c4.143,0,7.5-3.357,7.5-7.5C16,7.777,15.898,7.079,15.707,6.418z"/>
	<path fill="#BD2026" d="M7.5,0C3.358,0,0,3.357,0,7.5c0,2.063,0.843,3.922,2.191,5.277L12.778,2.19C11.422,0.843,9.563,0,7.5,0z"/>
	<path fill="#8D191C" d="M5.437,14.713C6.092,14.899,6.784,15,7.5,15c4.143,0,7.5-3.357,7.5-7.5c0-0.723-0.102-1.421-0.293-2.082
		c-0.358-1.241-1.037-2.341-1.929-3.228L2.191,12.777C3.082,13.674,4.188,14.356,5.437,14.713z"/>
	<path fill="#FFFFFF" d="M9.939,4.354c-0.194-0.194-0.513-0.194-0.707,0L7.543,6.043L5.854,4.354c-0.194-0.194-0.513-0.194-0.707,0
		L4.439,5.061c-0.194,0.194-0.194,0.513,0,0.707l1.689,1.689L4.439,9.146c-0.194,0.194-0.194,0.513,0,0.707l0.354,0.354l2.043-2.043
		L8.25,6.75l2.043-2.043L9.939,4.354z"/>
	<path fill="#E5E5E5" d="M8.957,7.457l1.689-1.689c0.194-0.194,0.194-0.513,0-0.707l-0.354-0.354L8.25,6.75L6.836,8.164
		l-2.043,2.043l0.354,0.354c0.194,0.194,0.513,0.194,0.707,0l1.689-1.689l1.689,1.689c0.194,0.194,0.513,0.194,0.707,0l0.707-0.707
		c0.194-0.194,0.194-0.513,0-0.707L8.957,7.457z"/>
</g>
<g id="Layer_2">
</g>
</svg>
