<?xml version="1.0" encoding="UTF-8" standalone="no"?>
<!-- Generator: Adobe Illustrator 16.0.0, SVG Export Plug-In . SVG Version: 6.00 Build 0)  -->

<svg
   xmlns:dc="http://purl.org/dc/elements/1.1/"
   xmlns:cc="http://creativecommons.org/ns#"
   xmlns:rdf="http://www.w3.org/1999/02/22-rdf-syntax-ns#"
   xmlns:svg="http://www.w3.org/2000/svg"
   xmlns="http://www.w3.org/2000/svg"
   xmlns:sodipodi="http://sodipodi.sourceforge.net/DTD/sodipodi-0.dtd"
   xmlns:inkscape="http://www.inkscape.org/namespaces/inkscape"
   version="1.1"
   x="0px"
   y="0px"
   width="16px"
   height="16px"
   viewBox="0 0 16 16"
   enable-background="new 0 0 16 16"
   xml:space="preserve"
   id="svg46"
   sodipodi:docname="close.svg"
   inkscape:export-filename="D:\src\artwork\icons\scalable default\close.png"
   inkscape:export-xdpi="2880"
   inkscape:export-ydpi="2880"
   inkscape:version="0.92.2 (5c3e80d, 2017-08-06)"><metadata
     id="metadata52"><rdf:RDF><cc:Work
         rdf:about=""><dc:format>image/svg+xml</dc:format><dc:type
           rdf:resource="http://purl.org/dc/dcmitype/StillImage" /></cc:Work></rdf:RDF></metadata><defs
     id="defs50" /><sodipodi:namedview
     pagecolor="#ffffff"
     bordercolor="#666666"
     borderopacity="1"
     objecttolerance="10"
     gridtolerance="10"
     guidetolerance="10"
     inkscape:pageopacity="0"
     inkscape:pageshadow="2"
     inkscape:window-width="1276"
     inkscape:window-height="967"
     id="namedview48"
     showgrid="false"
     inkscape:zoom="90.509668"
     inkscape:cx="12.321271"
     inkscape:cy="9.2071351"
     inkscape:window-x="363"
     inkscape:window-y="141"
     inkscape:window-maximized="0"
     inkscape:current-layer="Layer_1" /><g
     id="Layer_1"><g
       id="g3930"><path
         style="fill:#e6e6e6;stroke-width:1.88066661"
         inkscape:connector-curvature="0"
         id="path42-6"
         d="m 12.549418,9.8882742 3.176446,-3.1764459 c 0.364849,-0.3648493 0.364849,-0.9647819 0,-1.3296313 l -0.665756,-0.6657559 -3.842202,3.8422018 -2.6592627,2.6592631 -3.8422019,3.842201 0.665756,0.665756 c 0.3648493,0.36485 0.9647819,0.36485 1.3296313,0 l 3.1764459,-3.176446 3.1764454,3.176446 c 0.36485,0.36485 0.964782,0.36485 1.329632,0 l 1.329631,-1.329631 c 0.364849,-0.364849 0.364849,-0.964782 0,-1.329631 z" /><path
         style="fill:#e6e6e6;stroke-width:1.88066661"
         inkscape:connector-curvature="0"
         id="path40-5"
         d="m 14.416303,4.0705781 c -0.364849,-0.3648493 -0.964782,-0.3648493 -1.329631,0 L 9.9102261,7.247024 6.7337802,4.0705781 c -0.3648493,-0.3648493 -0.9647819,-0.3648493 -1.3296313,0 L 4.072637,5.4002094 c -0.3648493,0.3648493 -0.3648493,0.9647819 0,1.3296313 L 7.2490829,9.9062865 4.072637,13.084613 c -0.3648493,0.364849 -0.3648493,0.964782 0,1.329631 L 4.738393,15.08 8.5805948,11.237799 11.239858,8.5785359 15.082059,4.7363341 Z" /></g><g
       id="g3934"
       transform="translate(0,-0.0057145)"><path
         id="path40"
         d="m 12.547303,2.2055781 c -0.364849,-0.3648493 -0.964782,-0.3648493 -1.329631,0 L 8.0412261,5.382024 4.8647802,2.2055781 c -0.3648493,-0.3648493 -0.9647819,-0.3648493 -1.3296313,0 L 2.203637,3.5352094 c -0.3648493,0.3648493 -0.3648493,0.9647819 0,1.3296313 L 5.3800829,8.0412866 2.203637,11.219613 c -0.3648493,0.364849 -0.3648493,0.964782 0,1.329631 L 2.869393,13.215 6.7115948,9.3727985 9.3708574,6.7135359 13.213059,2.8713341 Z"
         style="fill:#4d4d4d;stroke-width:1.88066661"
         inkscape:connector-curvature="0" /><path
         id="path42"
         d="m 10.668751,8.0094882 3.176446,-3.1764459 c 0.364849,-0.3648493 0.364849,-0.9647819 0,-1.3296313 L 13.179441,2.8376551 9.3372388,6.6798569 6.6779763,9.3391195 2.8357744,13.181321 l 0.665756,0.665756 c 0.3648493,0.36485 0.9647819,0.36485 1.3296313,0 l 3.1764459,-3.176446 3.1764454,3.176446 c 0.36485,0.36485 0.964782,0.36485 1.329632,0 l 1.329631,-1.329631 c 0.364849,-0.364849 0.364849,-0.964782 0,-1.329631 z"
         style="fill:#4d4d4d;stroke-width:1.88066661"
         inkscape:connector-curvature="0" /></g></g><g
     id="Layer_2" /></svg>