<?xml version="1.0" encoding="utf-8"?>
<!-- Generator: Adobe Illustrator 16.0.0, SVG Export Plug-In . SVG Version: 6.00 Build 0)  -->
<!DOCTYPE svg PUBLIC "-//W3C//DTD SVG 1.1//EN" "http://www.w3.org/Graphics/SVG/1.1/DTD/svg11.dtd">
<svg version="1.1" xmlns="http://www.w3.org/2000/svg" xmlns:xlink="http://www.w3.org/1999/xlink" x="0px" y="0px" width="16px"
	 height="16px" viewBox="0 0 16 16" enable-background="new 0 0 16 16" xml:space="preserve">
<g id="Layer_1">
	<path opacity="0.1" d="M16,2c0-0.551-0.45-1-1-1H9v2.484C8.844,3.47,8.691,3.438,8.531,3.438C5.753,3.438,3.5,5.69,3.5,8.469
		C3.5,8.65,3.535,8.823,3.554,9H1v6c0,0.551,0.45,1,1,1h6v-2.554C8.177,13.465,8.35,13.5,8.531,13.5
		c1.011,0,1.948-0.305,2.736-0.818l3.164,3.164c0.194,0.194,0.513,0.194,0.707,0l0.707-0.707c0.194-0.194,0.194-0.513,0-0.707
		L12.7,11.286c0.544-0.805,0.862-1.773,0.862-2.817c0-0.16-0.032-0.313-0.047-0.469H16V2z"/>
	<path fill="#FFFFFF" d="M0,8v6c0,0.551,0.45,1,1,1h6V8H0z"/>
	<path fill="#FFFFFF" d="M15,7V1c0-0.551-0.45-1-1-1H8v7H15z"/>
	<g>
		<path fill="#25B725" d="M6,11.5C6,11.775,5.775,12,5.5,12h-4C1.225,12,1,11.775,1,11.5l0,0C1,11.225,1.225,11,1.5,11h4
			C5.775,11,6,11.225,6,11.5L6,11.5z"/>
	</g>
	<g>
		<path fill="#BD2026" d="M4,13.5C4,13.775,3.775,14,3.5,14h-2C1.225,14,1,13.775,1,13.5l0,0C1,13.225,1.225,13,1.5,13h2
			C3.775,13,4,13.225,4,13.5L4,13.5z"/>
	</g>
	<g>
		<path fill="#BD2026" d="M12,1.5C12,1.775,11.775,2,11.5,2h-2C9.225,2,9,1.775,9,1.5l0,0C9,1.225,9.225,1,9.5,1h2
			C11.775,1,12,1.225,12,1.5L12,1.5z"/>
	</g>
	<g>
		<path fill="#FFBF0D" d="M14,3.5C14,3.775,13.775,4,13.5,4h-4C9.225,4,9,3.775,9,3.5l0,0C9,3.225,9.225,3,9.5,3h4
			C13.775,3,14,3.225,14,3.5L14,3.5z"/>
	</g>
	<g>
		<path fill="#25B725" d="M13,5.5C13,5.775,12.775,6,12.5,6h-3C9.225,6,9,5.775,9,5.5l0,0C9,5.225,9.225,5,9.5,5h3
			C12.775,5,13,5.225,13,5.5L13,5.5z"/>
	</g>
	<g>
		<path fill="#FFBF0D" d="M8,9.5C8,9.775,7.775,10,7.5,10h-6C1.225,10,1,9.775,1,9.5l0,0C1,9.225,1.225,9,1.5,9h6
			C7.775,9,8,9.225,8,9.5L8,9.5z"/>
	</g>
	<g>
		<g>
			<g>
				<path fill="#4C4C4C" d="M14.139,14.846c-0.194,0.194-0.513,0.194-0.707,0l-3.285-3.285c-0.194-0.194-0.194-0.513,0-0.707
					l0.707-0.707c0.194-0.194,0.513-0.194,0.707,0l3.285,3.285c0.194,0.194,0.194,0.513,0,0.707L14.139,14.846z"/>
			</g>
		</g>
	</g>
	<circle fill="#686868" cx="7.531" cy="7.469" r="5.031"/>
	<path fill="#E5E5E5" d="M7.531,11.5C5.309,11.5,3.5,9.691,3.5,7.469s1.809-4.031,4.031-4.031s4.031,1.809,4.031,4.031
		S9.754,11.5,7.531,11.5z"/>
	<path fill="none" stroke="#FFFFFF" stroke-linecap="round" stroke-linejoin="round" stroke-miterlimit="10" d="M5,7.469
		c0-1.396,1.136-2.531,2.531-2.531"/>
</g>
<g id="Layer_2">
</g>
</svg>
