<?xml version="1.0" encoding="utf-8"?>
<!-- Generator: Adobe Illustrator 16.0.0, SVG Export Plug-In . SVG Version: 6.00 Build 0)  -->
<!DOCTYPE svg PUBLIC "-//W3C//DTD SVG 1.1//EN" "http://www.w3.org/Graphics/SVG/1.1/DTD/svg11.dtd">
<svg version="1.1" xmlns="http://www.w3.org/2000/svg" xmlns:xlink="http://www.w3.org/1999/xlink" x="0px" y="0px" width="16px"
	 height="16px" viewBox="0 0 16 16" enable-background="new 0 0 16 16" xml:space="preserve">
<g id="Layer_1">
	<g opacity="0.1">
		<g>
			<path d="M14.165,12.751l1.689-1.689c0.194-0.194,0.194-0.513,0-0.707l-0.354-0.354l-0.354-0.354
				c-0.194-0.194-0.513-0.194-0.707,0l-1.689,1.689l-1.689-1.689C11.043,9.629,11.02,9.621,11,9.606V3V1.5C11,1.225,10.776,1,10.5,1
				H6H1.5C1.224,1,1,1.225,1,1.5V3v11v1.5C1,15.776,1.224,16,1.5,16H6h4.5c0.036,0,0.067-0.014,0.101-0.021
				c0.162,0.035,0.336,0,0.46-0.125l1.689-1.689l1.689,1.689c0.194,0.194,0.513,0.194,0.707,0l0.707-0.707
				c0.194-0.194,0.194-0.513,0-0.707L14.165,12.751z M11.337,12.751L11,13.088v-0.674L11.337,12.751z"/>
		</g>
	</g>
	<g>
		<path fill="#FFFFFF" d="M0.5,0C0.224,0,0,0.225,0,0.5V2v11v1.5C0,14.776,0.224,15,0.5,15H5v-1.5v-12V0H0.5z"/>
	</g>
	<g>
		<path fill="#E5E5E5" d="M9.5,0H5v1.5v12V15h4.5c0.276,0,0.5-0.224,0.5-0.5V13V2V0.5C10,0.225,9.776,0,9.5,0z"/>
	</g>
	<g>
		<path fill="#1C7CD3" d="M2.5,2C2.224,2,2,2.224,2,2.5S2.224,3,2.5,3h2.458V2H2.5z"/>
	</g>
	<g>
		<path fill="#1C7CD3" d="M2.5,4C2.224,4,2,4.224,2,4.5S2.224,5,2.5,5h2.458V4H2.5z"/>
	</g>
	<g>
		<path fill="#1766BC" d="M8,2.5C8,2.224,7.776,2,7.5,2H4.958v1H7.5C7.776,3,8,2.776,8,2.5z"/>
	</g>
	<g>
		<path fill="#1766BC" d="M8,4.5C8,4.224,7.776,4,7.5,4H4.958v1H7.5C7.776,5,8,4.776,8,4.5z"/>
	</g>
	<g>
		<path fill="#686868" d="M4.25,12.5c0,0.414,0.336,0.75,0.75,0.75v-1.5C4.586,11.75,4.25,12.086,4.25,12.5z"/>
	</g>
	<g>
		<path fill="#4C4C4C" d="M5.75,12.5c0-0.414-0.336-0.75-0.75-0.75v1.5C5.414,13.25,5.75,12.914,5.75,12.5z"/>
	</g>
	<path fill="#BD2026" d="M14.147,8.647c-0.194-0.194-0.513-0.194-0.707,0l-1.689,1.689l-1.689-1.689
		c-0.194-0.194-0.513-0.194-0.707,0L8.647,9.354c-0.194,0.194-0.194,0.513,0,0.707l1.689,1.689L8.647,13.44
		c-0.194,0.194-0.194,0.513,0,0.707l0.354,0.354l2.043-2.043l1.414-1.414l2.043-2.043L14.147,8.647z"/>
	<path fill="#8D191C" d="M13.165,11.751l1.689-1.689c0.194-0.194,0.194-0.513,0-0.707l-0.354-0.354l-2.043,2.043l-1.414,1.414
		l-2.043,2.043l0.354,0.354c0.194,0.194,0.513,0.194,0.707,0l1.689-1.689l1.689,1.689c0.194,0.194,0.513,0.194,0.707,0l0.707-0.707
		c0.194-0.194,0.194-0.513,0-0.707L13.165,11.751z"/>
</g>
<g id="Layer_2">
</g>
</svg>
