<?xml version="1.0" encoding="utf-8"?>
<!-- Generator: Adobe Illustrator 16.0.0, SVG Export Plug-In . SVG Version: 6.00 Build 0)  -->
<!DOCTYPE svg PUBLIC "-//W3C//DTD SVG 1.1//EN" "http://www.w3.org/Graphics/SVG/1.1/DTD/svg11.dtd">
<svg version="1.1" xmlns="http://www.w3.org/2000/svg" xmlns:xlink="http://www.w3.org/1999/xlink" x="0px" y="0px" width="16px"
	 height="16px" viewBox="0 0 16 16" enable-background="new 0 0 16 16" xml:space="preserve">
<g id="Layer_1">
	<path opacity="0.1" d="M14.125,3.126L14,3l-2.001-2H4C3.45,1,3,1.45,3,2v12.618l-0.531-0.321l-0.167,0.416l0.991,0.991
		c0.001,0.001,0.002,0.003,0.003,0.003l0.006,0.006h0.002C3.484,15.889,3.729,16,4,16h10c0.55,0,1-0.45,1-1V4L14.125,3.126z"/>
	<path fill="#E5E5E5" d="M11,0H3C2.45,0,2,0.45,2,1v13c0,0.55,0.45,1,1,1h10c0.55,0,1-0.45,1-1V3"/>
	<line fill="#686868" x1="14" y1="3" x2="11" y2="0"/>
	<polygon fill="#FFFFFF" points="3,14 3,1 12,1 13,2 13,14 	"/>
	<path fill="#E5E5E5" d="M11,2V0l3,3h-2C11.45,3,11,2.551,11,2z"/>
</g>
<g id="Layer_2">
</g>
</svg>
