<?xml version="1.0" encoding="utf-8"?>
<!-- Generator: Adobe Illustrator 16.0.0, SVG Export Plug-In . SVG Version: 6.00 Build 0)  -->
<!DOCTYPE svg PUBLIC "-//W3C//DTD SVG 1.1//EN" "http://www.w3.org/Graphics/SVG/1.1/DTD/svg11.dtd">
<svg version="1.1" xmlns="http://www.w3.org/2000/svg" xmlns:xlink="http://www.w3.org/1999/xlink" x="0px" y="0px" width="16px"
	 height="16px" viewBox="0 0 16 16" enable-background="new 0 0 16 16" xml:space="preserve">
<g id="Layer_1">
	<path opacity="0.1" d="M15,3H2C1.45,3,1,3.451,1,4v1v8c0,0.551,0.45,1,1,1h6h1h6c0.55,0,1-0.449,1-1V8V5V4C16,3.451,15.55,3,15,3z"
		/>
	<path fill="#686868" d="M14,2H1C0.45,2,0,2.451,0,3v1h15V3C15,2.451,14.55,2,14,2z"/>
	<circle fill="#E5E5E5" cx="14" cy="3" r="0.375"/>
	<path fill="#FFFFFF" d="M0,4v8c0,0.551,0.45,1,1,1h6V4H0z"/>
	<path fill="#FFFFFF" d="M8,4v3v6h6c0.55,0,1-0.449,1-1V7V4H8z"/>
	<g>
		<path fill="#1C7CD3" d="M14,5.5C14,5.775,13.775,6,13.5,6h-12C1.225,6,1,5.775,1,5.5l0,0C1,5.225,1.225,5,1.5,5h12
			C13.775,5,14,5.225,14,5.5L14,5.5z"/>
	</g>
	<g>
		<path fill="#BD2026" d="M8,7.5C8,7.775,7.775,8,7.5,8h-6C1.225,8,1,7.775,1,7.5l0,0C1,7.225,1.225,7,1.5,7h6
			C7.775,7,8,7.225,8,7.5L8,7.5z"/>
	</g>
	<g>
		<path fill="#25B725" d="M14,9.5c0,0.275-0.225,0.5-0.5,0.5h-12C1.225,10,1,9.775,1,9.5l0,0C1,9.225,1.225,9,1.5,9h12
			C13.775,9,14,9.225,14,9.5L14,9.5z"/>
	</g>
	<g>
		<path fill="#FFBF0D" d="M8,11.5C8,11.775,7.775,12,7.5,12h-6C1.225,12,1,11.775,1,11.5l0,0C1,11.225,1.225,11,1.5,11h6
			C7.775,11,8,11.225,8,11.5L8,11.5z"/>
	</g>
	<rect x="7" y="4" fill="#686868" width="1" height="9"/>
</g>
<g id="Layer_2">
</g>
</svg>
