<?xml version="1.0" encoding="utf-8"?>
<!-- Generator: Adobe Illustrator 16.0.0, SVG Export Plug-In . SVG Version: 6.00 Build 0)  -->
<!DOCTYPE svg PUBLIC "-//W3C//DTD SVG 1.1//EN" "http://www.w3.org/Graphics/SVG/1.1/DTD/svg11.dtd">
<svg version="1.1" xmlns="http://www.w3.org/2000/svg" xmlns:xlink="http://www.w3.org/1999/xlink" x="0px" y="0px" width="16px"
	 height="16px" viewBox="0 0 16 16" enable-background="new 0 0 16 16" xml:space="preserve">
<g id="Layer_1">
	<rect y="12.188" fill="#E5A80E" width="1.662" height="1.313"/>
	<path opacity="0.1" d="M14.653,3.258l0.003-0.008L13.68,2.273L8.864,4H4C3.45,4,3,4.45,3,5H2C1.45,5,1,5.45,1,6v7.436L0.359,13.73
		v0.035l0.922,0.922c0.011,0.011,0.021,0.021,0.031,0.031l0.039,0.039l0.016-0.002C1.541,14.901,1.757,15,2,15h12c0.55,0,1-0.45,1-1
		v-1V6V4C15,3.702,14.861,3.441,14.653,3.258z"/>
	<path fill="#E5A80E" d="M13,2H6.667L6.555,1.832C6.25,1.374,5.55,1,5,1H1C0.45,1,0,1.45,0,2v1v2v8c0,0.55,0.45,0,1,0h12
		c0.55,0,1-0.45,1-1V3C14,2.45,13.55,2,13,2z"/>
	<path fill="#FFBF0D" d="M15.141,7.467h-4.104c-0.564,0-1.348,0.222-1.741,0.495l-0.146,0.1H2.655c-0.564,0-1.106,0.268-1.203,0.593
		l-1.412,4.751C-0.057,13.733,0.326,14,0.89,14H13.2c0.564,0,1.105-0.267,1.202-0.595l1.059-3.563l0.353-1.188l0.177-0.593
		C16.088,7.733,15.705,7.467,15.141,7.467z"/>
</g>
<g id="Layer_2">
</g>
</svg>
