<?xml version="1.0" encoding="utf-8"?>
<!-- Generator: Adobe Illustrator 16.0.0, SVG Export Plug-In . SVG Version: 6.00 Build 0)  -->
<!DOCTYPE svg PUBLIC "-//W3C//DTD SVG 1.1//EN" "http://www.w3.org/Graphics/SVG/1.1/DTD/svg11.dtd">
<svg version="1.1" xmlns="http://www.w3.org/2000/svg" xmlns:xlink="http://www.w3.org/1999/xlink" x="0px" y="0px" width="16px"
	 height="16px" viewBox="0 0 16 16" enable-background="new 0 0 16 16" xml:space="preserve">
<g id="Layer_1">
	<path opacity="0.1" d="M14.653,3.258l0.003-0.008L13.68,2.273L8.864,4H4C3.45,4,3,4.45,3,5H2C1.45,5,1,5.45,1,6v7.436L0.359,13.73
		v0.035l0.922,0.922c0.011,0.011,0.021,0.021,0.031,0.031l0.039,0.039l0.016-0.002C1.541,14.901,1.757,15,2,15h12c0.55,0,1-0.45,1-1
		v-1V6V4C15,3.702,14.861,3.441,14.653,3.258z"/>
	<path fill="#E5A80E" d="M13,2H6.667L6.555,1.832C6.25,1.374,5.55,1,5,1H1C0.45,1,0,1.45,0,2v1v2v6c0,0.55,0.45,1,1,1h12
		c0.55,0,1-0.45,1-1V3C14,2.45,13.55,2,13,2z"/>
	<path fill="#FFBF0D" d="M13,3H9C8.45,3,7.75,3.374,7.445,3.832L7.333,4H1C0.45,4,0,4.45,0,5v8c0,0.55,0.45,1,1,1h12
		c0.55,0,1-0.45,1-1V7V5V4C14,3.45,13.55,3,13,3z"/>
</g>
<g id="Layer_2">
</g>
</svg>
