<?xml version="1.0" encoding="utf-8"?>
<!-- Generator: Adobe Illustrator 16.0.0, SVG Export Plug-In . SVG Version: 6.00 Build 0)  -->
<!DOCTYPE svg PUBLIC "-//W3C//DTD SVG 1.1//EN" "http://www.w3.org/Graphics/SVG/1.1/DTD/svg11.dtd">
<svg version="1.1" xmlns="http://www.w3.org/2000/svg" xmlns:xlink="http://www.w3.org/1999/xlink" x="0px" y="0px" width="16px"
	 height="16px" viewBox="0 0 16 16" enable-background="new 0 0 16 16" xml:space="preserve">
<g id="Layer_1">
	<path opacity="0.1" d="M15,8.069V4.988v-2c0-0.298-0.139-0.559-0.348-0.742l0.004-0.008L13.68,1.262L8.863,2.988H4
		c-0.551,0-1,0.45-1,1H2c-0.551,0-1,0.45-1,1v7.436l-0.641,0.295v0.035l0.922,0.922c0.01,0.011,0.02,0.021,0.031,0.031l0.039,0.039
		l0.016-0.002C1.541,13.89,1.756,13.988,2,13.988h4.978c0.911,1.222,2.354,2.023,3.997,2.023c2.762,0,5-2.238,5-5
		C15.975,9.907,15.605,8.896,15,8.069z"/>
	<path fill="#E5A80E" d="M13,1H6.667L6.555,0.832C6.25,0.374,5.55,0,5,0H1C0.45,0,0,0.45,0,1v1v2v8c0,0.55,0.45,0,1,0h12
		c0.55,0,1-0.45,1-1V2C14,1.45,13.55,1,13,1z"/>
	<path fill="#FFBF0D" d="M13,2H9C8.45,2,7.75,2.374,7.445,2.832L7.333,3H1C0.45,3,0,3.45,0,4v8c0,0.55,0.45,1,1,1h12
		c0.55,0,1-0.45,1-1V6V4V3C14,2.45,13.55,2,13,2z"/>
	<circle fill="#FFFFFF" cx="9.975" cy="10.012" r="5"/>
	<polygon fill="#1766BC" points="13.074,9.862 11.265,9.862 11.265,13.326 9.908,13.326 9.908,6.695 	"/>
	<polygon fill="#1C7CD3" points="8.551,9.862 6.742,9.862 9.908,6.695 9.908,13.326 8.551,13.326 	"/>
</g>
<g id="Layer_2">
</g>
</svg>
