<?xml version="1.0" encoding="utf-8"?>
<!-- Generator: Adobe Illustrator 16.0.0, SVG Export Plug-In . SVG Version: 6.00 Build 0)  -->
<!DOCTYPE svg PUBLIC "-//W3C//DTD SVG 1.1//EN" "http://www.w3.org/Graphics/SVG/1.1/DTD/svg11.dtd">
<svg version="1.1" xmlns="http://www.w3.org/2000/svg" xmlns:xlink="http://www.w3.org/1999/xlink" x="0px" y="0px" width="16px"
	 height="16px" viewBox="0 0 16 16" enable-background="new 0 0 16 16" xml:space="preserve">
<g id="Layer_1">
	<path opacity="0.1" d="M15.025,8.058V4.977v-2c0-0.298-0.139-0.559-0.347-0.742l0.003-0.008L13.705,1.25L8.889,2.977H4.025
		c-0.55,0-1,0.45-1,1h-1c-0.55,0-1,0.45-1,1v7.436l-0.641,0.295v0.035l0.922,0.922c0.011,0.011,0.021,0.021,0.031,0.031l0.039,0.039
		l0.016-0.002c0.174,0.146,0.39,0.244,0.633,0.244h4.978C7.915,15.198,9.358,16,11,16c2.762,0,5-2.238,5-5
		C16,9.896,15.631,8.885,15.025,8.058z"/>
	<path fill="#E5A80E" d="M13,1H6.667L6.555,0.832C6.25,0.374,5.55,0,5,0H1C0.45,0,0,0.45,0,1v1v2v8c0,0.55,0.45,0,1,0h12
		c0.55,0,1-0.45,1-1V2C14,1.45,13.55,1,13,1z"/>
	<path fill="#E5A80E" d="M13.614,6.428l0.073,0.039H14V3c0-0.55-0.45-1-1-1H9.186l2.595,2.595L13.614,6.428z"/>
	<path fill="#FFBF0D" d="M13,2H9C8.45,2,7.75,2.374,7.445,2.832L7.333,3H1C0.45,3,0,3.45,0,4v8c0,0.55,0.45,1,1,1h12
		c0.55,0,1-0.45,1-1V6V4V3C14,2.45,13.55,2,13,2z"/>
	<polygon fill="#FFBF0D" points="14,6.633 14,6.467 13.688,6.467 	"/>
	<circle fill="#FFFFFF" cx="10" cy="10" r="5"/>
	<polygon fill="#2CCE2C" points="9.786,6.834 9.786,8.644 13.25,8.644 13.25,10 6.619,10 	"/>
	<polygon fill="#25B725" points="9.786,11.357 9.786,13.166 6.619,10 13.25,10 13.25,11.357 	"/>
</g>
<g id="Layer_2">
</g>
</svg>
