<?xml version="1.0" encoding="utf-8"?>
<!-- Generator: Adobe Illustrator 16.0.0, SVG Export Plug-In . SVG Version: 6.00 Build 0)  -->
<!DOCTYPE svg PUBLIC "-//W3C//DTD SVG 1.1//EN" "http://www.w3.org/Graphics/SVG/1.1/DTD/svg11.dtd">
<svg version="1.1" xmlns="http://www.w3.org/2000/svg" xmlns:xlink="http://www.w3.org/1999/xlink" x="0px" y="0px" width="16px"
	 height="16px" viewBox="0 0 16 16" enable-background="new 0 0 16 16" xml:space="preserve">
<g id="Layer_1">
	<path opacity="0.1" d="M1,14c0,0.55,0.45,1,1,1h13c0.55,0,1-0.45,1-1V4H1V14z"/>
	<path opacity="0.1" d="M15,2H2C1.45,2,1,2.45,1,3v1h15V3C16,2.45,15.55,2,15,2z"/>
	<path fill="#686868" d="M14,1H1C0.45,1,0,1.45,0,2v1h15V2C15,1.45,14.55,1,14,1z"/>
	
		<line fill="none" stroke="#E5E5E5" stroke-width="0.75" stroke-linecap="round" stroke-linejoin="round" stroke-miterlimit="10" x1="0.968" y1="2" x2="3.5" y2="2"/>
	<circle fill="#E5E5E5" cx="14" cy="2" r="0.375"/>
	<circle fill="#E5E5E5" cx="12.875" cy="2" r="0.375"/>
	<circle fill="#E5E5E5" cx="11.75" cy="2" r="0.375"/>
	<path fill="#E5E5E5" d="M0,3v10c0,0.55,0.45,1,1,1h6V3H0z"/>
	<rect x="7" y="3" fill="#FFFFFF" width="1" height="11"/>
	<rect y="3" fill="#2CCE2C" width="7" height="3"/>
	<path fill="#CCE5CC" d="M1,14c-0.55,0-1-0.45-1-1V6h7v8H1z"/>
	<rect y="6" fill="#FFFFFF" width="7.5" height="1"/>
	<path fill="#E5E5E5" d="M15,3v10c0,0.55-0.45,1-1,1H8V3H15z"/>
</g>
<g id="Layer_2">
</g>
</svg>
