<?xml version="1.0" encoding="utf-8"?>
<!-- Generator: Adobe Illustrator 16.0.0, SVG Export Plug-In . SVG Version: 6.00 Build 0)  -->
<!DOCTYPE svg PUBLIC "-//W3C//DTD SVG 1.1//EN" "http://www.w3.org/Graphics/SVG/1.1/DTD/svg11.dtd">
<svg version="1.1" xmlns="http://www.w3.org/2000/svg" xmlns:xlink="http://www.w3.org/1999/xlink" x="0px" y="0px" width="16px"
	 height="16px" viewBox="0 0 16 16" enable-background="new 0 0 16 16" xml:space="preserve">
<g id="Layer_1">
	<path opacity="0.1" d="M15,7.031h-0.969v-0.5C14.031,3.481,11.55,1,8.5,1S2.969,3.481,2.969,6.531v0.5H2c-0.55,0-1,0.45-1,1v7
		c0,0.55,0.45,1,1,1h6.5H15c0.55,0,1-0.45,1-1v-7C16,7.481,15.55,7.031,15,7.031z M4.969,6.531C4.969,4.584,6.553,3,8.5,3
		s3.531,1.584,3.531,3.531v0.5H8.5H4.969V6.531z"/>
	<g>
		<path fill="#686868" d="M13.031,8h-2V5.5c0-1.947-1.584-3.531-3.531-3.531S3.969,3.553,3.969,5.5V8h-2V5.5
			c0-3.05,2.481-5.531,5.531-5.531S13.031,2.45,13.031,5.5V8z"/>
	</g>
	<path fill="#E5A80E" d="M14,15c0.55,0,1-0.45,1-1V7c0-0.55-0.45-1-1-1H7.5v9H14z"/>
	<path fill="#FFBF0D" d="M1,15h6.5V6H1C0.45,6,0,6.45,0,7v7C0,14.55,0.45,15,1,15z"/>
	<g>
		<circle fill="#4C4C4C" cx="7.5" cy="9.5" r="1.5"/>
	</g>
	<g>
		<rect x="6.75" y="9.875" fill="#4C4C4C" width="1.5" height="3"/>
	</g>
</g>
<g id="Layer_2">
</g>
</svg>
