<?xml version="1.0" encoding="utf-8"?>
<!-- Generator: Adobe Illustrator 16.0.0, SVG Export Plug-In . SVG Version: 6.00 Build 0)  -->
<!DOCTYPE svg PUBLIC "-//W3C//DTD SVG 1.1//EN" "http://www.w3.org/Graphics/SVG/1.1/DTD/svg11.dtd">
<svg version="1.1" xmlns="http://www.w3.org/2000/svg" xmlns:xlink="http://www.w3.org/1999/xlink" x="0px" y="0px" width="16px"
	 height="16px" viewBox="0 0 16 16" enable-background="new 0 0 16 16" xml:space="preserve">
<g id="Layer_1">
	<path opacity="0.1" d="M14.125,3.126L14,3l-2.001-2H4C3.45,1,3,1.45,3,2v12.618l-0.531-0.321l-0.167,0.416l0.991,0.991
		c0.001,0.001,0.002,0.003,0.003,0.003l0.006,0.006h0.002C3.484,15.889,3.729,16,4,16h10c0.55,0,1-0.45,1-1V4L14.125,3.126z"/>
	<path fill="#E5E5E5" d="M11,0H3C2.45,0,2,0.45,2,1v13c0,0.55,0.45,1,1,1h10c0.55,0,1-0.45,1-1V3"/>
	<line fill="#686868" x1="14" y1="3" x2="11" y2="0"/>
	<path fill="#FFFFFF" d="M11,2V0l3,3h-2C11.45,3,11,2.551,11,2z"/>
	<path fill="#686868" d="M8.5,12h-4C4.224,12,4,12.224,4,12.5S4.224,13,4.5,13h4C8.776,13,9,12.776,9,12.5S8.776,12,8.5,12z"/>
	<path fill="#686868" d="M4.5,3h4C8.776,3,9,2.776,9,2.5S8.776,2,8.5,2h-4C4.224,2,4,2.224,4,2.5S4.224,3,4.5,3z"/>
	<path fill="#1C7CD3" d="M4.5,7H5h2h0.5C7.776,7,8,6.776,8,6.5S7.776,6,7.5,6H7H5H4.5C4.224,6,4,6.224,4,6.5S4.224,7,4.5,7z"/>
	<path fill="#2CCE2C" d="M11.5,12h-1c-0.276,0-0.5,0.224-0.5,0.5s0.224,0.5,0.5,0.5h1c0.276,0,0.5-0.224,0.5-0.5S11.776,12,11.5,12z
		"/>
	<path fill="#1C7CD3" d="M4.5,5h1h1C6.776,5,7,4.776,7,4.5S6.776,4,6.5,4h-1h-1C4.224,4,4,4.224,4,4.5S4.224,5,4.5,5z"/>
	<path fill="#2CCE2C" d="M8,4.5C8,4.776,8.224,5,8.5,5h1h1C10.776,5,11,4.776,11,4.5S10.776,4,10.5,4h-1h-1C8.224,4,8,4.224,8,4.5z"
		/>
	<path fill="#2CCE2C" d="M4.5,9H5h0.5C5.776,9,6,8.776,6,8.5S5.776,8,5.5,8H5H4.5C4.224,8,4,8.224,4,8.5S4.224,9,4.5,9z"/>
	<path fill="#686868" d="M9.5,8h-1h-1C7.224,8,7,8.224,7,8.5S7.224,9,7.5,9h1h1h1C10.776,9,11,8.776,11,8.5S10.776,8,10.5,8H9.5z"/>
	<path fill="#1C7CD3" d="M4.5,11H5h5h0.5c0.276,0,0.5-0.224,0.5-0.5S10.776,10,10.5,10H10H5H4.5C4.224,10,4,10.224,4,10.5
		S4.224,11,4.5,11z"/>
	<path fill="#686868" d="M9.5,6C9.224,6,9,6.224,9,6.5S9.224,7,9.5,7h1h1C11.776,7,12,6.776,12,6.5S11.776,6,11.5,6h-1H9.5z"/>
</g>
<g id="Layer_2">
</g>
</svg>
