<?xml version="1.0" encoding="utf-8"?>
<!-- Generator: Adobe Illustrator 16.0.0, SVG Export Plug-In . SVG Version: 6.00 Build 0)  -->
<!DOCTYPE svg PUBLIC "-//W3C//DTD SVG 1.1//EN" "http://www.w3.org/Graphics/SVG/1.1/DTD/svg11.dtd">
<svg version="1.1" xmlns="http://www.w3.org/2000/svg" xmlns:xlink="http://www.w3.org/1999/xlink" x="0px" y="0px" width="16px"
	 height="16px" viewBox="0 0 16 16" enable-background="new 0 0 16 16" xml:space="preserve">
<g id="Layer_1">
	<g opacity="0.1">
		<g>
			<polygon points="9.873,10.01 8.452,10.01 8.452,1 6.344,1 6.344,10.01 4.922,10.01 6.344,11.432 6.344,13.524 4.922,13.524 
				7.397,16 9.873,13.524 8.452,13.524 8.452,11.431 			"/>
			<polygon points="5.951,6.989 4.529,5.567 4.529,3.475 5.951,3.475 3.476,0.999 1,3.475 2.421,3.475 2.421,5.568 1,6.989 
				2.421,6.989 2.421,15.999 4.529,15.999 4.529,6.989 			"/>
			<path d="M14.867,5.654c-0.06-0.228-0.149-0.44-0.266-0.638l0.803-0.802l-0.884-0.884l-0.802,0.802
				c-0.197-0.117-0.411-0.207-0.639-0.266V2.732h-0.625H11.83v1.135c-0.228,0.059-0.44,0.149-0.638,0.265L10.391,3.33L9.506,4.213
				l0.803,0.802c-0.116,0.198-0.206,0.411-0.266,0.639l-1.133,0v1.25l1.134,0c0.059,0.228,0.148,0.441,0.266,0.639L9.507,8.344
				l0.884,0.884l0.803-0.802c0.197,0.116,0.41,0.206,0.637,0.265v1.132h0.625h0.625V8.69c0.228-0.059,0.44-0.149,0.639-0.266
				l0.801,0.802l0.884-0.884l-0.802-0.801c0.116-0.198,0.206-0.411,0.266-0.638l1.133,0v-1.25H14.867z M12.455,7.281
				c-0.554,0-1.003-0.449-1.003-1.002s0.449-1.002,1.003-1.002s1.003,0.449,1.003,1.002S13.009,7.281,12.455,7.281z"/>
			<path d="M15.094,11.256l0.521-0.52l-0.573-0.573l-0.52,0.52c-0.128-0.076-0.267-0.134-0.414-0.172V9.775h-0.405h-0.405v0.735
				c-0.147,0.038-0.285,0.097-0.413,0.172l-0.52-0.52l-0.574,0.573l0.521,0.52c-0.075,0.128-0.134,0.267-0.172,0.414l-0.734,0v0.811
				h0.735c0.037,0.147,0.096,0.286,0.172,0.414l-0.521,0.519l0.573,0.573l0.521-0.52c0.127,0.075,0.266,0.134,0.412,0.171v0.734
				h0.405h0.405v-0.734c0.147-0.038,0.285-0.096,0.414-0.172l0.519,0.52l0.573-0.573l-0.52-0.52
				c0.075-0.128,0.134-0.266,0.172-0.414l0.734,0v-0.81h-0.734C15.228,11.522,15.169,11.384,15.094,11.256z M13.702,12.724
				c-0.359,0-0.65-0.291-0.65-0.65s0.291-0.65,0.65-0.65s0.65,0.291,0.65,0.65S14.062,12.724,13.702,12.724z"/>
		</g>
	</g>
	<g>
		<polygon fill="#1766BC" points="6.397,11.486 8.873,9.01 3.922,9.01 		"/>
		<polygon fill="#1C7CD3" points="5.344,0 5.344,12.524 3.922,12.524 6.397,15 8.873,12.524 7.452,12.524 7.452,0 		"/>
	</g>
	<polygon fill="#25B725" points="2.476,3.513 0,5.989 4.951,5.989 	"/>
	<polygon fill="#2CCE2C" points="3.529,14.999 3.529,2.475 4.951,2.475 2.476,-0.001 0,2.475 1.421,2.475 1.421,14.999 	"/>
	<path fill="none" d="M10.452,5.279c0,0.554,0.449,1.002,1.003,1.002V4.276C10.901,4.276,10.452,4.725,10.452,5.279z"/>
	<path fill="#686868" d="M10.452,5.279c0-0.554,0.449-1.002,1.003-1.002V1.732H10.83v1.135c-0.228,0.059-0.44,0.149-0.638,0.265
		L9.391,2.33L8.506,3.213l0.803,0.802C9.192,4.213,9.103,4.427,9.043,4.654l-1.133,0v1.25l1.134,0
		C9.103,6.131,9.192,6.345,9.31,6.542L8.507,7.344l0.884,0.884l0.803-0.802c0.197,0.116,0.41,0.206,0.637,0.265v1.132h0.625V6.281
		C10.901,6.281,10.452,5.833,10.452,5.279z"/>
	<path fill="#4C4C4C" d="M12.08,7.69c0.228-0.059,0.44-0.149,0.639-0.266l0.801,0.802l0.884-0.884l-0.802-0.801
		c0.116-0.198,0.206-0.411,0.266-0.638l1.133,0v-1.25h-1.133c-0.06-0.228-0.149-0.44-0.266-0.638l0.803-0.802l-0.884-0.884
		l-0.802,0.802c-0.197-0.117-0.411-0.207-0.639-0.266V1.732h-0.625v2.544c0.554,0,1.003,0.449,1.003,1.002s-0.449,1.002-1.003,1.002
		v2.541h0.625V7.69z"/>
	<path fill="none" d="M12.052,11.074c0,0.359,0.291,0.65,0.65,0.65v-1.3C12.343,10.424,12.052,10.715,12.052,11.074z"/>
	<path fill="#686868" d="M12.052,11.074c0-0.359,0.291-0.65,0.65-0.65V8.775h-0.405v0.735c-0.147,0.038-0.285,0.097-0.413,0.172
		l-0.52-0.52L10.79,9.735l0.521,0.52c-0.075,0.128-0.134,0.267-0.172,0.414l-0.734,0v0.811h0.735
		c0.037,0.147,0.096,0.286,0.172,0.414l-0.521,0.519l0.573,0.573l0.521-0.52c0.127,0.075,0.266,0.134,0.412,0.171v0.734h0.405
		v-1.647C12.343,11.724,12.052,11.433,12.052,11.074z"/>
	<path fill="#4C4C4C" d="M13.107,12.637c0.147-0.038,0.285-0.096,0.414-0.172l0.519,0.52l0.573-0.573l-0.52-0.52
		c0.075-0.128,0.134-0.266,0.172-0.414l0.734,0v-0.81h-0.734c-0.038-0.147-0.097-0.286-0.172-0.414l0.521-0.52l-0.573-0.573
		l-0.52,0.52c-0.128-0.076-0.267-0.134-0.414-0.172V8.775h-0.405v1.649c0.359,0,0.65,0.291,0.65,0.65s-0.291,0.65-0.65,0.65v1.647
		h0.405V12.637z"/>
</g>
<g id="Layer_2">
</g>
</svg>
