<?xml version="1.0" encoding="utf-8"?>
<!-- Generator: Adobe Illustrator 16.0.0, SVG Export Plug-In . SVG Version: 6.00 Build 0)  -->
<!DOCTYPE svg PUBLIC "-//W3C//DTD SVG 1.1//EN" "http://www.w3.org/Graphics/SVG/1.1/DTD/svg11.dtd">
<svg version="1.1" xmlns="http://www.w3.org/2000/svg" xmlns:xlink="http://www.w3.org/1999/xlink" x="0px" y="0px" width="16px"
	 height="16px" viewBox="0 0 16 16" enable-background="new 0 0 16 16" xml:space="preserve">
<g id="Layer_1">
	<g>
		<polygon opacity="0.1" points="9.522,8.978 7.5,11 4.522,11 4.522,8.978 1,12.5 4.522,16.022 4.522,14 7.5,14 9.522,16.022 
			9.522,14 16,14 16,11 9.522,11 		"/>
		<polygon opacity="0.1" points="7.478,8.045 9.5,6.022 12.478,6.022 12.478,8.045 16,4.522 12.478,1 12.478,3.022 9.5,3.022 
			7.478,1 7.478,3.022 1,3.022 1,6.022 7.478,6.022 		"/>
	</g>
	<g>
		<polygon fill="#1766BC" points="5,11.5 8.522,15.022 8.522,7.978 		"/>
		<polygon fill="#1C7CD3" points="15,10 3.522,10 3.522,7.978 0,11.5 3.522,15.022 3.522,13 15,13 		"/>
	</g>
	<polygon fill="#25B725" points="10,3.522 6.478,0 6.478,7.045 	"/>
	<polygon fill="#2CCE2C" points="0,5.022 11.478,5.022 11.478,7.045 15,3.522 11.478,0 11.478,2.022 0,2.022 	"/>
</g>
<g id="Layer_2">
</g>
</svg>
