<?xml version="1.0" encoding="utf-8"?>
<!-- Generator: Adobe Illustrator 16.0.0, SVG Export Plug-In . SVG Version: 6.00 Build 0)  -->
<!DOCTYPE svg PUBLIC "-//W3C//DTD SVG 1.1//EN" "http://www.w3.org/Graphics/SVG/1.1/DTD/svg11.dtd">
<svg version="1.1" xmlns="http://www.w3.org/2000/svg" xmlns:xlink="http://www.w3.org/1999/xlink" x="0px" y="0px" width="16px"
	 height="16px" viewBox="0 0 16 16" enable-background="new 0 0 16 16" xml:space="preserve">
<g id="Layer_1">
	<g opacity="0.1">
		<g>
			<path d="M15.147,9.44c-0.194-0.194-0.513-0.194-0.707,0L11,12.881V3V1.5C11,1.225,10.776,1,10.5,1H6H1.5C1.224,1,1,1.225,1,1.5V3
				v11v1.5C1,15.776,1.224,16,1.5,16H6h4.5c0.011,0,0.02-0.006,0.03-0.006c0,0,0.001,0,0.001,0c0.006,0,0.012-0.004,0.018-0.004
				c0.054-0.006,0.106-0.014,0.154-0.035c0.055-0.022,0.106-0.056,0.151-0.101l5-5c0.194-0.194,0.194-0.513,0-0.707L15.147,9.44z"/>
		</g>
	</g>
	<g>
		<path fill="#FFFFFF" d="M0.5,0C0.224,0,0,0.225,0,0.5V2v11v1.5C0,14.776,0.224,15,0.5,15H5v-1.5v-12V0H0.5z"/>
	</g>
	<g>
		<path fill="#E5E5E5" d="M9.5,0H5v1.5v12V15h4.5c0.276,0,0.5-0.224,0.5-0.5V13V2V0.5C10,0.225,9.776,0,9.5,0z"/>
	</g>
	<g>
		<path fill="#1C7CD3" d="M2.5,2C2.224,2,2,2.224,2,2.5S2.224,3,2.5,3h2.458V2H2.5z"/>
	</g>
	<g>
		<path fill="#1C7CD3" d="M2.5,4C2.224,4,2,4.224,2,4.5S2.224,5,2.5,5h2.458V4H2.5z"/>
	</g>
	<g>
		<path fill="#1766BC" d="M8,2.5C8,2.224,7.776,2,7.5,2H4.958v1H7.5C7.776,3,8,2.776,8,2.5z"/>
	</g>
	<g>
		<path fill="#1766BC" d="M8,4.5C8,4.224,7.776,4,7.5,4H4.958v1H7.5C7.776,5,8,4.776,8,4.5z"/>
	</g>
	<g>
		<path fill="#686868" d="M4.25,12.5c0,0.414,0.336,0.75,0.75,0.75v-1.5C4.586,11.75,4.25,12.086,4.25,12.5z"/>
	</g>
	<g>
		<path fill="#4C4C4C" d="M5.75,12.5c0-0.414-0.336-0.75-0.75-0.75v1.5C5.414,13.25,5.75,12.914,5.75,12.5z"/>
	</g>
	<path fill="#25B725" d="M14.854,9.147L14.147,8.44c-0.194-0.194-0.513-0.194-0.707,0l-3.586,3.586
		c-0.089,0.089-0.205,0.133-0.323,0.14v2.828c0.118-0.007,0.233-0.051,0.323-0.14l5-5C15.048,9.66,15.048,9.342,14.854,9.147z"/>
	<path fill="#2CCE2C" d="M9.147,12.026l-0.641-0.641c-0.194-0.194-0.513-0.194-0.707,0l-0.707,0.707
		c-0.194,0.194-0.194,0.513,0,0.707l2.055,2.055c0.105,0.105,0.246,0.148,0.384,0.14v-2.828C9.393,12.175,9.252,12.132,9.147,12.026
		z"/>
</g>
<g id="Layer_2">
</g>
</svg>
