<?xml version="1.0" encoding="utf-8"?>
<!-- Generator: Adobe Illustrator 16.0.0, SVG Export Plug-In . SVG Version: 6.00 Build 0)  -->
<!DOCTYPE svg PUBLIC "-//W3C//DTD SVG 1.1//EN" "http://www.w3.org/Graphics/SVG/1.1/DTD/svg11.dtd">
<svg version="1.1" xmlns="http://www.w3.org/2000/svg" xmlns:xlink="http://www.w3.org/1999/xlink" x="0px" y="0px" width="16px"
	 height="16px" viewBox="0 0 16 16" enable-background="new 0 0 16 16" xml:space="preserve">
<g id="Layer_1">
	<g opacity="0.1">
		<g>
			<path d="M13.898,3.903c-0.276-0.258-1.042-0.934-2.124-1.572C9.888,1.218,7.054,0.239,4.202,1.88
				C1.621,3.365,1.002,5.899,1,8.004h3.001C4.009,6.705,4.359,5.251,5.698,4.48c0.856-0.494,1.763-0.534,2.609-0.354
				c0.416,0.115,0.854,0.267,1.315,0.458c1.053,0.5,1.865,1.184,2.151,1.441L9.797,8.004H16V1.801L13.898,3.903z"/>
			<path d="M11.302,12.527c-0.856,0.494-1.763,0.534-2.609,0.354c-0.416-0.115-0.854-0.267-1.315-0.458
				c-1.053-0.5-1.865-1.184-2.151-1.441l1.978-1.978H1v6.203l2.102-2.102c0.276,0.258,1.042,0.934,2.124,1.572
				c1.887,1.113,4.721,2.092,7.572,0.451c2.581-1.485,3.2-4.02,3.202-6.124h-3.001C12.991,10.303,12.641,11.757,11.302,12.527z"/>
		</g>
	</g>
	<path fill="none" d="M8.623,3.582c-0.41-0.195-0.853-0.36-1.315-0.458C7.724,3.238,8.162,3.39,8.623,3.582z"/>
	<path fill="#1766BC" d="M4.698,3.477c0.856-0.494,1.763-0.534,2.609-0.354C1.41,1.486,0,7,0,7h3.001
		C3.009,5.701,3.359,4.247,4.698,3.477z"/>
	<path fill="#1C7CD3" d="M10.774,1.327C8.888,0.214,6.054-0.765,3.202,0.876C0.621,2.361,0.002,4.896,0,7
		c0,0,1.41-5.514,7.308-3.877c0.463,0.099,0.905,0.264,1.315,0.458c1.053,0.5,1.865,1.184,2.151,1.441l0,0V1.327z"/>
	<path fill="#1766BC" d="M11.15,4.874l1.86-1.868c-0.082-0.082-0.937-0.912-2.236-1.679v3.695l0,0
		c0.068,0.061,0.115,0.105,0.119,0.109L11.15,4.874z"/>
	<polygon fill="#1C7CD3" points="15,7 15,0.797 8.797,7 	"/>
	<path fill="none" d="M6.377,11.418c0.41,0.195,0.853,0.36,1.315,0.458C7.276,11.762,6.838,11.61,6.377,11.418z"/>
	<path fill="#25B725" d="M10.302,11.523c-0.856,0.494-1.763,0.534-2.609,0.354C13.59,13.514,15,8,15,8h-3.001
		C11.991,9.299,11.641,10.753,10.302,11.523z"/>
	<path fill="#2CCE2C" d="M4.226,13.673c1.887,1.113,4.721,2.092,7.572,0.451c2.581-1.485,3.2-4.02,3.202-6.124
		c0,0-1.41,5.514-7.308,3.877c-0.463-0.099-0.905-0.264-1.315-0.458c-1.053-0.5-1.865-1.184-2.151-1.441l0,0V13.673z"/>
	<path fill="#25B725" d="M3.85,10.126l-1.86,1.868c0.082,0.082,0.937,0.912,2.236,1.679V9.978l0,0
		C4.157,9.917,4.11,9.872,4.106,9.869L3.85,10.126z"/>
	<polygon fill="#2CCE2C" points="0,8 0,14.203 6.203,8 	"/>
</g>
<g id="Layer_2">
</g>
</svg>
