<?xml version="1.0" encoding="utf-8"?>
<!-- Generator: Adobe Illustrator 16.0.0, SVG Export Plug-In . SVG Version: 6.00 Build 0)  -->
<!DOCTYPE svg PUBLIC "-//W3C//DTD SVG 1.1//EN" "http://www.w3.org/Graphics/SVG/1.1/DTD/svg11.dtd">
<svg version="1.1" xmlns="http://www.w3.org/2000/svg" xmlns:xlink="http://www.w3.org/1999/xlink" x="0px" y="0px" width="16px"
	 height="16px" viewBox="0 0 16 16" enable-background="new 0 0 16 16" xml:space="preserve">
<g id="Layer_1">
	<path opacity="0.1" d="M12.375,1H9H5.625C5.418,1,5.25,1.168,5.25,1.375V2.5v8.25v1.125c0,0.207,0.168,0.375,0.375,0.375h3v2.25
		H8.25v0.375h-3v0.75h3V16h1.5v-0.375h3v-0.75h-3V14.5H9.375v-2.25h3c0.207,0,0.375-0.168,0.375-0.375V10.75V2.5V1.375
		C12.75,1.168,12.582,1,12.375,1z"/>
	<g>
		<rect x="7.625" y="11.25" fill="#686868" width="0.75" height="3"/>
	</g>
	<g>
		<path fill="#686868" d="M4.625,0C4.418,0,4.25,0.168,4.25,0.375V1.5v8.25v1.125c0,0.207,0.168,0.375,0.375,0.375H8v-1.125v-9V0
			H4.625z"/>
	</g>
	<g>
		<path fill="#4C4C4C" d="M11.375,0H8v1.125v9v1.125h3.375c0.207,0,0.375-0.168,0.375-0.375V9.75V1.5V0.375
			C11.75,0.168,11.582,0,11.375,0z"/>
	</g>
	<g>
		<path fill="#2CCE2C" d="M6.125,1.5C5.918,1.5,5.75,1.668,5.75,1.875S5.918,2.25,6.125,2.25h1.844V1.5H6.125z"/>
	</g>
	<g>
		<path fill="#2CCE2C" d="M6.125,3C5.918,3,5.75,3.168,5.75,3.375S5.918,3.75,6.125,3.75h1.844V3H6.125z"/>
	</g>
	<g>
		<path fill="#25B725" d="M10.25,1.875c0-0.207-0.168-0.375-0.375-0.375H7.969v0.75h1.906C10.082,2.25,10.25,2.082,10.25,1.875z"/>
	</g>
	<g>
		<path fill="#25B725" d="M10.25,3.375C10.25,3.168,10.082,3,9.875,3H7.969v0.75h1.906C10.082,3.75,10.25,3.582,10.25,3.375z"/>
	</g>
	<g>
		<path fill="#FFFFFF" d="M7.438,9.375c0,0.311,0.252,0.563,0.563,0.563V8.813C7.689,8.813,7.438,9.064,7.438,9.375z"/>
	</g>
	<g>
		<path fill="#E5E5E5" d="M8.563,9.375c0-0.311-0.252-0.563-0.563-0.563v1.125C8.311,9.938,8.563,9.686,8.563,9.375z"/>
	</g>
	<g>
		<rect x="4.25" y="13.875" fill="#686868" width="7.5" height="0.75"/>
	</g>
	<g>
		<rect x="7.25" y="13.5" fill="#1C7CD3" width="1.5" height="1.5"/>
	</g>
</g>
<g id="Layer_2">
</g>
</svg>
