<?xml version="1.0" encoding="utf-8"?>
<!-- Generator: Adobe Illustrator 16.0.0, SVG Export Plug-In . SVG Version: 6.00 Build 0)  -->
<!DOCTYPE svg PUBLIC "-//W3C//DTD SVG 1.1//EN" "http://www.w3.org/Graphics/SVG/1.1/DTD/svg11.dtd">
<svg version="1.1" xmlns="http://www.w3.org/2000/svg" xmlns:xlink="http://www.w3.org/1999/xlink" x="0px" y="0px" width="16px"
	 height="16px" viewBox="0 0 16 16" enable-background="new 0 0 16 16" xml:space="preserve">
<g id="Layer_1">
	<path opacity="0.1" d="M1,8.5c0,0,3.357,4.5,7.5,4.5S16,8.5,16,8.5S12.643,4,8.5,4S1,8.5,1,8.5z"/>
	<path fill="#E5E5E5" d="M0,7.5c0,0,3.357,4.5,7.5,4.5S15,7.5,15,7.5S11.643,3,7.5,3S0,7.5,0,7.5z"/>
	<path fill="#FFFFFF" d="M7.5,11c-2.746,0-5.182-2.36-6.197-3.499C2.321,6.363,4.766,4,7.5,4c2.746,0,5.182,2.36,6.197,3.499
		C12.679,8.637,10.234,11,7.5,11z"/>
	<path fill="#2CCE2C" d="M4.641,7.5c0,1.579,1.28,2.859,2.859,2.859V4.641C5.921,4.641,4.641,5.921,4.641,7.5z"/>
	<path fill="#25B725" d="M10.359,7.5c0-1.579-1.28-2.859-2.859-2.859v5.719C9.079,10.359,10.359,9.079,10.359,7.5z"/>
	<path fill="#686868" d="M5.53,7.5c0,1.088,0.882,1.971,1.97,1.971V5.529C6.412,5.529,5.53,6.412,5.53,7.5z"/>
	<path fill="#4C4C4C" d="M9.47,7.5c0-1.088-0.882-1.971-1.97-1.971v3.941C8.588,9.471,9.47,8.588,9.47,7.5z"/>
	<circle fill="#FFFFFF" cx="9.5" cy="5.906" r="0.948"/>
</g>
<g id="Layer_2">
</g>
</svg>
