<?xml version="1.0" encoding="utf-8"?>
<!-- Generator: Adobe Illustrator 16.0.0, SVG Export Plug-In . SVG Version: 6.00 Build 0)  -->
<!DOCTYPE svg PUBLIC "-//W3C//DTD SVG 1.1//EN" "http://www.w3.org/Graphics/SVG/1.1/DTD/svg11.dtd">
<svg version="1.1" xmlns="http://www.w3.org/2000/svg" xmlns:xlink="http://www.w3.org/1999/xlink" x="0px" y="0px" width="16px"
	 height="16px" viewBox="0 0 16 16" enable-background="new 0 0 16 16" xml:space="preserve">
<g id="Layer_1">
	<g>
		<polygon opacity="0.1" fill="#231F20" points="14,12.729 13,12.729 13,15 9,15 9,12.729 8,12.729 8,15 4,15 4,12.729 3,12.729 
			3,15 1,15 1,16 16,16 16,15 14,15 		"/>
		<path opacity="0.1" fill="#231F20" d="M15.75,1H13.5h-2.25C11.112,1,11,1.112,11,1.25V2v0.25C11,2.112,10.888,2,10.75,2H8.5H6.25
			C6.112,2,6,2.112,6,2.25V2V1.25C6,1.112,5.888,1,5.75,1H3.5H1.25C1.112,1,1,1.112,1,1.25V2v5.152C0.542,7.297,0.1,7.444,0.1,7.444
			l0.967,0.967C1.074,8.42,1.08,8.426,1.088,8.433L1.09,8.435l0.001,0C1.135,8.472,1.188,8.5,1.25,8.5h1.309L2.313,9.75L1,9.435
			L0,9.75l1,1h2V11h1v-0.25h1l1,1h2V12h1v-0.25h2v-0.5L9.25,9.5h0.229L10,9.75l1,1h2V11h1v-0.25h2v-0.5v-2V8.063V7.5V2V1.25
			C16,1.112,15.888,1,15.75,1z"/>
	</g>
	<g opacity="0.1">
		<path fill="#231F20" d="M2.25,2C2.112,2,2,2.112,2,2.25S2.112,2.5,2.25,2.5h1.229V2H2.25z"/>
	</g>
	<g opacity="0.1">
		<path fill="#231F20" d="M2.25,3C2.112,3,2,3.112,2,3.25S2.112,3.5,2.25,3.5h1.229V3H2.25z"/>
	</g>
	<g opacity="0.1">
		<path fill="#231F20" d="M5,2.25C5,2.112,4.888,2,4.75,2H3.479v0.5H4.75C4.888,2.5,5,2.388,5,2.25z"/>
	</g>
	<g opacity="0.1">
		<path fill="#231F20" d="M5,3.25C5,3.112,4.888,3,4.75,3H3.479v0.5H4.75C4.888,3.5,5,3.388,5,3.25z"/>
	</g>
	<g opacity="0.1">
		<path fill="#231F20" d="M7.25,4C7.112,4,7,4.112,7,4.25S7.112,4.5,7.25,4.5h1.229V4H7.25z"/>
	</g>
	<g opacity="0.1">
		<path fill="#231F20" d="M10,4.25C10,4.112,9.888,4,9.75,4H8.479v0.5H9.75C9.888,4.5,10,4.388,10,4.25z"/>
	</g>
	<g opacity="0.1">
		<path fill="#231F20" d="M12.25,3C12.112,3,12,3.112,12,3.25s0.112,0.25,0.25,0.25h1.229V3H12.25z"/>
	</g>
	<g opacity="0.1">
		<path fill="#231F20" d="M15,3.25C15,3.112,14.888,3,14.75,3h-1.271v0.5h1.271C14.888,3.5,15,3.388,15,3.25z"/>
	</g>
	<g>
		<rect x="2.25" y="6.625" fill="#686868" width="0.5" height="2.875"/>
	</g>
	<rect y="14" fill="#686868" width="15" height="1"/>
	<rect x="2" y="11.729" fill="#686868" width="1" height="2.271"/>
	<rect x="7" y="11.729" fill="#686868" width="1" height="2.271"/>
	<g>
		<rect x="7.25" y="7.625" fill="#686868" width="0.5" height="2.875"/>
	</g>
	<rect x="12" y="11.729" fill="#686868" width="1" height="2.271"/>
	<g>
		<path fill="#FFFFFF" d="M0.25,0C0.112,0,0,0.112,0,0.25V1v5.5v0.75C0,7.388,0.112,7.5,0.25,7.5H2.5V6.75v-6V0H0.25z"/>
	</g>
	<g>
		<path fill="#E5E5E5" d="M4.75,0H2.5v0.75v6V7.5h2.25C4.888,7.5,5,7.388,5,7.25V6.5V1V0.25C5,0.112,4.888,0,4.75,0z"/>
	</g>
	<g>
		<path fill="#1C7CD3" d="M1.25,1C1.112,1,1,1.112,1,1.25S1.112,1.5,1.25,1.5h1.229V1H1.25z"/>
	</g>
	<g>
		<path fill="#1C7CD3" d="M1.25,2C1.112,2,1,2.112,1,2.25S1.112,2.5,1.25,2.5h1.229V2H1.25z"/>
	</g>
	<g>
		<path fill="#1766BC" d="M4,1.25C4,1.112,3.888,1,3.75,1H2.479v0.5H3.75C3.888,1.5,4,1.388,4,1.25z"/>
	</g>
	<g>
		<path fill="#1766BC" d="M4,2.25C4,2.112,3.888,2,3.75,2H2.479v0.5H3.75C3.888,2.5,4,2.388,4,2.25z"/>
	</g>
	<g>
		<path fill="#686868" d="M2.125,6.25c0,0.207,0.168,0.375,0.375,0.375v-0.75C2.293,5.875,2.125,6.043,2.125,6.25z"/>
	</g>
	<g>
		<rect x="12.25" y="6.625" fill="#686868" width="0.5" height="2.875"/>
	</g>
	<g>
		<path fill="#4C4C4C" d="M2.875,6.25c0-0.207-0.168-0.375-0.375-0.375v0.75C2.707,6.625,2.875,6.457,2.875,6.25z"/>
	</g>
	<g>
		<rect y="9.25" fill="#686868" width="5" height="0.5"/>
	</g>
	<rect x="2" y="9" fill="#2CCE2C" width="1" height="1"/>
	<g>
		<path fill="#FFFFFF" d="M5.25,1C5.112,1,5,1.112,5,1.25V2v5.5v0.75C5,8.388,5.112,8.5,5.25,8.5H7.5V7.75v-6V1H5.25z"/>
	</g>
	<g>
		<path fill="#E5E5E5" d="M9.75,1H7.5v0.75v6V8.5h2.25C9.888,8.5,10,8.388,10,8.25V7.5V2V1.25C10,1.112,9.888,1,9.75,1z"/>
	</g>
	<g>
		<path fill="#1C7CD3" d="M6.25,3C6.112,3,6,3.112,6,3.25S6.112,3.5,6.25,3.5h1.229V3H6.25z"/>
	</g>
	<g>
		<path fill="#1766BC" d="M9,3.25C9,3.112,8.888,3,8.75,3H7.479v0.5H8.75C8.888,3.5,9,3.388,9,3.25z"/>
	</g>
	<g>
		<path fill="#1C7CD3" d="M6.25,2C6.112,2,6,2.112,6,2.25S6.112,2.5,6.25,2.5h1.229V2H6.25z"/>
	</g>
	<g>
		<path fill="#1766BC" d="M9,2.25C9,2.112,8.888,2,8.75,2H7.479v0.5H8.75C8.888,2.5,9,2.388,9,2.25z"/>
	</g>
	<g>
		<path fill="#686868" d="M7.125,7.25c0,0.207,0.168,0.375,0.375,0.375v-0.75C7.293,6.875,7.125,7.043,7.125,7.25z"/>
	</g>
	<g>
		<path fill="#4C4C4C" d="M7.875,7.25c0-0.207-0.168-0.375-0.375-0.375v0.75C7.707,7.625,7.875,7.457,7.875,7.25z"/>
	</g>
	<g>
		<rect x="5" y="10.25" fill="#686868" width="5" height="0.5"/>
	</g>
	<rect x="7" y="10" fill="#2CCE2C" width="1" height="1"/>
	<g>
		<path fill="#FFFFFF" d="M10.25,0C10.112,0,10,0.112,10,0.25V1v5.5v0.75c0,0.138,0.112,0.25,0.25,0.25h2.25V6.75v-6V0H10.25z"/>
	</g>
	<g>
		<path fill="#E5E5E5" d="M14.75,0H12.5v0.75v6V7.5h2.25C14.888,7.5,15,7.388,15,7.25V6.5V1V0.25C15,0.112,14.888,0,14.75,0z"/>
	</g>
	<g>
		<path fill="#1C7CD3" d="M11.25,2C11.112,2,11,2.112,11,2.25s0.112,0.25,0.25,0.25h1.229V2H11.25z"/>
	</g>
	<g>
		<path fill="#1766BC" d="M14,2.25C14,2.112,13.888,2,13.75,2h-1.271v0.5h1.271C13.888,2.5,14,2.388,14,2.25z"/>
	</g>
	<g>
		<path fill="#1C7CD3" d="M11.25,1C11.112,1,11,1.112,11,1.25s0.112,0.25,0.25,0.25h1.229V1H11.25z"/>
	</g>
	<g>
		<path fill="#1766BC" d="M14,1.25C14,1.112,13.888,1,13.75,1h-1.271v0.5h1.271C13.888,1.5,14,1.388,14,1.25z"/>
	</g>
	<g>
		<path fill="#686868" d="M12.125,6.25c0,0.207,0.168,0.375,0.375,0.375v-0.75C12.293,5.875,12.125,6.043,12.125,6.25z"/>
	</g>
	<g>
		<path fill="#4C4C4C" d="M12.875,6.25c0-0.207-0.168-0.375-0.375-0.375v0.75C12.707,6.625,12.875,6.457,12.875,6.25z"/>
	</g>
	<g>
		<rect x="10" y="9.25" fill="#686868" width="5" height="0.5"/>
	</g>
	<rect x="12" y="9" fill="#2CCE2C" width="1" height="1"/>
</g>
<g id="Layer_2">
</g>
</svg>
