<?xml version="1.0" encoding="utf-8"?>
<!-- Generator: Adobe Illustrator 16.0.0, SVG Export Plug-In . SVG Version: 6.00 Build 0)  -->
<!DOCTYPE svg PUBLIC "-//W3C//DTD SVG 1.1//EN" "http://www.w3.org/Graphics/SVG/1.1/DTD/svg11.dtd">
<svg version="1.1" xmlns="http://www.w3.org/2000/svg" xmlns:xlink="http://www.w3.org/1999/xlink" x="0px" y="0px" width="16px"
	 height="16px" viewBox="0 0 16 16" enable-background="new 0 0 16 16" xml:space="preserve">
<g id="Layer_1">
	<path opacity="0.1" d="M15.707,6.418c-0.328-1.137-0.923-2.157-1.705-3.003L14.006,3.4l-1.281-1.281l-0.132,0.123
		C11.413,1.469,10.016,1,8.5,1C4.358,1,1,4.357,1,8.5c0,1.4,0.399,2.7,1.067,3.822L1.912,12.51l1.385,1.385
		c0.022,0.021,0.042,0.044,0.064,0.064l0.042,0.043l0.012,0.002c0.85,0.785,1.877,1.382,3.021,1.709C7.092,15.899,7.784,16,8.5,16
		c4.143,0,7.5-3.357,7.5-7.5C16,7.777,15.898,7.079,15.707,6.418z"/>
	<g>
		<path fill="#686868" d="M4.617,3.656l7.586-0.742l2.504,2.504C13.805,2.289,10.92,0,7.5,0C3.358,0,0,3.357,0,7.5
			c0,3.427,2.298,6.316,5.437,7.213l-2.539-2.54L4.617,3.656z"/>
	</g>
	<g>
		<path fill="#4C4C4C" d="M15,7.5c0-0.723-0.102-1.421-0.293-2.082l-2.504-2.504L4.617,3.656l-1.72,8.517l2.539,2.54
			C6.092,14.899,6.784,15,7.5,15C11.643,15,15,11.643,15,7.5z"/>
	</g>
	<g>
		<path fill="#FFFFFF" d="M7.5,14.063c-3.619,0-6.563-2.944-6.563-6.563S3.881,0.938,7.5,0.938c3.619,0,6.563,2.944,6.563,6.563
			S11.119,14.063,7.5,14.063z"/>
	</g>
	<g>
		<path fill="#FFFFFF" d="M7.5,13.594c-3.36,0-6.094-2.733-6.094-6.094S4.14,1.406,7.5,1.406c3.361,0,6.094,2.733,6.094,6.094
			S10.861,13.594,7.5,13.594z"/>
	</g>
	<g>
		<path fill="#BD2026" d="M11.043,7.5h2.145c0-1.568-0.639-2.99-1.668-4.02l-1.514,1.514C10.646,5.636,11.043,6.521,11.043,7.5z"/>
	</g>
	<g>
		<path fill="#2CCE2C" d="M7.5,3.956V1.813c-1.568,0-2.99,0.639-4.02,1.668l1.514,1.514C5.636,4.354,6.521,3.956,7.5,3.956z"/>
	</g>
	<g>
		<path fill="#2CCE2C" d="M10.006,4.994L11.52,3.48C10.49,2.451,9.068,1.813,7.5,1.813v2.144C8.478,3.956,9.365,4.354,10.006,4.994z
			"/>
	</g>
	<g>
		<path fill="#2CCE2C" d="M1.813,7.5c0,1.568,0.638,2.99,1.667,4.02l1.514-1.514C4.353,9.364,3.957,8.479,3.957,7.5H1.813z"/>
	</g>
	<g>
		<path fill="#2CCE2C" d="M4.994,4.994L3.48,3.48c-1.03,1.03-1.667,2.451-1.667,4.02h2.144C3.957,6.521,4.353,5.636,4.994,4.994z"/>
	</g>
	<g>
		<path fill="#FFF1D0" d="M6.188,8.484"/>
	</g>
	<g>
		<path fill="#FFF1D0" d="M3.621,11.051"/>
	</g>
	<g>
		<path fill="#BFBFBF" d="M7.222,6.506L7.177,6.504c-0.043,0.021,0.75,0.619,0.709,0.648C7.439,7.47,6.424,7.57,6.741,8.018
			S7.678,8.568,8.125,8.25c0.04-0.028,0.152-0.113,0.187-0.146h0.001l2.248-2.388c-0.107-0.186-0.232-0.362-0.375-0.528L7.222,6.506
			z"/>
	</g>
	<g>
		<path fill="#8D191C" d="M10.186,5.188c0.143,0.166,0.268,0.343,0.375,0.528l1.125-1.195L10.186,5.188z"/>
	</g>
	<g>
		<path fill="#686868" d="M11.088,3.928L6.973,6.639h0.002c-0.039,0.029-0.142,0.127-0.177,0.16
			C6.411,7.188,6.411,7.815,6.799,8.203C7.187,8.59,7.815,8.59,8.203,8.202c0.035-0.036,0.131-0.139,0.16-0.178l0,0.001
			L11.088,3.928z"/>
	</g>
	<g>
		<circle fill="#FFFFFF" cx="7.5" cy="7.501" r="0.469"/>
	</g>
	<g>
		<path fill="#BD2026" d="M13.188,7.5c0,1.568-0.639,2.99-1.668,4.02l-1.514-1.514c0.641-0.642,1.037-1.527,1.037-2.506H13.188z"/>
	</g>
</g>
<g id="Layer_2">
</g>
</svg>
