<?xml version="1.0" encoding="utf-8"?>
<!-- Generator: Adobe Illustrator 16.0.0, SVG Export Plug-In . SVG Version: 6.00 Build 0)  -->
<!DOCTYPE svg PUBLIC "-//W3C//DTD SVG 1.1//EN" "http://www.w3.org/Graphics/SVG/1.1/DTD/svg11.dtd">
<svg version="1.1" xmlns="http://www.w3.org/2000/svg" xmlns:xlink="http://www.w3.org/1999/xlink" x="0px" y="0px" width="16px"
	 height="16px" viewBox="0 0 16 16" enable-background="new 0 0 16 16" xml:space="preserve">
<g id="Layer_1">
	<rect x="1" y="8" opacity="0.1" width="8" height="8"/>
	<rect y="7" fill="#FFFFFF" width="8" height="8.011"/>
	<path fill="#686868" d="M4.017,11.021l0.546-0.584L6,9L1.994,8.999l1.299,1.3c-1.021,1.148-1.585,2.608-1.585,4.16
		c0,0.182,0.011,0.362,0.026,0.541h1.027c-0.02-0.18-0.039-0.358-0.039-0.541C2.723,13.18,3.186,11.979,4.017,11.021z"/>
	<path fill="#4C4C4C" d="M3.736,14.459c0-1.008,0.364-1.95,1.004-2.714L6,13.006V9l-1.438,1.438l-0.546,0.584
		c-0.831,0.957-1.294,2.158-1.294,3.438c0,0.183,0.02,0.361,0.039,0.541h1.027C3.767,14.82,3.736,14.643,3.736,14.459z"/>
</g>
<g id="Layer_2">
</g>
</svg>
