<?xml version="1.0" encoding="utf-8"?>
<!-- Generator: Adobe Illustrator 16.0.0, SVG Export Plug-In . SVG Version: 6.00 Build 0)  -->
<!DOCTYPE svg PUBLIC "-//W3C//DTD SVG 1.1//EN" "http://www.w3.org/Graphics/SVG/1.1/DTD/svg11.dtd">
<svg version="1.1" xmlns="http://www.w3.org/2000/svg" xmlns:xlink="http://www.w3.org/1999/xlink" x="0px" y="0px" width="16px"
	 height="16px" viewBox="0 0 16 16" enable-background="new 0 0 16 16" xml:space="preserve">
<g id="Layer_1">
	<path opacity="0.1" d="M15,1H9v2.484C8.844,3.47,8.691,3.438,8.531,3.438C8.35,3.438,8.177,3.473,8,3.491v0.343L7.572,3.631
		L5.064,4.326l-1.41,2.299l-0.86,0.531l0.812,0.813H3.551C3.533,8.136,3.5,8.298,3.5,8.469C3.5,8.65,3.535,8.823,3.554,9H1v6
		c0,0.551,0.45,1,1,1h6v-2v-0.554v-0.475c0.947,0.245,2.032,0.237,3.123-0.391c1.604-0.922,1.988-2.497,1.989-3.804V8h0.403H15h1V2
		C16,1.449,15.55,1,15,1z"/>
	<path fill="#FFFFFF" d="M3.483,8H0v6c0,0.551,0.45,1,1,1h6v-4.177L3.313,8.25L3.483,8z"/>
	<path fill="#FFFFFF" d="M15,1c0-0.551-0.45-1-1-1H8v4.449l1.487,0.655L10.99,7H15V1z"/>
	<g>
		<path fill="#E5E5E5" d="M6,11.5C6,11.775,5.775,12,5.5,12h-4C1.225,12,1,11.775,1,11.5l0,0C1,11.225,1.225,11,1.5,11h4
			C5.775,11,6,11.225,6,11.5L6,11.5z"/>
	</g>
	<g>
		<path fill="#E5E5E5" d="M4,13.5C4,13.775,3.775,14,3.5,14h-2C1.225,14,1,13.775,1,13.5l0,0C1,13.225,1.225,13,1.5,13h2
			C3.775,13,4,13.225,4,13.5L4,13.5z"/>
	</g>
	<g>
		<path fill="#E5E5E5" d="M12,1.5C12,1.775,11.775,2,11.5,2h-2C9.225,2,9,1.775,9,1.5l0,0C9,1.225,9.225,1,9.5,1h2
			C11.775,1,12,1.225,12,1.5L12,1.5z"/>
	</g>
	<g>
		<path fill="#E5E5E5" d="M14,3.5C14,3.775,13.775,4,13.5,4h-4C9.225,4,9,3.775,9,3.5l0,0C9,3.225,9.225,3,9.5,3h4
			C13.775,3,14,3.225,14,3.5L14,3.5z"/>
	</g>
	<g>
		<path fill="#E5E5E5" d="M13,5.5C13,5.775,12.775,6,12.5,6h-1c-0.275,0-0.701-0.101-0.947-0.224L9.447,5.224
			C9.201,5.101,9.225,5,9.5,5h3C12.775,5,13,5.225,13,5.5L13,5.5z"/>
	</g>
	<g>
		<path fill="#E5E5E5" d="M5.553,9.776C5.799,9.899,5.775,10,5.5,10h-4C1.225,10,1,9.775,1,9.5l0,0C1,9.225,1.225,9,1.5,9h2
			c0.275,0,0.701,0.101,0.947,0.224L5.553,9.776z"/>
	</g>
	<path fill="none" d="M8.15,5.032C7.896,4.911,7.621,4.808,7.334,4.747C7.592,4.819,7.864,4.913,8.15,5.032z"/>
	<path fill="#25B725" d="M5.713,4.967c0.531-0.307,1.095-0.332,1.621-0.22C3.67,3.73,2.794,7.156,2.794,7.156h1.864
		C4.663,6.349,4.881,5.445,5.713,4.967z"/>
	<path fill="#2CCE2C" d="M9.487,3.631c-1.172-0.691-2.933-1.3-4.704-0.28C3.18,4.273,2.795,5.848,2.794,7.156
		c0,0,0.876-3.426,4.54-2.409C7.621,4.808,7.896,4.911,8.15,5.032c0.654,0.31,1.159,0.735,1.337,0.895l0,0V3.631z"/>
	<path fill="#25B725" d="M9.721,5.835l1.156-1.16c-0.051-0.052-0.582-0.567-1.39-1.044v2.296l0,0
		C9.53,5.965,9.559,5.992,9.562,5.995L9.721,5.835z"/>
	<polygon fill="#2CCE2C" points="12.112,7.156 12.112,3.302 8.259,7.156 	"/>
	<path fill="none" d="M6.756,9.9c0.254,0.122,0.529,0.224,0.816,0.285C7.314,10.114,7.042,10.02,6.756,9.9z"/>
	<path fill="#E5A80E" d="M9.193,9.967c-0.531,0.307-1.095,0.331-1.621,0.219c3.664,1.018,4.54-2.408,4.54-2.408h-1.864
		C10.243,8.584,10.025,9.487,9.193,9.967z"/>
	<path fill="#FFBF0D" d="M5.419,11.301c1.172,0.692,2.933,1.3,4.704,0.28c1.604-0.922,1.988-2.497,1.989-3.804
		c0,0-0.876,3.426-4.54,2.408C7.285,10.124,7.01,10.022,6.756,9.9C6.102,9.59,5.597,9.165,5.419,9.005l0,0V11.301z"/>
	<path fill="#E5A80E" d="M5.186,9.098l-1.156,1.161c0.051,0.051,0.582,0.566,1.39,1.042V9.005l0,0
		C5.376,8.968,5.348,8.939,5.345,8.938L5.186,9.098z"/>
	<polygon fill="#FFBF0D" points="2.794,7.777 2.794,11.631 6.647,7.777 	"/>
</g>
<g id="Layer_2">
</g>
</svg>
