<?xml version="1.0" encoding="utf-8"?>
<!-- Generator: Adobe Illustrator 16.0.0, SVG Export Plug-In . SVG Version: 6.00 Build 0)  -->
<!DOCTYPE svg PUBLIC "-//W3C//DTD SVG 1.1//EN" "http://www.w3.org/Graphics/SVG/1.1/DTD/svg11.dtd">
<svg version="1.1" xmlns="http://www.w3.org/2000/svg" xmlns:xlink="http://www.w3.org/1999/xlink" x="0px" y="0px" width="16px"
	 height="16px" viewBox="0 0 16 16" enable-background="new 0 0 16 16" xml:space="preserve">
<g id="Layer_1">
	<g opacity="0.1">
		<g>
			<path d="M5.26,5.819c0-0.017-0.027-1.585,1.095-2.39c0.06-0.043,0.133-0.064,0.198-0.099v3.328H5.13l2.487,2.486l2.488-2.486
				h-1.42V3.301c0.674,0.224,1.37,0.61,2,1.166L9.29,5.863h4.3l0.001-4.301l-1.423,1.423l-0.455-0.388
				c-0.333-0.264-0.676-0.494-1.028-0.697C8.747,0.791,6.625,0.675,5.142,1.733c-2.048,1.466-1.972,4.051-1.97,4.12H5.26V5.819z"/>
			<path d="M14.828,11.146h-2.087v0.034c0,0.017,0.027,1.585-1.095,2.39c-0.07,0.05-0.154,0.077-0.231,0.115v-3.345h1.422
				L10.35,7.854l-2.488,2.486h1.42v3.345c-0.664-0.224-1.346-0.606-1.967-1.153l1.395-1.396h-4.3l-0.001,4.3l0.446-0.448
				l0.977-0.975c0.47,0.431,0.97,0.792,1.483,1.084c1.938,1.111,4.06,1.229,5.543,0.169C14.907,13.801,14.83,11.216,14.828,11.146z"
				/>
		</g>
	</g>
	<rect x="5.552" y="2" fill="#2CCE2C" width="2.132" height="4.368"/>
	<rect x="8.282" y="8.632" fill="#1C7CD3" width="2.132" height="4.368"/>
	<polygon fill="#1C7CD3" points="6.862,9.341 9.35,9.341 11.837,9.341 9.35,6.854 	"/>
	<path fill="#8D191C" d="M2.172,4.854H4.26V4.819c0-0.017-0.027-1.585,1.095-2.39C5.912,2.031,6.716,2.002,7.57,2.259l0.001-0.008
		C7.572,2.251,3.6,0.681,2.172,4.854z"/>
	<path fill="#E5A80E" d="M13.828,10.146h-2.087v0.034c0,0.017,0.027,1.585-1.095,2.39c-0.557,0.398-1.361,0.427-2.215,0.169
		l-0.001,0.009C8.429,12.748,12.401,14.319,13.828,10.146z"/>
	<path fill="#FFBF0D" d="M13.828,10.146c-1.427,4.173-5.399,2.602-5.399,2.602l0.001-0.009c-0.709-0.214-1.448-0.619-2.115-1.207
		v2.565c1.938,1.111,4.06,1.229,5.543,0.169C13.907,12.801,13.83,10.216,13.828,10.146z"/>
	<polygon fill="#FFBF0D" points="6.315,11.532 7.71,10.137 3.411,10.137 3.41,14.437 3.855,13.988 3.855,13.988 	"/>
	<path fill="#E5A80E" d="M3.855,13.988L3.855,13.988l0.977-0.975c0.47,0.431,0.97,0.792,1.483,1.084v-2.565L3.855,13.988z"/>
	<path fill="#BD2026" d="M4.142,0.733c-2.048,1.466-1.972,4.051-1.97,4.12C3.6,0.681,7.572,2.251,7.572,2.251L7.57,2.259
		C8.279,2.475,9.019,2.88,9.685,3.467V0.9C7.747-0.209,5.625-0.325,4.142,0.733z"/>
	<path fill="#1C7CD3" d="M10.713,1.598l0.455,0.388C11.02,1.849,10.868,1.721,10.713,1.598z"/>
	<polygon fill="#BD2026" points="11.167,1.985 9.685,3.467 8.29,4.863 12.59,4.863 12.591,0.563 	"/>
	<path fill="#8D191C" d="M10.713,1.598C10.379,1.334,10.037,1.104,9.685,0.9v2.566l1.482-1.481L10.713,1.598z"/>
	<polygon fill="#2CCE2C" points="9.105,5.659 6.617,5.659 4.13,5.659 6.617,8.146 	"/>
</g>
<g id="Layer_2">
</g>
</svg>
