<?xml version="1.0" encoding="utf-8"?>
<!-- Generator: Adobe Illustrator 16.0.0, SVG Export Plug-In . SVG Version: 6.00 Build 0)  -->
<!DOCTYPE svg PUBLIC "-//W3C//DTD SVG 1.1//EN" "http://www.w3.org/Graphics/SVG/1.1/DTD/svg11.dtd">
<svg version="1.1" xmlns="http://www.w3.org/2000/svg" xmlns:xlink="http://www.w3.org/1999/xlink" x="0px" y="0px" width="16px"
	 height="16px" viewBox="0 0 16 16" enable-background="new 0 0 16 16" xml:space="preserve">
<g id="Layer_1">
	<g>
		<polygon opacity="0.1" points="1,12 4.429,12 4.429,16 7,16 9.571,16 9.571,12 13,12 7,6 		"/>
		<path opacity="0.1" d="M15,3.75h-1.75V2c0-0.55-0.45-1-1-1H12h-0.25c-0.55,0-1,0.45-1,1v1.75H9c-0.55,0-1,0.45-1,1v0.5
			c0,0.55,0.45,1,1,1h1.75V8c0,0.55,0.45,1,1,1H12h0.25c0.55,0,1-0.45,1-1V6.25H15c0.55,0,1-0.45,1-1v-0.5
			C16,4.2,15.55,3.75,15,3.75z"/>
	</g>
	<polygon fill="#BD2026" points="0,11 3.429,11 3.429,15 6,15 6,5 	"/>
	<polygon fill="#8D191C" points="8.571,11 12,11 6,5 6,15 8.571,15 	"/>
	<path fill="#2CCE2C" d="M12.25,2.75H11V0h-0.25c-0.55,0-1,0.45-1,1v1.75H8c-0.55,0-1,0.45-1,1v0.5c0,0.55,0.45,1,1,1h1.75V7
		c0,0.55,0.45,1,1,1H11V5.25h1.25V2.75z"/>
	<path fill="#25B725" d="M14,2.75h-1.75V1c0-0.55-0.45-1-1-1H11v8h0.25c0.55,0,1-0.45,1-1V5.25H14c0.55,0,1-0.45,1-1v-0.5
		C15,3.2,14.55,2.75,14,2.75z"/>
</g>
<g id="Layer_2">
</g>
</svg>
